<svg width="119" height="53" viewBox="0 0 119 53" fill="none" xmlns="http://www.w3.org/2000/svg">
<path d="M38.3265 35.62C38.3265 36.5533 38.2565 37.44 38.1165 38.28C38.0232 39.12 37.7665 39.9833 37.3465 40.87C36.9732 41.71 36.4365 42.62 35.7365 43.6C35.0365 44.58 34.1265 45.7 33.0065 46.96C31.6532 48.4533 30.0665 49.7833 28.2465 50.95C26.4265 52.1167 24.3965 52.7 22.1565 52.7C20.7565 52.7 19.3565 52.4667 17.9565 52C16.6032 51.5333 15.3898 50.8333 14.3165 49.9C13.2898 48.9667 12.4498 47.8 11.7965 46.4C11.1432 45 10.8165 43.3667 10.8165 41.5C10.8165 38.5133 11.3765 35.3867 12.4965 32.12C13.6165 28.8067 15.1798 25.26 17.1865 21.48C18.4932 19.0067 19.7065 16.8367 20.8265 14.97C21.9465 13.0567 23.0432 11.47 24.1165 10.21C25.1898 8.90333 26.2632 7.92333 27.3365 7.27C28.4098 6.61666 29.5532 6.29 30.7665 6.29C31.6998 6.29 32.4932 6.47666 33.1465 6.85C33.8465 7.17667 34.1965 7.85333 34.1965 8.88C34.1965 9.20666 34.1265 9.51 33.9865 9.79C33.8465 10.0233 33.6365 10.14 33.3565 10.14C32.9832 10.14 32.7032 10.0467 32.5165 9.86C32.3765 9.62666 31.9332 9.51 31.1865 9.51C29.9265 9.51 28.6898 10.0933 27.4765 11.26C26.2632 12.4267 25.1198 13.78 24.0465 15.32C23.0198 16.8133 22.1098 18.3067 21.3165 19.8C20.5698 21.2933 20.0332 22.39 19.7065 23.09C19.1465 24.2567 18.5165 25.6333 17.8165 27.22C17.1632 28.8067 16.5332 30.44 15.9265 32.12C15.3198 33.8 14.8065 35.4333 14.3865 37.02C13.9665 38.56 13.7565 39.8433 13.7565 40.87C13.7565 42.1767 13.9665 43.3433 14.3865 44.37C14.8532 45.35 15.4598 46.19 16.2065 46.89C16.9532 47.59 17.8165 48.1267 18.7965 48.5C19.8232 48.8267 20.8965 48.99 22.0165 48.99C23.5565 48.99 25.1198 48.6167 26.7065 47.87C28.3398 47.1233 29.7865 46.1433 31.0465 44.93C32.3532 43.7167 33.4032 42.3167 34.1965 40.73C35.0365 39.1433 35.4565 37.5333 35.4565 35.9C35.4565 34.2667 35.0365 32.9133 34.1965 31.84C33.3565 30.7667 32.4232 30.23 31.3965 30.23C30.7432 30.23 30.2765 30.3467 29.9965 30.58C29.7632 30.7667 29.5298 31.0233 29.2965 31.35C28.9698 31.8633 28.6665 32.2833 28.3865 32.61C28.1065 32.9367 27.6165 33.2167 26.9165 33.45C25.7965 33.8233 24.9098 34.1033 24.2565 34.29C23.6498 34.43 23.2065 34.5467 22.9265 34.64L22.3665 34.78C22.0865 34.78 21.6898 34.5933 21.1765 34.22C20.7098 33.8 20.4765 33.4733 20.4765 33.24C20.4765 32.4 20.9665 31.6067 21.9465 30.86C22.9732 30.0667 24.1165 29.3667 25.3765 28.76C26.6365 28.1067 27.8498 27.5933 29.0165 27.22C30.1832 26.8467 30.9065 26.66 31.1865 26.66C32.5865 26.66 33.7298 26.94 34.6165 27.5C35.5498 28.06 36.2732 28.7833 36.7865 29.67C37.3465 30.5567 37.7432 31.5367 37.9765 32.61C38.2098 33.6367 38.3265 34.64 38.3265 35.62ZM52.3073 36.88C52.3073 37.9067 52.1673 38.8867 51.8873 39.82C51.6073 40.7533 51.234 41.57 50.7673 42.27C50.3007 42.97 49.7407 43.53 49.0873 43.95C48.4807 44.3233 47.804 44.51 47.0573 44.51C45.7507 44.51 44.724 44.1367 43.9773 43.39C43.2307 42.6433 42.6473 41.78 42.2273 40.8C41.854 39.82 41.5973 38.84 41.4573 37.86C41.364 36.8333 41.3173 36.0633 41.3173 35.55C41.3173 34.71 41.434 33.7767 41.6673 32.75C41.9473 31.6767 42.2973 30.6967 42.7173 29.81C43.184 28.9233 43.6973 28.1767 44.2573 27.57C44.8173 26.9633 45.4007 26.66 46.0073 26.66C46.1473 26.66 46.3573 26.7067 46.6373 26.8C46.964 26.8933 47.2907 27.0333 47.6173 27.22C47.944 27.4067 48.224 27.64 48.4573 27.92C48.7373 28.2 48.924 28.5267 49.0173 28.9C49.5307 28.9467 50.044 29.1333 50.5573 29.46C51.0707 29.7867 51.3507 30.0433 51.3973 30.23C51.7707 31.4433 52.004 32.6567 52.0973 33.87C52.2373 35.0833 52.3073 36.0867 52.3073 36.88ZM49.1573 35.62C49.1573 34.92 49.0873 34.1967 48.9473 33.45C48.8073 32.6567 48.5273 31.8633 48.1073 31.07C48.014 31.1167 47.8973 31.14 47.7573 31.14C47.5707 31.14 47.4073 31.1167 47.2673 31.07C47.174 31.0233 47.0807 31 46.9873 31C46.4273 31 45.984 31.1633 45.6573 31.49C45.3307 31.77 45.074 32.1667 44.8873 32.68C44.7473 33.1467 44.654 33.66 44.6073 34.22C44.5607 34.78 44.5373 35.3167 44.5373 35.83C44.5373 36.3433 44.5607 36.9267 44.6073 37.58C44.654 38.1867 44.7473 38.77 44.8873 39.33C45.074 39.89 45.3073 40.38 45.5873 40.8C45.8673 41.1733 46.2407 41.36 46.7073 41.36C47.174 41.36 47.5707 41.1267 47.8973 40.66C48.224 40.1467 48.4807 39.5633 48.6673 38.91C48.854 38.2567 48.9707 37.6267 49.0173 37.02C49.1107 36.3667 49.1573 35.9 49.1573 35.62ZM82.7809 20.36C82.1742 21.06 81.3109 21.76 80.1909 22.46C79.0709 23.1133 77.9509 23.72 76.8309 24.28C75.7109 24.84 74.7309 25.33 73.8909 25.75C73.0509 26.1233 72.6309 26.38 72.6309 26.52C72.6309 26.66 72.7242 27.08 72.9109 27.78C73.0975 28.48 73.3075 29.32 73.5409 30.3C73.8209 31.2333 74.1009 32.2133 74.3809 33.24C74.6609 34.2667 74.8942 35.1767 75.0809 35.97C75.1742 36.4367 75.2909 37.0433 75.4309 37.79C75.5709 38.5367 75.6875 39.2833 75.7809 40.03C75.9209 40.7767 76.0375 41.4533 76.1309 42.06C76.2242 42.62 76.2709 42.9233 76.2709 42.97C76.2709 43.67 76.1542 44.3933 75.9209 45.14C75.6875 45.8867 75.3142 46.26 74.8009 46.26C74.5209 46.26 74.2642 46.1433 74.0309 45.91C73.7975 45.6767 73.5875 45.42 73.4009 45.14C73.2142 44.8133 73.0742 44.51 72.9809 44.23C72.8875 43.95 72.8409 43.74 72.8409 43.6C72.8409 43.5067 72.8409 43.3667 72.8409 43.18C72.8875 42.9933 72.9109 42.7833 72.9109 42.55C72.9109 41.6633 72.7709 40.38 72.4909 38.7C72.3975 38.1867 72.2109 37.3933 71.9309 36.32C71.6509 35.2467 71.3709 34.15 71.0909 33.03C70.7642 31.7233 70.3909 30.3 69.9709 28.76C69.7842 28.1067 69.6675 27.78 69.6209 27.78C69.2942 27.78 68.7342 27.99 67.9409 28.41C67.1942 28.7833 66.3309 29.2733 65.3509 29.88C64.3709 30.44 63.3442 31.07 62.2709 31.77C61.1975 32.4233 60.1942 33.0533 59.2609 33.66C58.3275 34.22 57.5342 34.71 56.8809 35.13C56.1809 35.5033 55.7609 35.69 55.6209 35.69C55.0142 35.69 54.5242 35.48 54.1509 35.06C53.7775 34.64 53.5909 34.1733 53.5909 33.66C53.5909 33.38 53.9875 32.9833 54.7809 32.47C55.5275 31.91 56.4842 31.3033 57.6509 30.65C58.7709 29.9967 60.0075 29.32 61.3609 28.62C62.6675 27.92 63.8809 27.29 65.0009 26.73C66.1675 26.17 67.1242 25.7033 67.8709 25.33C68.6642 24.9567 69.0609 24.77 69.0609 24.77C68.6409 22.6233 68.2909 20.71 68.0109 19.03C67.7775 17.5833 67.5442 16.2533 67.3109 15.04C67.1242 13.8267 67.0309 13.1733 67.0309 13.08C67.0309 12.4733 67.1475 12.03 67.3809 11.75C67.6609 11.4233 67.9642 11.26 68.2909 11.26C68.8042 11.26 69.1309 11.61 69.2709 12.31C69.7842 14.83 70.2509 17.07 70.6709 19.03C71.1375 20.99 71.5809 22.5767 72.0009 23.79C72.4209 23.6967 73.1442 23.44 74.1709 23.02C75.1975 22.5533 76.2709 22.0633 77.3909 21.55C78.5109 21.0367 79.5142 20.5933 80.4009 20.22C81.3342 19.8 81.8709 19.59 82.0109 19.59C82.2909 19.59 82.4542 19.6833 82.5009 19.87C82.5942 20.0567 82.6875 20.22 82.7809 20.36ZM95.6144 36.88C95.6144 37.9067 95.4744 38.8867 95.1944 39.82C94.9144 40.7533 94.541 41.57 94.0744 42.27C93.6077 42.97 93.0477 43.53 92.3944 43.95C91.7877 44.3233 91.111 44.51 90.3644 44.51C89.0577 44.51 88.031 44.1367 87.2844 43.39C86.5377 42.6433 85.9544 41.78 85.5344 40.8C85.161 39.82 84.9044 38.84 84.7644 37.86C84.671 36.8333 84.6244 36.0633 84.6244 35.55C84.6244 34.71 84.741 33.7767 84.9744 32.75C85.2544 31.6767 85.6044 30.6967 86.0244 29.81C86.491 28.9233 87.0044 28.1767 87.5644 27.57C88.1244 26.9633 88.7077 26.66 89.3144 26.66C89.4544 26.66 89.6644 26.7067 89.9444 26.8C90.271 26.8933 90.5977 27.0333 90.9244 27.22C91.251 27.4067 91.531 27.64 91.7644 27.92C92.0444 28.2 92.231 28.5267 92.3244 28.9C92.8377 28.9467 93.351 29.1333 93.8644 29.46C94.3777 29.7867 94.6577 30.0433 94.7044 30.23C95.0777 31.4433 95.311 32.6567 95.4044 33.87C95.5444 35.0833 95.6144 36.0867 95.6144 36.88ZM92.4644 35.62C92.4644 34.92 92.3944 34.1967 92.2544 33.45C92.1144 32.6567 91.8344 31.8633 91.4144 31.07C91.321 31.1167 91.2044 31.14 91.0644 31.14C90.8777 31.14 90.7144 31.1167 90.5744 31.07C90.481 31.0233 90.3877 31 90.2944 31C89.7344 31 89.291 31.1633 88.9644 31.49C88.6377 31.77 88.381 32.1667 88.1944 32.68C88.0544 33.1467 87.961 33.66 87.9144 34.22C87.8677 34.78 87.8444 35.3167 87.8444 35.83C87.8444 36.3433 87.8677 36.9267 87.9144 37.58C87.961 38.1867 88.0544 38.77 88.1944 39.33C88.381 39.89 88.6144 40.38 88.8944 40.8C89.1744 41.1733 89.5477 41.36 90.0144 41.36C90.481 41.36 90.8777 41.1267 91.2044 40.66C91.531 40.1467 91.7877 39.5633 91.9744 38.91C92.161 38.2567 92.2777 37.6267 92.3244 37.02C92.4177 36.3667 92.4644 35.9 92.4644 35.62Z" fill="white"/>
<path d="M117.772 36.0608C118.358 35.475 118.358 34.5253 117.772 33.9395L108.226 24.3935C107.64 23.8077 106.691 23.8077 106.105 24.3934C105.519 24.9792 105.519 25.929 106.105 26.5148L114.59 35.0001L106.105 43.4853C105.519 44.0711 105.519 45.0209 106.105 45.6067C106.69 46.1924 107.64 46.1925 108.226 45.6067L117.772 36.0608ZM100 36.5L116.711 36.5001L116.711 33.5001L100 33.5L100 36.5Z" fill="white"/>
</svg>
