<svg width="32" height="25" viewBox="0 0 32 25" fill="none" xmlns="http://www.w3.org/2000/svg">
<path d="M14.7667 15.2507C14.7667 15.6969 14.7332 16.1208 14.6663 16.5223C14.6217 16.9239 14.499 17.3366 14.2982 17.7605C14.1197 18.1621 13.8632 18.5971 13.5285 19.0656C13.1939 19.5341 12.7588 20.0695 12.2234 20.6719C11.5765 21.3857 10.8179 22.0216 9.94786 22.5793C9.07779 23.1371 8.10734 23.4159 7.03649 23.4159C6.36721 23.4159 5.69793 23.3044 5.02864 23.0813C4.38169 22.8582 3.80161 22.5235 3.28851 22.0774C2.79769 21.6312 2.39612 21.0734 2.08381 20.4042C1.77149 19.7349 1.61531 18.9541 1.61531 18.0617C1.61531 16.6339 1.88302 15.1392 2.41845 13.5775C2.95387 11.9935 3.70122 10.298 4.66054 8.49095C5.28522 7.30857 5.86525 6.27118 6.40067 5.37879C6.9361 4.46412 7.46038 3.70559 7.97348 3.10324C8.48658 2.47857 8.99973 2.01007 9.51283 1.69774C10.0259 1.38541 10.5725 1.22925 11.1526 1.22925C11.5987 1.22925 11.978 1.31848 12.2903 1.49696C12.625 1.65313 12.7923 1.97661 12.7923 2.46742C12.7923 2.62358 12.7588 2.76859 12.6919 2.90245C12.625 3.01398 12.5246 3.06977 12.3907 3.06977C12.2123 3.06977 12.0784 3.02517 11.9892 2.93591C11.9222 2.82436 11.7103 2.76859 11.3534 2.76859C10.751 2.76859 10.1598 3.04745 9.57976 3.6052C8.99973 4.16295 8.45312 4.8099 7.94002 5.54611C7.44919 6.25999 7.01416 6.97393 6.63492 7.68781C6.27795 8.40169 6.02143 8.92598 5.86525 9.26062C5.59753 9.81837 5.29636 10.4765 4.96172 11.235C4.6494 11.9935 4.34822 12.7743 4.05819 13.5775C3.76815 14.3806 3.52276 15.1614 3.32198 15.92C3.12119 16.6562 3.0208 17.2697 3.0208 17.7605C3.0208 18.3852 3.12119 18.9429 3.32198 19.4337C3.54509 19.9022 3.83508 20.3038 4.19204 20.6384C4.54901 20.973 4.96172 21.2296 5.43021 21.4081C5.92103 21.5643 6.43413 21.6423 6.96956 21.6423C7.70577 21.6423 8.45312 21.4639 9.21165 21.1069C9.99246 20.7499 10.6841 20.2814 11.2864 19.7014C11.9111 19.1214 12.4131 18.4521 12.7923 17.6936C13.1939 16.935 13.3947 16.1654 13.3947 15.3845C13.3947 14.6037 13.1939 13.9567 12.7923 13.4436C12.3907 12.9305 11.9446 12.674 11.4537 12.674C11.1414 12.674 10.9183 12.7297 10.7845 12.8413C10.6729 12.9305 10.5614 13.0532 10.4498 13.2094C10.2936 13.4548 10.1486 13.6556 10.0148 13.8117C9.88093 13.9679 9.64668 14.1018 9.31204 14.2133C8.77662 14.3918 8.35272 14.5256 8.04041 14.6149C7.75037 14.6818 7.53845 14.7376 7.40459 14.7822L7.13688 14.8491C7.00302 14.8491 6.81338 14.7599 6.56799 14.5814C6.34488 14.3806 6.23335 14.2244 6.23335 14.1129C6.23335 13.7113 6.4676 13.3321 6.9361 12.9751C7.42692 12.5959 7.97348 12.2612 8.57583 11.9712C9.17819 11.6589 9.75822 11.4135 10.316 11.235C10.8737 11.0565 11.2195 10.9673 11.3534 10.9673C12.0226 10.9673 12.5692 11.1011 12.9931 11.3689C13.4393 11.6366 13.7851 11.9823 14.0305 12.4062C14.2982 12.8301 14.4878 13.2986 14.5994 13.8117C14.7109 14.3026 14.7667 14.7822 14.7667 15.2507ZM21.4503 15.853C21.4503 16.3439 21.3834 16.8124 21.2495 17.2585C21.1157 17.7047 20.9372 18.0951 20.7141 18.4298C20.491 18.7644 20.2233 19.0321 19.911 19.2329C19.621 19.4114 19.2975 19.5006 18.9405 19.5006C18.3159 19.5006 17.8251 19.3222 17.4681 18.9652C17.1112 18.6082 16.8323 18.1955 16.6315 17.727C16.453 17.2585 16.3303 16.79 16.2634 16.3215C16.2188 15.8307 16.1965 15.4626 16.1965 15.2172C16.1965 14.8157 16.2522 14.3695 16.3638 13.8787C16.4976 13.3656 16.665 12.8971 16.8657 12.4732C17.0889 12.0493 17.3342 11.6924 17.602 11.4023C17.8697 11.1123 18.1486 10.9673 18.4386 10.9673C18.5055 10.9673 18.6059 10.9896 18.7397 11.0342C18.8959 11.0788 19.0521 11.1457 19.2082 11.235C19.3644 11.3243 19.4983 11.4358 19.6098 11.5696C19.7437 11.7035 19.8329 11.8597 19.8775 12.0381C20.1229 12.0605 20.3683 12.1497 20.6137 12.3058C20.8591 12.462 20.993 12.5847 21.0153 12.674C21.1938 13.254 21.3053 13.8341 21.3499 14.4141C21.4169 14.9941 21.4503 15.4738 21.4503 15.853ZM19.9444 15.2507C19.9444 14.916 19.911 14.5703 19.844 14.2133C19.7771 13.8341 19.6433 13.4548 19.4425 13.0755C19.3979 13.0978 19.3421 13.109 19.2752 13.109C19.1859 13.109 19.1078 13.0978 19.0409 13.0755C18.9963 13.0532 18.9517 13.0421 18.907 13.0421C18.6393 13.0421 18.4274 13.1201 18.2712 13.2763C18.1151 13.4102 17.9924 13.5998 17.9031 13.8452C17.8362 14.0683 17.7916 14.3137 17.7693 14.5814C17.747 14.8491 17.7358 15.1057 17.7358 15.3511C17.7358 15.5965 17.747 15.8754 17.7693 16.1877C17.7916 16.4777 17.8362 16.7566 17.9031 17.0243C17.9924 17.292 18.1039 17.5262 18.2378 17.727C18.3716 17.9055 18.5501 17.9947 18.7732 17.9947C18.9963 17.9947 19.1859 17.8832 19.3421 17.6601C19.4983 17.4147 19.621 17.1358 19.7102 16.8235C19.7994 16.5112 19.8552 16.21 19.8775 15.92C19.9222 15.6077 19.9444 15.3845 19.9444 15.2507Z" fill="white"/>
<path d="M31.6072 14.6766C31.8873 14.3966 31.8873 13.9425 31.6072 13.6625L27.0436 9.09896C26.7635 8.81891 26.3098 8.81891 26.0297 9.09891C25.7495 9.37896 25.7495 9.83301 26.0297 10.1131L30.086 14.1695L26.0297 18.2259C25.7495 18.506 25.7495 18.96 26.0297 19.2401C26.3093 19.5201 26.7635 19.5201 27.0436 19.2401L31.6072 14.6766ZM23.1111 14.8866L31.0999 14.8866V13.4524L23.1111 13.4524V14.8866Z" fill="white"/>
</svg>
