<svg width="69" height="89" viewBox="0 0 69 89" fill="none" xmlns="http://www.w3.org/2000/svg">
<path d="M35.019 0.568212C33.2581 1.84761 33.044 44.6055 33.0202 66.263C32.634 65.6899 32.2449 65.1122 31.8621 64.5436C30.1683 62.0465 28.5103 59.6018 26.9385 57.2841C23.7753 52.6615 20.9581 48.5446 18.8919 45.5253C16.9901 42.7572 15.064 47.8806 16.5492 50.042L35.2617 77.2756L55.3623 48.0221C56.4324 46.4649 54.9883 45.9012 53.8133 45.8846C53.1477 45.8752 50.4755 49.0565 46.7739 53.9316C44.9229 56.3691 42.8148 59.2301 40.5715 62.3277C39.5799 63.7066 38.5486 65.1412 37.5061 66.5909C37.5061 44.9047 37.5061 23.2184 37.5061 1.53217C37.5061 -0.526831 35.9968 -0.142144 35.019 0.568212Z" fill="white"/>
<path d="M3.95616 88.4081C25.1567 88.4081 46.3574 88.4081 67.5579 88.4081C69.4959 88.4081 69.1338 86.8989 68.4652 85.9209C67.1493 83.9963 19.1818 83.9193 1.49845 83.9193C-1.94669 83.9193 1.26598 88.4081 3.95616 88.4081Z" fill="white"/>
</svg>
