<svg width="38" height="37" viewBox="0 0 38 37" fill="none" xmlns="http://www.w3.org/2000/svg">
<path d="M15.4759 9.9403C15.1522 9.86641 14.8632 9.81314 14.5821 9.77584C14.269 9.73915 13.9141 9.69749 13.5603 9.79801C13.3651 9.84636 13.1975 9.97362 13.1011 10.1478C13.0152 10.3025 12.995 10.4782 13.0429 10.6446C13.0948 10.8657 13.2094 11.0426 13.3159 11.1878C13.518 11.4622 13.7599 11.7048 14 11.9341L16.1104 13.8384C16.9991 14.6384 17.9026 15.452 18.822 16.2937L16.7813 20.9253C15.2401 20.5853 13.6756 20.2562 12.094 19.9609C11.0961 19.7768 10.2775 19.6426 9.51514 19.5387C8.69492 19.4332 7.76488 19.3134 6.83996 19.357C6.59913 19.3723 6.34125 19.398 6.06221 19.4953C5.93595 19.5476 5.74526 19.6267 5.62162 19.8065C5.46976 20.0117 5.43978 20.2965 5.54451 20.5289C5.74355 20.9828 6.11323 21.2828 6.43876 21.5476L6.55463 21.6417C7.29437 22.2001 8.07827 22.7019 8.75558 23.1292C10.2531 24.0696 11.7701 24.9043 13.319 25.7458C13.5994 25.901 13.8807 26.0543 14.1621 26.2074C14.2352 26.2474 14.3088 26.2875 14.3823 26.3277C13.8393 27.5344 13.2117 28.9202 12.5413 30.3303C12.4664 30.4908 12.3864 30.6505 12.3058 30.8108C12.0203 31.3797 11.7252 31.968 11.6159 32.658C11.5786 32.9309 11.5793 33.1701 11.6203 33.3997C11.6742 33.6633 11.7901 33.8934 11.9587 34.0723C11.9844 34.0997 12.0116 34.1258 12.0398 34.1509C12.3846 34.4532 12.864 34.5742 13.5176 34.5206C14.458 34.4157 15.3351 34.0256 15.9972 33.6958C16.713 33.3314 17.4514 32.8792 18.1862 32.3554C18.6051 32.0669 18.9442 31.7803 19.223 31.48C19.6364 31.0329 19.8496 30.5394 19.8399 30.0576C19.8362 29.5867 19.636 29.1111 19.2447 28.6433C18.978 28.3264 18.6458 28.0189 18.2286 27.7065C17.3501 27.0556 16.3986 26.4962 15.4486 25.9687L17.2632 21.8804C18.2127 22.0924 19.1527 22.3072 20.0821 22.5198L21.9893 22.9538C22.7147 23.117 23.465 23.2856 24.2021 23.4287C24.4058 23.4679 24.61 23.5044 24.8322 23.5361L24.9144 23.5459C25.1163 23.5712 25.4213 23.6094 25.7109 23.4027C25.9032 23.251 25.98 23.0015 25.9204 22.7144C25.8945 22.5928 25.848 22.4683 25.7803 22.3366C25.6722 22.1224 25.5432 21.9351 25.4287 21.7764C24.9587 21.1379 24.4378 20.5804 23.8579 19.9715C23.389 19.4846 22.8715 18.969 22.2287 18.3488C21.4124 17.5643 20.6089 16.8127 19.8174 16.0837L21.2927 12.7054C21.5482 12.8019 21.7944 12.8955 22.0305 12.9852L23.4912 13.5575L23.155 14.4002C23.1015 14.5339 23.1215 14.686 23.2075 14.8012C23.217 14.8139 23.2272 14.8259 23.238 14.8374C23.3248 14.9295 23.4496 14.9774 23.5773 14.9659C24.5614 14.8754 25.5392 14.7947 26.4838 14.7265C26.6395 14.7153 26.7759 14.6174 26.8358 14.4732C26.8962 14.3292 26.8703 14.1637 26.7689 14.0448C26.1478 13.3179 25.4955 12.569 24.83 11.8196C24.7346 11.7078 24.5906 11.6619 24.4491 11.6868C24.3075 11.7113 24.1893 11.8077 24.1361 11.9411L23.798 12.7886L22.3286 12.2129C22.1027 12.1269 21.868 12.0375 21.6246 11.9457L24.5649 5.21287L25.4 5.57531C25.532 5.6326 25.6843 5.61742 25.802 5.53487C25.92 5.4526 25.9866 5.31489 25.9782 5.17121L25.8057 2.24205C25.7963 2.0859 25.7003 1.94918 25.5569 1.88655C25.4139 1.82464 25.2479 1.84827 25.1278 1.94806L22.8721 3.82327C22.7615 3.9152 22.7066 4.05798 22.7269 4.20044C22.7392 4.28604 22.7777 4.36426 22.8353 4.42548C22.8733 4.46579 22.9196 4.49878 22.9717 4.52136L23.8053 4.88315L20.8479 11.6549C19.7458 11.2467 18.4915 10.8032 17.095 10.3757C16.4882 10.1925 15.974 10.0543 15.4759 9.9403ZM17.7341 28.3705C18.0985 28.6433 18.3852 28.9064 18.6101 29.1749C18.8746 29.4912 19.0098 29.7904 19.012 30.0693C19.019 30.4087 18.8 30.7177 18.6154 30.9171C18.379 31.1726 18.0846 31.4198 17.7109 31.6774C17.0043 32.1813 16.3014 32.6122 15.6249 32.9562C15.027 33.2539 14.2368 33.6072 13.4377 33.6962C13.0315 33.73 12.7528 33.6749 12.587 33.5295C12.513 33.4636 12.4569 33.3581 12.4333 33.2443C12.4099 33.1115 12.4106 32.9564 12.435 32.779C12.5226 32.2244 12.777 31.7182 13.0459 31.1823C13.1298 31.015 13.2136 30.8483 13.2905 30.6832C13.9514 29.2926 14.5712 27.9252 15.1101 26.7279C16.0144 27.2313 16.9149 27.7637 17.7341 28.3705ZM14.72 25.5686C14.6661 25.5394 14.6121 25.5098 14.5582 25.4806C14.2785 25.3281 13.9988 25.1756 13.7173 25.0197C12.1774 24.1831 10.6728 23.3554 9.19654 22.4284C8.53396 22.0106 7.76775 21.5199 7.06701 20.9914L6.96078 20.9049C6.71202 20.7027 6.47524 20.5108 6.3423 20.275C6.34939 20.2723 6.35505 20.2697 6.35853 20.2681C6.50895 20.2158 6.68041 20.1965 6.88556 20.1838C7.73116 20.1437 8.58442 20.2537 9.40648 20.3596C10.1525 20.4612 10.959 20.5934 11.9431 20.7751C13.4568 21.0576 14.9579 21.3721 16.4385 21.6976L14.72 25.5686ZM21.6544 18.9452C22.289 19.5576 22.7997 20.0662 23.2599 20.5442C23.8201 21.1328 24.3205 21.6679 24.7598 22.2643C24.8529 22.3932 24.9589 22.5471 25.0426 22.7126C25.0456 22.7181 25.0483 22.7234 25.0506 22.7284C25.0386 22.7269 25.0277 22.7256 25.0173 22.7243L24.9322 22.7145C24.7408 22.687 24.549 22.6522 24.3589 22.6158C23.6349 22.4751 22.8905 22.3077 22.1711 22.1462L20.2665 21.7125C19.389 21.5121 18.5018 21.3092 17.6058 21.1085L19.4666 16.8867C20.1863 17.5512 20.9154 18.2351 21.6544 18.9452ZM25.6063 13.9624C25.1339 13.9991 24.655 14.0387 24.1737 14.0811L24.415 13.4759C24.4151 13.4756 24.4153 13.4754 24.4155 13.4751C24.4156 13.4749 24.4155 13.4745 24.4156 13.4743L24.6556 12.8724C24.9775 13.2379 25.295 13.602 25.6063 13.9624ZM23.9188 4.02978L25.0274 3.10833L25.112 4.54755L23.9188 4.02978ZM20.5161 12.415L19.172 15.492C18.3228 14.7163 17.4872 13.9638 16.6642 13.2229L14.5632 11.3275C14.3273 11.1021 14.1382 10.9081 13.9832 10.6975C13.9555 10.6598 13.9252 10.6167 13.8999 10.5728C14.0781 10.5504 14.2768 10.5738 14.4833 10.5981C14.7288 10.6306 14.9935 10.6796 15.2917 10.7474C15.7703 10.857 16.2675 10.9907 16.8542 11.1679C18.2114 11.5834 19.4368 12.0159 20.5161 12.415Z" fill="white"/>
</svg>
