<svg width="62" height="61" viewBox="0 0 62 61" fill="none" xmlns="http://www.w3.org/2000/svg">
<path d="M24.9082 16.5681C24.3687 16.4449 23.8871 16.3561 23.4185 16.294C22.8967 16.2328 22.305 16.1634 21.7154 16.3309C21.39 16.4115 21.1107 16.6236 20.95 16.9139C20.8069 17.1718 20.7731 17.4646 20.853 17.7421C20.9394 18.1105 21.1306 18.4053 21.308 18.6473C21.6449 19.1048 22.048 19.5092 22.4482 19.8913L25.9657 23.0652C27.4471 24.3988 28.9529 25.7547 30.4854 27.1577L27.0841 34.8775C24.5153 34.3108 21.9075 33.7623 19.2715 33.2701C17.6082 32.9631 16.2437 32.7394 14.9731 32.5663C13.606 32.3904 12.0558 32.1908 10.5142 32.2635C10.1128 32.2889 9.68297 32.3318 9.21787 32.494C9.00743 32.5812 8.68959 32.713 8.48351 33.0126C8.2304 33.3547 8.18044 33.8294 8.35499 34.2167C8.68674 34.9733 9.3029 35.4732 9.8455 35.9147L10.0386 36.0716C11.2716 37.0023 12.5782 37.8386 13.7071 38.5507C16.203 40.1182 18.7316 41.5096 21.3133 42.912C21.7805 43.1708 22.2493 43.4263 22.7184 43.6815C22.8403 43.7481 22.963 43.8149 23.0854 43.882C22.1805 45.8932 21.1344 48.2031 20.017 50.5533C19.8922 50.8208 19.7588 51.0871 19.6245 51.3543C19.1485 52.3024 18.6568 53.283 18.4746 54.433C18.4123 54.8878 18.4135 55.2866 18.4819 55.6693C18.5717 56.1086 18.765 56.4922 19.0459 56.7904C19.0888 56.836 19.134 56.8796 19.1811 56.9213C19.7557 57.4252 20.5548 57.6269 21.6443 57.5375C23.2116 57.3627 24.6735 56.7125 25.777 56.1628C26.9702 55.5554 28.201 54.8017 29.4257 53.9286C30.1239 53.4478 30.689 52.9702 31.1538 52.4695C31.8427 51.7244 32.1982 50.9018 32.1819 50.0988C32.1759 49.314 31.8421 48.5213 31.19 47.7414C30.7453 47.2133 30.1917 46.7008 29.4964 46.1801C28.0321 45.0952 26.4462 44.1628 24.8627 43.2836L27.8873 36.4694C29.4698 36.8228 31.0366 37.1807 32.5857 37.5351L35.7645 38.2585C36.9736 38.5304 38.2241 38.8114 39.4527 39.0501C39.7923 39.1153 40.1325 39.1763 40.503 39.2291L40.64 39.2453C40.9765 39.2876 41.4849 39.3512 41.9676 39.0067C42.2881 38.7539 42.4161 38.338 42.3168 37.8595C42.2735 37.6568 42.196 37.4493 42.0832 37.2297C41.903 36.8728 41.6881 36.5606 41.4972 36.296C40.7137 35.2317 39.8456 34.3027 38.879 33.2877C38.0975 32.4761 37.2349 31.6168 36.1635 30.583C34.8029 29.2755 33.4637 28.0227 32.1444 26.8077L34.6035 21.1769C35.0293 21.3376 35.4396 21.4936 35.8332 21.6432L38.2678 22.5971L37.7074 24.0017C37.6183 24.2245 37.6517 24.4781 37.7949 24.67C37.8107 24.6912 37.8278 24.7112 37.8458 24.7304C37.9904 24.8839 38.1984 24.9638 38.4114 24.9446C40.0516 24.7938 41.6814 24.6593 43.2557 24.5455C43.5153 24.5269 43.7426 24.3637 43.8425 24.1234C43.9431 23.8833 43.8999 23.6074 43.7309 23.4093C42.6958 22.1978 41.6085 20.9495 40.4992 19.7005C40.3403 19.5141 40.1002 19.4376 39.8644 19.4791C39.6285 19.52 39.4313 19.6807 39.3427 19.903L38.7791 21.3155L36.33 20.356C35.9535 20.2127 35.5623 20.0637 35.1567 19.9107L40.0575 8.6886L41.4493 9.2927C41.6693 9.38819 41.9232 9.3629 42.1194 9.22529C42.3161 9.08817 42.4271 8.85864 42.4131 8.61916L42.1255 3.73696C42.1099 3.4767 41.9499 3.24882 41.7108 3.14442C41.4725 3.04123 41.1958 3.08062 40.9956 3.24694L37.2359 6.37248C37.0516 6.5257 36.9601 6.76368 36.994 7.00113C37.0145 7.1438 37.0785 7.27418 37.1746 7.37621C37.2379 7.44341 37.3151 7.49839 37.402 7.53603L38.7913 8.13904L33.862 19.426C32.0252 18.7456 29.9344 18.0063 27.6069 17.2938C26.5955 16.9885 25.7384 16.7581 24.9082 16.5681ZM28.6722 47.2869C29.2794 47.7414 29.7573 48.18 30.1321 48.6276C30.573 49.1547 30.7983 49.6534 30.8021 50.1182C30.8137 50.6839 30.4487 51.199 30.141 51.5314C29.7469 51.9572 29.2562 52.3693 28.6335 52.7985C27.4557 53.6385 26.2842 54.3568 25.1566 54.9301C24.16 55.4263 22.843 56.0151 21.511 56.1635C20.8341 56.2197 20.3694 56.1279 20.093 55.8856C19.9698 55.7758 19.8764 55.6 19.837 55.4103C19.7979 55.1889 19.7992 54.9303 19.8397 54.6348C19.9859 53.7104 20.4099 52.8667 20.858 51.9735C20.9979 51.6945 21.1375 51.4167 21.2657 51.1415C22.3673 48.8237 23.4004 46.5446 24.2986 44.5489C25.8058 45.388 27.3067 46.2755 28.6722 47.2869ZM23.6483 42.6168C23.5585 42.5681 23.4685 42.5187 23.3786 42.47C22.9124 42.2158 22.4462 41.9616 21.9771 41.7018C19.4104 40.3074 16.9027 38.9279 14.442 37.3827C13.3377 36.6864 12.0606 35.8685 10.8926 34.9877L10.7156 34.8434C10.3009 34.5064 9.90629 34.1866 9.68472 33.7936C9.69654 33.789 9.70596 33.7847 9.71176 33.7821C9.96249 33.6949 10.2483 33.6627 10.5902 33.6415C11.9996 33.5748 13.4218 33.758 14.792 33.9346C16.0353 34.1039 17.3796 34.3243 19.0199 34.627C21.5429 35.098 24.0448 35.6222 26.5126 36.1646L23.6483 42.6168ZM35.2064 31.5771C36.2641 32.5978 37.1153 33.4456 37.8823 34.2422C38.816 35.2233 39.65 36.1151 40.3822 37.1092C40.5374 37.3241 40.7142 37.5806 40.8537 37.8565C40.8586 37.8657 40.8632 37.8744 40.8669 37.8829C40.847 37.8803 40.8287 37.8781 40.8114 37.8759L40.6696 37.8595C40.3506 37.8138 40.0308 37.7558 39.714 37.6951C38.5074 37.4607 37.2666 37.1816 36.0675 36.9124L32.8929 36.1895C31.4305 35.8554 29.9517 35.5173 28.4582 35.1828L31.5598 28.1461C32.7593 29.2536 33.9746 30.3935 35.2064 31.5771ZM41.7932 23.2719C41.0058 23.3332 40.2076 23.3992 39.4053 23.4698L39.8075 22.4611C39.8077 22.4606 39.8081 22.4603 39.8083 22.4598C39.8085 22.4593 39.8084 22.4588 39.8086 22.4584L40.2085 21.4553C40.7452 22.0643 41.2742 22.6713 41.7932 23.2719ZM38.9805 6.71668L40.8283 5.18084L40.9693 7.57967L38.9805 6.71668ZM33.309 20.6929L31.0688 25.8214C29.6534 24.5285 28.2606 23.2743 26.8888 22.0394L23.387 18.8802C22.9938 18.5045 22.6786 18.1812 22.4203 17.8302C22.374 17.7673 22.3235 17.6955 22.2814 17.6223C22.5785 17.5849 22.9096 17.6239 23.2537 17.6645C23.663 17.7187 24.1041 17.8003 24.6012 17.9134C25.399 18.096 26.2277 18.3189 27.2056 18.6142C29.4677 19.3068 31.5101 20.0277 33.309 20.6929Z" fill="white"/>
</svg>
