<svg width="25" height="32" viewBox="0 0 25 32" fill="none" xmlns="http://www.w3.org/2000/svg">
<path d="M12.6755 0.205547C12.0382 0.668636 11.9606 16.1452 11.952 23.9843C11.8123 23.7769 11.6714 23.5677 11.5329 23.362C10.9198 22.4581 10.3196 21.5732 9.75073 20.7343C8.60578 19.0611 7.58605 17.571 6.8382 16.4781C6.14983 15.4762 5.45264 17.3306 5.99025 18.113L12.7634 27.9704L20.0389 17.3818C20.4262 16.8182 19.9035 16.6142 19.4782 16.6082C19.2373 16.6048 18.2701 17.7563 16.9303 19.5209C16.2603 20.4031 15.4973 21.4387 14.6853 22.5599C14.3264 23.059 13.9531 23.5783 13.5758 24.103C13.5758 16.2535 13.5758 8.40396 13.5758 0.554459C13.5758 -0.190813 13.0294 -0.0515722 12.6755 0.205547Z" fill="white"/>
<path d="M1.43209 31.9999C9.10579 31.9999 16.7795 31.9999 24.4532 31.9999C25.1547 31.9999 25.0236 31.4536 24.7816 31.0996C24.3053 30.403 6.94312 30.3751 0.542498 30.3751C-0.704498 30.3751 0.458355 31.9999 1.43209 31.9999Z" fill="white"/>
</svg>
