<svg width="33" height="28" viewBox="0 0 33 28" fill="none" xmlns="http://www.w3.org/2000/svg">
<path d="M16.1899 8.83581C17.1307 8.83581 17.8933 8.07318 17.8933 7.13244C17.8933 6.1917 17.1307 5.42908 16.1899 5.42908C15.2492 5.42908 14.4866 6.1917 14.4866 7.13244C14.4866 8.07318 15.2492 8.83581 16.1899 8.83581Z" fill="#FF0000"/>
<path d="M20.9556 4.0703C21.8964 4.0703 22.659 3.30768 22.659 2.36694C22.659 1.4262 21.8964 0.663574 20.9556 0.663574C20.0149 0.663574 19.2523 1.4262 19.2523 2.36694C19.2523 3.30768 20.0149 4.0703 20.9556 4.0703Z" fill="#FF0000"/>
<path d="M20.9556 8.83581C21.8964 8.83581 22.659 8.07318 22.659 7.13244C22.659 6.1917 21.8964 5.42908 20.9556 5.42908C20.0149 5.42908 19.2523 6.1917 19.2523 7.13244C19.2523 8.07318 20.0149 8.83581 20.9556 8.83581Z" fill="#FF0000"/>
<path d="M25.7208 4.0703C26.6616 4.0703 27.4242 3.30768 27.4242 2.36694C27.4242 1.4262 26.6616 0.663574 25.7208 0.663574C24.7801 0.663574 24.0175 1.4262 24.0175 2.36694C24.0175 3.30768 24.7801 4.0703 25.7208 4.0703Z" fill="#FF0000"/>
<path d="M25.7208 8.83581C26.6616 8.83581 27.4242 8.07318 27.4242 7.13244C27.4242 6.1917 26.6616 5.42908 25.7208 5.42908C24.7801 5.42908 24.0175 6.1917 24.0175 7.13244C24.0175 8.07318 24.7801 8.83581 25.7208 8.83581Z" fill="#FF0000"/>
<path d="M30.4866 8.83581C31.4273 8.83581 32.1899 8.07318 32.1899 7.13244C32.1899 6.1917 31.4273 5.42908 30.4866 5.42908C29.5458 5.42908 28.7832 6.1917 28.7832 7.13244C28.7832 8.07318 29.5458 8.83581 30.4866 8.83581Z" fill="#FF0000"/>
<path d="M16.1899 13.6012C17.1307 13.6012 17.8933 12.8386 17.8933 11.8978C17.8933 10.9571 17.1307 10.1945 16.1899 10.1945C15.2492 10.1945 14.4866 10.9571 14.4866 11.8978C14.4866 12.8386 15.2492 13.6012 16.1899 13.6012Z" fill="#FF0000"/>
<path d="M16.1899 18.3672C17.1308 18.3672 17.8936 17.6045 17.8936 16.6636C17.8936 15.7227 17.1308 14.96 16.1899 14.96C15.2491 14.96 14.4863 15.7227 14.4863 16.6636C14.4863 17.6045 15.2491 18.3672 16.1899 18.3672Z" fill="#FF0000"/>
<path d="M16.1899 23.1326C17.1308 23.1326 17.8936 22.3698 17.8936 21.429C17.8936 20.4881 17.1308 19.7253 16.1899 19.7253C15.2491 19.7253 14.4863 20.4881 14.4863 21.429C14.4863 22.3698 15.2491 23.1326 16.1899 23.1326Z" fill="#FF0000"/>
<path d="M16.1899 27.8978C17.1307 27.8978 17.8933 27.1352 17.8933 26.1945C17.8933 25.2537 17.1307 24.4911 16.1899 24.4911C15.2492 24.4911 14.4866 25.2537 14.4866 26.1945C14.4866 27.1352 15.2492 27.8978 16.1899 27.8978Z" fill="#FF0000"/>
<path d="M20.9556 13.6012C21.8964 13.6012 22.659 12.8386 22.659 11.8978C22.659 10.9571 21.8964 10.1945 20.9556 10.1945C20.0149 10.1945 19.2523 10.9571 19.2523 11.8978C19.2523 12.8386 20.0149 13.6012 20.9556 13.6012Z" fill="#FF0000"/>
<path d="M25.7208 13.6012C26.6616 13.6012 27.4242 12.8386 27.4242 11.8978C27.4242 10.9571 26.6616 10.1945 25.7208 10.1945C24.7801 10.1945 24.0175 10.9571 24.0175 11.8978C24.0175 12.8386 24.7801 13.6012 25.7208 13.6012Z" fill="#FF0000"/>
<path d="M11.4242 4.0703C12.3649 4.0703 13.1276 3.30768 13.1276 2.36694C13.1276 1.4262 12.3649 0.663574 11.4242 0.663574C10.4834 0.663574 9.72083 1.4262 9.72083 2.36694C9.72083 3.30768 10.4834 4.0703 11.4242 4.0703Z" fill="#FF0000"/>
<path d="M11.4242 8.83581C12.3649 8.83581 13.1276 8.07318 13.1276 7.13244C13.1276 6.1917 12.3649 5.42908 11.4242 5.42908C10.4834 5.42908 9.72083 6.1917 9.72083 7.13244C9.72083 8.07318 10.4834 8.83581 11.4242 8.83581Z" fill="#FF0000"/>
<path d="M6.65875 4.0703C7.59949 4.0703 8.36211 3.30768 8.36211 2.36694C8.36211 1.4262 7.59949 0.663574 6.65875 0.663574C5.71801 0.663574 4.95538 1.4262 4.95538 2.36694C4.95538 3.30768 5.71801 4.0703 6.65875 4.0703Z" fill="#FF0000"/>
<path d="M6.65875 8.83581C7.59949 8.83581 8.36211 8.07318 8.36211 7.13244C8.36211 6.1917 7.59949 5.42908 6.65875 5.42908C5.71801 5.42908 4.95538 6.1917 4.95538 7.13244C4.95538 8.07318 5.71801 8.83581 6.65875 8.83581Z" fill="#FF0000"/>
<path d="M1.89331 8.83581C2.83405 8.83581 3.59667 8.07318 3.59667 7.13244C3.59667 6.1917 2.83405 5.42908 1.89331 5.42908C0.952563 5.42908 0.189941 6.1917 0.189941 7.13244C0.189941 8.07318 0.952563 8.83581 1.89331 8.83581Z" fill="#FF0000"/>
<path d="M11.4242 13.6012C12.3649 13.6012 13.1276 12.8386 13.1276 11.8978C13.1276 10.9571 12.3649 10.1945 11.4242 10.1945C10.4834 10.1945 9.72083 10.9571 9.72083 11.8978C9.72083 12.8386 10.4834 13.6012 11.4242 13.6012Z" fill="#FF0000"/>
<path d="M20.9556 18.3672C21.8965 18.3672 22.6593 17.6045 22.6593 16.6636C22.6593 15.7227 21.8965 14.96 20.9556 14.96C20.0148 14.96 19.252 15.7227 19.252 16.6636C19.252 17.6045 20.0148 18.3672 20.9556 18.3672Z" fill="#FF0000"/>
<path d="M20.9556 23.1326C21.8965 23.1326 22.6593 22.3698 22.6593 21.429C22.6593 20.4881 21.8965 19.7253 20.9556 19.7253C20.0148 19.7253 19.252 20.4881 19.252 21.429C19.252 22.3698 20.0148 23.1326 20.9556 23.1326Z" fill="#FF0000"/>
<path d="M30.4866 13.6012C31.4273 13.6012 32.1899 12.8386 32.1899 11.8978C32.1899 10.9571 31.4273 10.1945 30.4866 10.1945C29.5458 10.1945 28.7832 10.9571 28.7832 11.8978C28.7832 12.8386 29.5458 13.6012 30.4866 13.6012Z" fill="#FF0000"/>
<path d="M25.7209 18.3672C26.6617 18.3672 27.4245 17.6045 27.4245 16.6636C27.4245 15.7227 26.6617 14.96 25.7209 14.96C24.78 14.96 24.0172 15.7227 24.0172 16.6636C24.0172 17.6045 24.78 18.3672 25.7209 18.3672Z" fill="#FF0000"/>
<path d="M11.4243 18.3672C12.3651 18.3672 13.1279 17.6045 13.1279 16.6636C13.1279 15.7227 12.3651 14.96 11.4243 14.96C10.4834 14.96 9.72064 15.7227 9.72064 16.6636C9.72064 17.6045 10.4834 18.3672 11.4243 18.3672Z" fill="#FF0000"/>
<path d="M6.65875 13.6012C7.59949 13.6012 8.36211 12.8386 8.36211 11.8978C8.36211 10.9571 7.59949 10.1945 6.65875 10.1945C5.71801 10.1945 4.95538 10.9571 4.95538 11.8978C4.95538 12.8386 5.71801 13.6012 6.65875 13.6012Z" fill="#FF0000"/>
<path d="M11.4243 23.1326C12.3651 23.1326 13.1279 22.3698 13.1279 21.429C13.1279 20.4881 12.3651 19.7253 11.4243 19.7253C10.4834 19.7253 9.72064 20.4881 9.72064 21.429C9.72064 22.3698 10.4834 23.1326 11.4243 23.1326Z" fill="#FF0000"/>
<path d="M6.65873 18.3672C7.59961 18.3672 8.36235 17.6045 8.36235 16.6636C8.36235 15.7227 7.59961 14.96 6.65873 14.96C5.71784 14.96 4.95511 15.7227 4.95511 16.6636C4.95511 17.6045 5.71784 18.3672 6.65873 18.3672Z" fill="#FF0000"/>
<path d="M1.89331 13.6012C2.83405 13.6012 3.59667 12.8386 3.59667 11.8978C3.59667 10.9571 2.83405 10.1945 1.89331 10.1945C0.952563 10.1945 0.189941 10.9571 0.189941 11.8978C0.189941 12.8386 0.952563 13.6012 1.89331 13.6012Z" fill="#FF0000"/>
</svg>
