<svg width="81" height="69" viewBox="0 0 81 69" fill="none" xmlns="http://www.w3.org/2000/svg">
<path d="M40.1899 21.094C42.5418 21.094 44.4483 19.1875 44.4483 16.8356C44.4483 14.4838 42.5418 12.5772 40.1899 12.5772C37.8381 12.5772 35.9315 14.4838 35.9315 16.8356C35.9315 19.1875 37.8381 21.094 40.1899 21.094Z" fill="#FF0000"/>
<path d="M52.1041 9.1804C54.456 9.1804 56.3625 7.27384 56.3625 4.92199C56.3625 2.57013 54.456 0.663574 52.1041 0.663574C49.7523 0.663574 47.8457 2.57013 47.8457 4.92199C47.8457 7.27384 49.7523 9.1804 52.1041 9.1804Z" fill="#FF0000"/>
<path d="M52.1041 21.094C54.456 21.094 56.3625 19.1875 56.3625 16.8356C56.3625 14.4838 54.456 12.5772 52.1041 12.5772C49.7523 12.5772 47.8457 14.4838 47.8457 16.8356C47.8457 19.1875 49.7523 21.094 52.1041 21.094Z" fill="#FF0000"/>
<path d="M64.0172 9.1804C66.3691 9.1804 68.2756 7.27384 68.2756 4.92199C68.2756 2.57013 66.3691 0.663574 64.0172 0.663574C61.6653 0.663574 59.7588 2.57013 59.7588 4.92199C59.7588 7.27384 61.6653 9.1804 64.0172 9.1804Z" fill="#FF0000"/>
<path d="M64.0172 21.094C66.3691 21.094 68.2756 19.1875 68.2756 16.8356C68.2756 14.4838 66.3691 12.5772 64.0172 12.5772C61.6653 12.5772 59.7588 14.4838 59.7588 16.8356C59.7588 19.1875 61.6653 21.094 64.0172 21.094Z" fill="#FF0000"/>
<path d="M75.9315 21.094C78.2834 21.094 80.1899 19.1875 80.1899 16.8356C80.1899 14.4838 78.2834 12.5772 75.9315 12.5772C73.5797 12.5772 71.6731 14.4838 71.6731 16.8356C71.6731 19.1875 73.5797 21.094 75.9315 21.094Z" fill="#FF0000"/>
<path d="M40.1899 33.0077C42.5418 33.0077 44.4483 31.1011 44.4483 28.7493C44.4483 26.3974 42.5418 24.4909 40.1899 24.4909C37.8381 24.4909 35.9315 26.3974 35.9315 28.7493C35.9315 31.1011 37.8381 33.0077 40.1899 33.0077Z" fill="#FF0000"/>
<path d="M40.19 44.9226C42.5422 44.9226 44.449 43.0158 44.449 40.6636C44.449 38.3114 42.5422 36.4045 40.19 36.4045C37.8377 36.4045 35.9309 38.3114 35.9309 40.6636C35.9309 43.0158 37.8377 44.9226 40.19 44.9226Z" fill="#FF0000"/>
<path d="M40.19 56.8362C42.5422 56.8362 44.449 54.9294 44.449 52.5772C44.449 50.225 42.5422 48.3182 40.19 48.3182C37.8377 48.3182 35.9309 50.225 35.9309 52.5772C35.9309 54.9294 37.8377 56.8362 40.19 56.8362Z" fill="#FF0000"/>
<path d="M40.1899 68.7492C42.5418 68.7492 44.4483 66.8427 44.4483 64.4908C44.4483 62.139 42.5418 60.2324 40.1899 60.2324C37.8381 60.2324 35.9315 62.139 35.9315 64.4908C35.9315 66.8427 37.8381 68.7492 40.1899 68.7492Z" fill="#FF0000"/>
<path d="M52.1041 33.0077C54.456 33.0077 56.3625 31.1011 56.3625 28.7493C56.3625 26.3974 54.456 24.4909 52.1041 24.4909C49.7523 24.4909 47.8457 26.3974 47.8457 28.7493C47.8457 31.1011 49.7523 33.0077 52.1041 33.0077Z" fill="#FF0000"/>
<path d="M64.0172 33.0077C66.3691 33.0077 68.2756 31.1011 68.2756 28.7493C68.2756 26.3974 66.3691 24.4909 64.0172 24.4909C61.6653 24.4909 59.7588 26.3974 59.7588 28.7493C59.7588 31.1011 61.6653 33.0077 64.0172 33.0077Z" fill="#FF0000"/>
<path d="M28.2756 9.1804C30.6275 9.1804 32.534 7.27384 32.534 4.92199C32.534 2.57013 30.6275 0.663574 28.2756 0.663574C25.9238 0.663574 24.0172 2.57013 24.0172 4.92199C24.0172 7.27384 25.9238 9.1804 28.2756 9.1804Z" fill="#FF0000"/>
<path d="M28.2756 21.094C30.6275 21.094 32.534 19.1875 32.534 16.8356C32.534 14.4838 30.6275 12.5772 28.2756 12.5772C25.9238 12.5772 24.0172 14.4838 24.0172 16.8356C24.0172 19.1875 25.9238 21.094 28.2756 21.094Z" fill="#FF0000"/>
<path d="M16.3619 9.1804C18.7138 9.1804 20.6203 7.27384 20.6203 4.92199C20.6203 2.57013 18.7138 0.663574 16.3619 0.663574C14.0101 0.663574 12.1035 2.57013 12.1035 4.92199C12.1035 7.27384 14.0101 9.1804 16.3619 9.1804Z" fill="#FF0000"/>
<path d="M16.3619 21.094C18.7138 21.094 20.6203 19.1875 20.6203 16.8356C20.6203 14.4838 18.7138 12.5772 16.3619 12.5772C14.0101 12.5772 12.1035 14.4838 12.1035 16.8356C12.1035 19.1875 14.0101 21.094 16.3619 21.094Z" fill="#FF0000"/>
<path d="M4.44835 21.094C6.80021 21.094 8.70676 19.1875 8.70676 16.8356C8.70676 14.4838 6.80021 12.5772 4.44835 12.5772C2.0965 12.5772 0.189941 14.4838 0.189941 16.8356C0.189941 19.1875 2.0965 21.094 4.44835 21.094Z" fill="#FF0000"/>
<path d="M28.2756 33.0077C30.6275 33.0077 32.534 31.1011 32.534 28.7493C32.534 26.3974 30.6275 24.4909 28.2756 24.4909C25.9238 24.4909 24.0172 26.3974 24.0172 28.7493C24.0172 31.1011 25.9238 33.0077 28.2756 33.0077Z" fill="#FF0000"/>
<path d="M52.1041 44.9226C54.4563 44.9226 56.3632 43.0158 56.3632 40.6636C56.3632 38.3114 54.4563 36.4045 52.1041 36.4045C49.7519 36.4045 47.8451 38.3114 47.8451 40.6636C47.8451 43.0158 49.7519 44.9226 52.1041 44.9226Z" fill="#FF0000"/>
<path d="M52.1041 56.8362C54.4563 56.8362 56.3632 54.9294 56.3632 52.5772C56.3632 50.225 54.4563 48.3182 52.1041 48.3182C49.7519 48.3182 47.8451 50.225 47.8451 52.5772C47.8451 54.9294 49.7519 56.8362 52.1041 56.8362Z" fill="#FF0000"/>
<path d="M75.9315 33.0077C78.2834 33.0077 80.1899 31.1011 80.1899 28.7493C80.1899 26.3974 78.2834 24.4909 75.9315 24.4909C73.5797 24.4909 71.6731 26.3974 71.6731 28.7493C71.6731 31.1011 73.5797 33.0077 75.9315 33.0077Z" fill="#FF0000"/>
<path d="M64.0172 44.9226C66.3694 44.9226 68.2763 43.0158 68.2763 40.6636C68.2763 38.3114 66.3694 36.4045 64.0172 36.4045C61.665 36.4045 59.7582 38.3114 59.7582 40.6636C59.7582 43.0158 61.665 44.9226 64.0172 44.9226Z" fill="#FF0000"/>
<path d="M28.2758 44.9226C30.628 44.9226 32.5348 43.0158 32.5348 40.6636C32.5348 38.3114 30.628 36.4045 28.2758 36.4045C25.9236 36.4045 24.0167 38.3114 24.0167 40.6636C24.0167 43.0158 25.9236 44.9226 28.2758 44.9226Z" fill="#FF0000"/>
<path d="M16.3619 33.0077C18.7138 33.0077 20.6203 31.1011 20.6203 28.7493C20.6203 26.3974 18.7138 24.4909 16.3619 24.4909C14.0101 24.4909 12.1035 26.3974 12.1035 28.7493C12.1035 31.1011 14.0101 33.0077 16.3619 33.0077Z" fill="#FF0000"/>
<path d="M28.2758 56.8362C30.628 56.8362 32.5348 54.9294 32.5348 52.5772C32.5348 50.225 30.628 48.3182 28.2758 48.3182C25.9236 48.3182 24.0167 50.225 24.0167 52.5772C24.0167 54.9294 25.9236 56.8362 28.2758 56.8362Z" fill="#FF0000"/>
<path d="M16.3618 44.9226C18.714 44.9226 20.6209 43.0158 20.6209 40.6636C20.6209 38.3114 18.714 36.4045 16.3618 36.4045C14.0096 36.4045 12.1028 38.3114 12.1028 40.6636C12.1028 43.0158 14.0096 44.9226 16.3618 44.9226Z" fill="#FF0000"/>
<path d="M4.44835 33.0077C6.80021 33.0077 8.70676 31.1011 8.70676 28.7493C8.70676 26.3974 6.80021 24.4909 4.44835 24.4909C2.0965 24.4909 0.189941 26.3974 0.189941 28.7493C0.189941 31.1011 2.0965 33.0077 4.44835 33.0077Z" fill="#FF0000"/>
</svg>
