<svg width="13" height="24" viewBox="0 0 13 24" fill="none" xmlns="http://www.w3.org/2000/svg">
<path d="M12.248 4.72C12.248 5.2 12.048 5.70667 11.648 6.24C11.248 6.74667 10.7546 7.28 10.168 7.84C9.5813 8.37333 8.9413 8.92 8.24797 9.48C7.55464 10.04 6.91464 10.6 6.32797 11.16C5.7413 11.6933 5.24797 12.2133 4.84797 12.72C4.44797 13.2267 4.24797 13.6933 4.24797 14.12C4.24797 14.4133 4.27464 14.7333 4.32797 15.08C4.40797 15.4 4.51464 15.6667 4.64797 15.88C4.51464 16.12 4.3813 16.3067 4.24797 16.44C4.11464 16.5733 3.9413 16.64 3.72797 16.64C3.5413 16.64 3.36797 16.56 3.20797 16.4C3.07464 16.24 2.95464 16.04 2.84797 15.8C2.7413 15.56 2.64797 15.3067 2.56797 15.04C2.51464 14.7733 2.48797 14.5333 2.48797 14.32C2.48797 13.7067 2.56797 13.2 2.72797 12.8C2.88797 12.3733 3.12797 11.9867 3.44797 11.64C3.79464 11.2667 4.20797 10.8933 4.68797 10.52C5.16797 10.1467 5.72797 9.72 6.36797 9.24C6.84797 8.86667 7.32797 8.46667 7.80797 8.04C8.31464 7.61333 8.75464 7.2 9.12797 6.8C9.52797 6.37333 9.84797 5.97333 10.088 5.6C10.3546 5.2 10.488 4.84 10.488 4.52C10.488 4.25333 10.368 3.98667 10.128 3.72C9.91464 3.45333 9.6213 3.22667 9.24797 3.04C8.87464 2.82667 8.43464 2.66667 7.92797 2.56C7.4213 2.42667 6.88797 2.36 6.32797 2.36C5.07464 2.36 4.08797 2.45333 3.36797 2.64C2.67464 2.82667 2.11464 2.92 1.68797 2.92C1.47464 2.92 1.2613 2.86667 1.04797 2.76C0.834636 2.62667 0.727969 2.44 0.727969 2.2C0.727969 1.88 0.967969 1.61333 1.44797 1.4C1.92797 1.18667 2.47464 1.02667 3.08797 0.92C3.72797 0.813333 4.32797 0.746666 4.88797 0.72C5.47464 0.666666 5.8613 0.639998 6.04797 0.639998C6.87464 0.639998 7.6613 0.759998 8.40797 0.999999C9.15464 1.24 9.80797 1.54667 10.368 1.92C10.9546 2.29333 11.408 2.73333 11.728 3.24C12.0746 3.72 12.248 4.21333 12.248 4.72ZM7.00797 21.76C7.00797 22.08 6.84797 22.32 6.52797 22.48C6.20797 22.6667 5.91464 22.76 5.64797 22.76C5.40797 22.76 5.12797 22.6267 4.80797 22.36C4.48797 22.12 4.32797 21.88 4.32797 21.64C4.32797 21.56 4.32797 21.4533 4.32797 21.32C4.35464 21.16 4.39464 21 4.44797 20.84C4.52797 20.68 4.6213 20.5467 4.72797 20.44C4.83464 20.3067 4.9813 20.24 5.16797 20.24C5.24797 20.24 5.3813 20.3067 5.56797 20.44C5.7813 20.5467 5.99464 20.68 6.20797 20.84C6.4213 21 6.60797 21.1733 6.76797 21.36C6.92797 21.52 7.00797 21.6533 7.00797 21.76Z" fill="#9C0202"/>
<path d="M11.648 6.24L11.8835 6.42595L11.888 6.42L11.648 6.24ZM10.168 7.84L10.3698 8.06205L10.3751 8.05701L10.168 7.84ZM8.24797 9.48L8.05947 9.24662L8.05947 9.24662L8.24797 9.48ZM6.32797 11.16L6.52983 11.382L6.53511 11.377L6.32797 11.16ZM4.84797 12.72L5.08343 12.9059L5.08343 12.9059L4.84797 12.72ZM4.32797 15.08L4.03146 15.1256L4.03357 15.1393L4.03693 15.1528L4.32797 15.08ZM4.64797 15.88L4.91022 16.0257L4.99614 15.871L4.90237 15.721L4.64797 15.88ZM3.20797 16.4L2.9775 16.5921L2.98621 16.6025L2.99584 16.6121L3.20797 16.4ZM2.84797 15.8L2.57383 15.9218L2.57383 15.9218L2.84797 15.8ZM2.56797 15.04L2.27379 15.0988L2.27656 15.1127L2.28062 15.1262L2.56797 15.04ZM2.72797 12.8L3.00658 12.9114L3.00887 12.9053L2.72797 12.8ZM3.44797 11.64L3.22813 11.4359L3.22753 11.4365L3.44797 11.64ZM4.68797 10.52L4.87215 10.7568L4.87215 10.7568L4.68797 10.52ZM6.36797 9.24L6.548 9.48004L6.55215 9.47681L6.36797 9.24ZM7.80797 8.04L7.61466 7.81044L7.60866 7.81578L7.80797 8.04ZM9.12797 6.8L8.90911 6.59482L8.90865 6.5953L9.12797 6.8ZM10.088 5.6L9.83832 5.43357L9.83562 5.43777L10.088 5.6ZM10.128 3.72L9.89371 3.90741L9.89915 3.91421L9.90498 3.92069L10.128 3.72ZM9.24797 3.04L9.09913 3.30047L9.10636 3.3046L9.1138 3.30833L9.24797 3.04ZM7.92797 2.56L7.85162 2.85012L7.85885 2.85202L7.86617 2.85356L7.92797 2.56ZM3.36797 2.64L3.29268 2.34959L3.28998 2.35031L3.36797 2.64ZM1.04797 2.76L0.888969 3.0144L0.901056 3.02195L0.913805 3.02833L1.04797 2.76ZM1.44797 1.4L1.32613 1.12585L1.32613 1.12585L1.44797 1.4ZM3.08797 0.92L3.03865 0.624074L3.03657 0.624436L3.08797 0.92ZM4.88797 0.72L4.90225 1.01994L4.91513 1.01877L4.88797 0.72ZM8.40797 0.999999L8.31617 1.28561L8.40797 0.999999ZM10.368 1.92L10.2015 2.16967L10.2069 2.1731L10.368 1.92ZM11.728 3.24L11.4743 3.4002L11.4793 3.40808L11.4848 3.41565L11.728 3.24ZM6.52797 22.48L6.39381 22.2117L6.38516 22.216L6.37681 22.2209L6.52797 22.48ZM4.80797 22.36L5.00002 22.1295L4.99412 22.1246L4.98797 22.12L4.80797 22.36ZM4.32797 21.32L4.03205 21.2707L4.02797 21.2952V21.32H4.32797ZM4.44797 20.84L4.17964 20.7058L4.17011 20.7249L4.16336 20.7451L4.44797 20.84ZM4.72797 20.44L4.9401 20.6521L4.95185 20.6404L4.96223 20.6274L4.72797 20.44ZM5.56797 20.44L5.3936 20.6841L5.41275 20.6978L5.4338 20.7083L5.56797 20.44ZM6.76797 21.36L6.54019 21.5552L6.54769 21.564L6.55584 21.5721L6.76797 21.36ZM11.948 4.72C11.948 5.1141 11.7838 5.55883 11.408 6.06L11.888 6.42C12.3121 5.8545 12.548 5.2859 12.548 4.72H11.948ZM11.4125 6.05411C11.0231 6.54738 10.5398 7.07035 9.96083 7.62299L10.3751 8.05701C10.9695 7.48965 11.4729 6.94595 11.8834 6.42589L11.4125 6.05411ZM9.96617 7.61802C9.38431 8.14698 8.7488 8.68984 8.05947 9.24662L8.43647 9.71338C9.1338 9.15015 9.77829 8.59969 10.3698 8.06198L9.96617 7.61802ZM8.05947 9.24662C7.36032 9.81131 6.71403 10.3768 6.12083 10.943L6.53511 11.377C7.11524 10.8232 7.74895 10.2687 8.43647 9.71338L8.05947 9.24662ZM6.12617 10.938C5.52995 11.48 5.02471 12.012 4.6125 12.5341L5.08343 12.9059C5.47123 12.4147 5.95266 11.9066 6.52977 11.382L6.12617 10.938ZM4.6125 12.5341C4.19114 13.0678 3.94797 13.599 3.94797 14.12H4.54797C4.54797 13.7877 4.7048 13.3855 5.08343 12.9059L4.6125 12.5341ZM3.94797 14.12C3.94797 14.4312 3.97624 14.7667 4.03146 15.1256L4.62448 15.0344C4.57304 14.7 4.54797 14.3954 4.54797 14.12H3.94797ZM4.03693 15.1528C4.12232 15.4943 4.23932 15.7922 4.39357 16.039L4.90237 15.721C4.78995 15.5411 4.69362 15.3057 4.61901 15.0072L4.03693 15.1528ZM4.38572 15.7343C4.26035 15.96 4.14272 16.121 4.03584 16.2279L4.4601 16.6521C4.61988 16.4924 4.76892 16.28 4.91022 16.0257L4.38572 15.7343ZM4.03584 16.2279C3.96634 16.2974 3.87313 16.34 3.72797 16.34V16.94C4.00948 16.94 4.26293 16.8493 4.4601 16.6521L4.03584 16.2279ZM3.72797 16.34C3.63723 16.34 3.53658 16.3043 3.4201 16.1879L2.99584 16.6121C3.19936 16.8157 3.44537 16.94 3.72797 16.94V16.34ZM3.43844 16.2079C3.32675 16.0739 3.22032 15.8991 3.12211 15.6782L2.57383 15.9218C2.68895 16.1809 2.82253 16.4061 2.9775 16.5921L3.43844 16.2079ZM3.12211 15.6782C3.02089 15.4504 2.93189 15.209 2.85532 14.9538L2.28062 15.1262C2.36405 15.4043 2.46171 15.6696 2.57383 15.9218L3.12211 15.6782ZM2.86214 14.9812C2.81168 14.7289 2.78797 14.5091 2.78797 14.32H2.18797C2.18797 14.5576 2.21759 14.8178 2.27379 15.0988L2.86214 14.9812ZM2.78797 14.32C2.78797 13.7299 2.86533 13.2644 3.00651 12.9114L2.44943 12.6886C2.27061 13.1356 2.18797 13.6834 2.18797 14.32H2.78797ZM3.00887 12.9053C3.15477 12.5163 3.37377 12.1627 3.66841 11.8435L3.22753 11.4365C2.88217 11.8107 2.62117 12.2304 2.44707 12.6947L3.00887 12.9053ZM3.66781 11.8441C4.00162 11.4846 4.40254 11.1221 4.87215 10.7568L4.50379 10.2832C4.0134 10.6646 3.58765 11.0487 3.22813 11.4359L3.66781 11.8441ZM4.87215 10.7568C5.35041 10.3848 5.90896 9.95925 6.54797 9.48L6.18797 9C5.54697 9.48075 4.98552 9.90851 4.50379 10.2832L4.87215 10.7568ZM6.55215 9.47681C7.03761 9.09923 7.52265 8.69501 8.00728 8.26422L7.60866 7.81578C7.13329 8.23833 6.65833 8.63411 6.18379 9.00319L6.55215 9.47681ZM8.00121 8.26947C8.51522 7.83662 8.96427 7.41506 9.34729 7.00469L8.90865 6.5953C8.545 6.98493 8.11405 7.39004 7.61473 7.81053L8.00121 8.26947ZM9.34683 7.00518C9.75561 6.56915 10.088 6.1548 10.3403 5.76223L9.83562 5.43777C9.60798 5.79187 9.30033 6.17751 8.90911 6.59482L9.34683 7.00518ZM10.3376 5.76641C10.6216 5.34034 10.788 4.92204 10.788 4.52H10.188C10.188 4.75796 10.0876 5.05966 9.83835 5.43359L10.3376 5.76641ZM10.788 4.52C10.788 4.15683 10.6232 3.82178 10.351 3.51931L9.90498 3.92069C10.1128 4.15156 10.188 4.34984 10.188 4.52H10.788ZM10.3622 3.53259C10.1164 3.22535 9.78585 2.97353 9.38213 2.77167L9.1138 3.30833C9.45676 3.4798 9.71283 3.68131 9.89371 3.90741L10.3622 3.53259ZM9.39681 2.77953C8.99149 2.54791 8.52097 2.37826 7.98977 2.26643L7.86617 2.85356C8.34831 2.95507 8.75779 3.10542 9.09913 3.30047L9.39681 2.77953ZM8.00432 2.26988C7.47108 2.12955 6.91197 2.06 6.32797 2.06V2.66C6.86397 2.66 7.37153 2.72378 7.85162 2.85012L8.00432 2.26988ZM6.32797 2.06C5.06402 2.06 4.04834 2.15369 3.29268 2.3496L3.44326 2.9304C4.1276 2.75298 5.08525 2.66 6.32797 2.66V2.06ZM3.28998 2.35031C2.6073 2.53411 2.07645 2.62 1.68797 2.62V3.22C2.15282 3.22 2.74197 3.11922 3.44596 2.92968L3.28998 2.35031ZM1.68797 2.62C1.52647 2.62 1.35878 2.57999 1.18213 2.49167L0.913805 3.02833C1.16382 3.15334 1.42281 3.22 1.68797 3.22V2.62ZM1.20697 2.5056C1.07623 2.42389 1.02797 2.33067 1.02797 2.2H0.427969C0.427969 2.54933 0.593041 2.82944 0.888969 3.0144L1.20697 2.5056ZM1.02797 2.2C1.02797 2.06395 1.12199 1.87317 1.56981 1.67414L1.32613 1.12585C0.813947 1.35349 0.427969 1.69605 0.427969 2.2H1.02797ZM1.56981 1.67414C2.0236 1.47246 2.54597 1.31876 3.13937 1.21556L3.03657 0.624436C2.4033 0.73457 1.83233 0.900875 1.32613 1.12585L1.56981 1.67414ZM3.13729 1.21592C3.76745 1.11089 4.35564 1.04569 4.90224 1.01966L4.8737 0.420339C4.3003 0.447644 3.68849 0.515774 3.03865 0.624081L3.13729 1.21592ZM4.91513 1.01877C5.50458 0.96518 5.87735 0.939998 6.04797 0.939998V0.339998C5.84526 0.339998 5.44469 0.368151 4.86081 0.421232L4.91513 1.01877ZM6.04797 0.939998C6.84516 0.939998 7.60074 1.05565 8.31617 1.28561L8.49977 0.71439C7.72187 0.46435 6.90411 0.339998 6.04797 0.339998V0.939998ZM8.31617 1.28561C9.04067 1.51848 9.66808 1.81396 10.2016 2.16961L10.5344 1.67038C9.94785 1.27937 9.2686 0.961515 8.49977 0.71439L8.31617 1.28561ZM10.2069 2.1731C10.7622 2.52647 11.1815 2.9365 11.4743 3.4002L11.9816 3.0798C11.6345 2.53017 11.1471 2.0602 10.529 1.6669L10.2069 2.1731ZM11.4848 3.41565C11.8009 3.85342 11.948 4.28655 11.948 4.72H12.548C12.548 4.14011 12.3483 3.58658 11.9712 3.06435L11.4848 3.41565ZM6.70797 21.76C6.70797 21.8675 6.68196 21.9482 6.63835 22.0136C6.5935 22.0809 6.51822 22.1495 6.39381 22.2117L6.66213 22.7483C6.85772 22.6505 7.02244 22.5191 7.13758 22.3464C7.25398 22.1718 7.30797 21.9725 7.30797 21.76H6.70797ZM6.37681 22.2209C6.08566 22.3907 5.84477 22.46 5.64797 22.46V23.06C5.9845 23.06 6.33028 22.9426 6.67913 22.7391L6.37681 22.2209ZM5.64797 22.46C5.51384 22.46 5.30202 22.3812 5.00002 22.1295L4.61591 22.5905C4.95391 22.8721 5.3021 23.06 5.64797 23.06V22.46ZM4.98797 22.12C4.69361 21.8992 4.62797 21.737 4.62797 21.64H4.02797C4.02797 22.023 4.28233 22.3408 4.62797 22.6L4.98797 22.12ZM4.62797 21.64C4.62797 21.6398 4.62797 21.6397 4.62797 21.6395C4.62797 21.6394 4.62797 21.6392 4.62797 21.6391C4.62797 21.6389 4.62797 21.6387 4.62797 21.6386C4.62797 21.6384 4.62797 21.6383 4.62797 21.6381C4.62797 21.638 4.62797 21.6378 4.62797 21.6376C4.62797 21.6375 4.62797 21.6373 4.62797 21.6372C4.62797 21.637 4.62797 21.6369 4.62797 21.6367C4.62797 21.6365 4.62797 21.6364 4.62797 21.6362C4.62797 21.6361 4.62797 21.6359 4.62797 21.6358C4.62797 21.6356 4.62797 21.6354 4.62797 21.6353C4.62797 21.6351 4.62797 21.635 4.62797 21.6348C4.62797 21.6346 4.62797 21.6345 4.62797 21.6343C4.62797 21.6342 4.62797 21.634 4.62797 21.6339C4.62797 21.6337 4.62797 21.6335 4.62797 21.6334C4.62797 21.6332 4.62797 21.6331 4.62797 21.6329C4.62797 21.6327 4.62797 21.6326 4.62797 21.6324C4.62797 21.6323 4.62797 21.6321 4.62797 21.6319C4.62797 21.6318 4.62797 21.6316 4.62797 21.6315C4.62797 21.6313 4.62797 21.6311 4.62797 21.631C4.62797 21.6308 4.62797 21.6307 4.62797 21.6305C4.62797 21.6303 4.62797 21.6302 4.62797 21.63C4.62797 21.6299 4.62797 21.6297 4.62797 21.6295C4.62797 21.6294 4.62797 21.6292 4.62797 21.6291C4.62797 21.6289 4.62797 21.6287 4.62797 21.6286C4.62797 21.6284 4.62797 21.6283 4.62797 21.6281C4.62797 21.6279 4.62797 21.6278 4.62797 21.6276C4.62797 21.6274 4.62797 21.6273 4.62797 21.6271C4.62797 21.627 4.62797 21.6268 4.62797 21.6266C4.62797 21.6265 4.62797 21.6263 4.62797 21.6261C4.62797 21.626 4.62797 21.6258 4.62797 21.6257C4.62797 21.6255 4.62797 21.6253 4.62797 21.6252C4.62797 21.625 4.62797 21.6249 4.62797 21.6247C4.62797 21.6245 4.62797 21.6244 4.62797 21.6242C4.62797 21.624 4.62797 21.6239 4.62797 21.6237C4.62797 21.6235 4.62797 21.6234 4.62797 21.6232C4.62797 21.6231 4.62797 21.6229 4.62797 21.6227C4.62797 21.6226 4.62797 21.6224 4.62797 21.6222C4.62797 21.6221 4.62797 21.6219 4.62797 21.6217C4.62797 21.6216 4.62797 21.6214 4.62797 21.6213C4.62797 21.6211 4.62797 21.6209 4.62797 21.6208C4.62797 21.6206 4.62797 21.6204 4.62797 21.6203C4.62797 21.6201 4.62797 21.6199 4.62797 21.6198C4.62797 21.6196 4.62797 21.6194 4.62797 21.6193C4.62797 21.6191 4.62797 21.6189 4.62797 21.6188C4.62797 21.6186 4.62797 21.6185 4.62797 21.6183C4.62797 21.6181 4.62797 21.618 4.62797 21.6178C4.62797 21.6176 4.62797 21.6175 4.62797 21.6173C4.62797 21.6171 4.62797 21.617 4.62797 21.6168C4.62797 21.6166 4.62797 21.6165 4.62797 21.6163C4.62797 21.6161 4.62797 21.616 4.62797 21.6158C4.62797 21.6156 4.62797 21.6155 4.62797 21.6153C4.62797 21.6151 4.62797 21.615 4.62797 21.6148C4.62797 21.6146 4.62797 21.6145 4.62797 21.6143C4.62797 21.6141 4.62797 21.614 4.62797 21.6138C4.62797 21.6136 4.62797 21.6135 4.62797 21.6133C4.62797 21.6131 4.62797 21.613 4.62797 21.6128C4.62797 21.6126 4.62797 21.6125 4.62797 21.6123C4.62797 21.6121 4.62797 21.612 4.62797 21.6118C4.62797 21.6116 4.62797 21.6114 4.62797 21.6113C4.62797 21.6111 4.62797 21.6109 4.62797 21.6108C4.62797 21.6106 4.62797 21.6104 4.62797 21.6103C4.62797 21.6101 4.62797 21.6099 4.62797 21.6098C4.62797 21.6096 4.62797 21.6094 4.62797 21.6093C4.62797 21.6091 4.62797 21.6089 4.62797 21.6087C4.62797 21.6086 4.62797 21.6084 4.62797 21.6082C4.62797 21.6081 4.62797 21.6079 4.62797 21.6077C4.62797 21.6076 4.62797 21.6074 4.62797 21.6072C4.62797 21.6071 4.62797 21.6069 4.62797 21.6067C4.62797 21.6065 4.62797 21.6064 4.62797 21.6062C4.62797 21.606 4.62797 21.6059 4.62797 21.6057C4.62797 21.6055 4.62797 21.6054 4.62797 21.6052C4.62797 21.605 4.62797 21.6048 4.62797 21.6047C4.62797 21.6045 4.62797 21.6043 4.62797 21.6042C4.62797 21.604 4.62797 21.6038 4.62797 21.6036C4.62797 21.6035 4.62797 21.6033 4.62797 21.6031C4.62797 21.603 4.62797 21.6028 4.62797 21.6026C4.62797 21.6024 4.62797 21.6023 4.62797 21.6021C4.62797 21.6019 4.62797 21.6018 4.62797 21.6016C4.62797 21.6014 4.62797 21.6012 4.62797 21.6011C4.62797 21.6009 4.62797 21.6007 4.62797 21.6005C4.62797 21.6004 4.62797 21.6002 4.62797 21.6C4.62797 21.5999 4.62797 21.5997 4.62797 21.5995C4.62797 21.5993 4.62797 21.5992 4.62797 21.599C4.62797 21.5988 4.62797 21.5986 4.62797 21.5985C4.62797 21.5983 4.62797 21.5981 4.62797 21.598C4.62797 21.5978 4.62797 21.5976 4.62797 21.5974C4.62797 21.5973 4.62797 21.5971 4.62797 21.5969C4.62797 21.5967 4.62797 21.5966 4.62797 21.5964C4.62797 21.5962 4.62797 21.596 4.62797 21.5959C4.62797 21.5957 4.62797 21.5955 4.62797 21.5953C4.62797 21.5952 4.62797 21.595 4.62797 21.5948C4.62797 21.5946 4.62797 21.5945 4.62797 21.5943C4.62797 21.5941 4.62797 21.5939 4.62797 21.5938C4.62797 21.5936 4.62797 21.5934 4.62797 21.5932C4.62797 21.5931 4.62797 21.5929 4.62797 21.5927C4.62797 21.5925 4.62797 21.5924 4.62797 21.5922C4.62797 21.592 4.62797 21.5918 4.62797 21.5917C4.62797 21.5915 4.62797 21.5913 4.62797 21.5911C4.62797 21.591 4.62797 21.5908 4.62797 21.5906C4.62797 21.5904 4.62797 21.5902 4.62797 21.5901C4.62797 21.5899 4.62797 21.5897 4.62797 21.5895C4.62797 21.5894 4.62797 21.5892 4.62797 21.589C4.62797 21.5888 4.62797 21.5887 4.62797 21.5885C4.62797 21.5883 4.62797 21.5881 4.62797 21.5879C4.62797 21.5878 4.62797 21.5876 4.62797 21.5874C4.62797 21.5872 4.62797 21.5871 4.62797 21.5869C4.62797 21.5867 4.62797 21.5865 4.62797 21.5863C4.62797 21.5862 4.62797 21.586 4.62797 21.5858C4.62797 21.5856 4.62797 21.5855 4.62797 21.5853C4.62797 21.5851 4.62797 21.5849 4.62797 21.5847C4.62797 21.5846 4.62797 21.5844 4.62797 21.5842C4.62797 21.584 4.62797 21.5839 4.62797 21.5837C4.62797 21.5835 4.62797 21.5833 4.62797 21.5831C4.62797 21.583 4.62797 21.5828 4.62797 21.5826C4.62797 21.5824 4.62797 21.5822 4.62797 21.5821C4.62797 21.5819 4.62797 21.5817 4.62797 21.5815C4.62797 21.5813 4.62797 21.5812 4.62797 21.581C4.62797 21.5808 4.62797 21.5806 4.62797 21.5804C4.62797 21.5803 4.62797 21.5801 4.62797 21.5799C4.62797 21.5797 4.62797 21.5795 4.62797 21.5794C4.62797 21.5792 4.62797 21.579 4.62797 21.5788C4.62797 21.5786 4.62797 21.5785 4.62797 21.5783C4.62797 21.5781 4.62797 21.5779 4.62797 21.5777C4.62797 21.5775 4.62797 21.5774 4.62797 21.5772C4.62797 21.577 4.62797 21.5768 4.62797 21.5766C4.62797 21.5765 4.62797 21.5763 4.62797 21.5761C4.62797 21.5759 4.62797 21.5757 4.62797 21.5755C4.62797 21.5754 4.62797 21.5752 4.62797 21.575C4.62797 21.5748 4.62797 21.5746 4.62797 21.5745C4.62797 21.5743 4.62797 21.5741 4.62797 21.5739C4.62797 21.5737 4.62797 21.5735 4.62797 21.5734C4.62797 21.5732 4.62797 21.573 4.62797 21.5728C4.62797 21.5726 4.62797 21.5724 4.62797 21.5723C4.62797 21.5721 4.62797 21.5719 4.62797 21.5717C4.62797 21.5715 4.62797 21.5713 4.62797 21.5712C4.62797 21.571 4.62797 21.5708 4.62797 21.5706C4.62797 21.5704 4.62797 21.5702 4.62797 21.5701C4.62797 21.5699 4.62797 21.5697 4.62797 21.5695C4.62797 21.5693 4.62797 21.5691 4.62797 21.5689C4.62797 21.5688 4.62797 21.5686 4.62797 21.5684C4.62797 21.5682 4.62797 21.568 4.62797 21.5678C4.62797 21.5677 4.62797 21.5675 4.62797 21.5673C4.62797 21.5671 4.62797 21.5669 4.62797 21.5667C4.62797 21.5665 4.62797 21.5664 4.62797 21.5662C4.62797 21.566 4.62797 21.5658 4.62797 21.5656C4.62797 21.5654 4.62797 21.5652 4.62797 21.5651C4.62797 21.5649 4.62797 21.5647 4.62797 21.5645C4.62797 21.5643 4.62797 21.5641 4.62797 21.5639C4.62797 21.5638 4.62797 21.5636 4.62797 21.5634C4.62797 21.5632 4.62797 21.563 4.62797 21.5628C4.62797 21.5626 4.62797 21.5624 4.62797 21.5623C4.62797 21.5621 4.62797 21.5619 4.62797 21.5617C4.62797 21.5615 4.62797 21.5613 4.62797 21.5611C4.62797 21.5609 4.62797 21.5608 4.62797 21.5606C4.62797 21.5604 4.62797 21.5602 4.62797 21.56C4.62797 21.5598 4.62797 21.5596 4.62797 21.5594C4.62797 21.5593 4.62797 21.5591 4.62797 21.5589C4.62797 21.5587 4.62797 21.5585 4.62797 21.5583C4.62797 21.5581 4.62797 21.5579 4.62797 21.5578C4.62797 21.5576 4.62797 21.5574 4.62797 21.5572C4.62797 21.557 4.62797 21.5568 4.62797 21.5566C4.62797 21.5564 4.62797 21.5562 4.62797 21.5561C4.62797 21.5559 4.62797 21.5557 4.62797 21.5555C4.62797 21.5553 4.62797 21.5551 4.62797 21.5549C4.62797 21.5547 4.62797 21.5545 4.62797 21.5543C4.62797 21.5542 4.62797 21.554 4.62797 21.5538C4.62797 21.5536 4.62797 21.5534 4.62797 21.5532C4.62797 21.553 4.62797 21.5528 4.62797 21.5526C4.62797 21.5524 4.62797 21.5523 4.62797 21.5521C4.62797 21.5519 4.62797 21.5517 4.62797 21.5515C4.62797 21.5513 4.62797 21.5511 4.62797 21.5509C4.62797 21.5507 4.62797 21.5505 4.62797 21.5503C4.62797 21.5502 4.62797 21.55 4.62797 21.5498C4.62797 21.5496 4.62797 21.5494 4.62797 21.5492C4.62797 21.549 4.62797 21.5488 4.62797 21.5486C4.62797 21.5484 4.62797 21.5482 4.62797 21.548C4.62797 21.5479 4.62797 21.5477 4.62797 21.5475C4.62797 21.5473 4.62797 21.5471 4.62797 21.5469C4.62797 21.5467 4.62797 21.5465 4.62797 21.5463C4.62797 21.5461 4.62797 21.5459 4.62797 21.5457C4.62797 21.5455 4.62797 21.5454 4.62797 21.5452C4.62797 21.545 4.62797 21.5448 4.62797 21.5446C4.62797 21.5444 4.62797 21.5442 4.62797 21.544C4.62797 21.5438 4.62797 21.5436 4.62797 21.5434C4.62797 21.5432 4.62797 21.543 4.62797 21.5428C4.62797 21.5426 4.62797 21.5424 4.62797 21.5423C4.62797 21.5421 4.62797 21.5419 4.62797 21.5417C4.62797 21.5415 4.62797 21.5413 4.62797 21.5411C4.62797 21.5409 4.62797 21.5407 4.62797 21.5405C4.62797 21.5403 4.62797 21.5401 4.62797 21.5399C4.62797 21.5397 4.62797 21.5395 4.62797 21.5393C4.62797 21.5391 4.62797 21.5389 4.62797 21.5387C4.62797 21.5386 4.62797 21.5384 4.62797 21.5382C4.62797 21.538 4.62797 21.5378 4.62797 21.5376C4.62797 21.5374 4.62797 21.5372 4.62797 21.537C4.62797 21.5368 4.62797 21.5366 4.62797 21.5364C4.62797 21.5362 4.62797 21.536 4.62797 21.5358C4.62797 21.5356 4.62797 21.5354 4.62797 21.5352C4.62797 21.535 4.62797 21.5348 4.62797 21.5346C4.62797 21.5344 4.62797 21.5342 4.62797 21.534C4.62797 21.5338 4.62797 21.5336 4.62797 21.5335C4.62797 21.5333 4.62797 21.5331 4.62797 21.5329C4.62797 21.5327 4.62797 21.5325 4.62797 21.5323C4.62797 21.5321 4.62797 21.5319 4.62797 21.5317C4.62797 21.5315 4.62797 21.5313 4.62797 21.5311C4.62797 21.5309 4.62797 21.5307 4.62797 21.5305C4.62797 21.5303 4.62797 21.5301 4.62797 21.5299C4.62797 21.5297 4.62797 21.5295 4.62797 21.5293C4.62797 21.5291 4.62797 21.5289 4.62797 21.5287C4.62797 21.5285 4.62797 21.5283 4.62797 21.5281C4.62797 21.5279 4.62797 21.5277 4.62797 21.5275C4.62797 21.5273 4.62797 21.5271 4.62797 21.5269C4.62797 21.5267 4.62797 21.5265 4.62797 21.5263C4.62797 21.5261 4.62797 21.5259 4.62797 21.5257C4.62797 21.5255 4.62797 21.5253 4.62797 21.5251C4.62797 21.5249 4.62797 21.5247 4.62797 21.5245C4.62797 21.5243 4.62797 21.5241 4.62797 21.5239C4.62797 21.5237 4.62797 21.5235 4.62797 21.5233C4.62797 21.5231 4.62797 21.5229 4.62797 21.5227C4.62797 21.5225 4.62797 21.5223 4.62797 21.5221C4.62797 21.5219 4.62797 21.5217 4.62797 21.5215C4.62797 21.5213 4.62797 21.5211 4.62797 21.5209C4.62797 21.5207 4.62797 21.5205 4.62797 21.5203C4.62797 21.5201 4.62797 21.5199 4.62797 21.5197C4.62797 21.5195 4.62797 21.5193 4.62797 21.5191C4.62797 21.5189 4.62797 21.5187 4.62797 21.5185C4.62797 21.5183 4.62797 21.5181 4.62797 21.5179C4.62797 21.5177 4.62797 21.5175 4.62797 21.5173C4.62797 21.5171 4.62797 21.5169 4.62797 21.5167C4.62797 21.5164 4.62797 21.5162 4.62797 21.516C4.62797 21.5158 4.62797 21.5156 4.62797 21.5154C4.62797 21.5152 4.62797 21.515 4.62797 21.5148C4.62797 21.5146 4.62797 21.5144 4.62797 21.5142C4.62797 21.514 4.62797 21.5138 4.62797 21.5136C4.62797 21.5134 4.62797 21.5132 4.62797 21.513C4.62797 21.5128 4.62797 21.5126 4.62797 21.5124C4.62797 21.5122 4.62797 21.512 4.62797 21.5118C4.62797 21.5116 4.62797 21.5114 4.62797 21.5112C4.62797 21.5109 4.62797 21.5107 4.62797 21.5105C4.62797 21.5103 4.62797 21.5101 4.62797 21.5099C4.62797 21.5097 4.62797 21.5095 4.62797 21.5093C4.62797 21.5091 4.62797 21.5089 4.62797 21.5087C4.62797 21.5085 4.62797 21.5083 4.62797 21.5081C4.62797 21.5079 4.62797 21.5077 4.62797 21.5075C4.62797 21.5073 4.62797 21.507 4.62797 21.5068C4.62797 21.5066 4.62797 21.5064 4.62797 21.5062C4.62797 21.506 4.62797 21.5058 4.62797 21.5056C4.62797 21.5054 4.62797 21.5052 4.62797 21.505C4.62797 21.5048 4.62797 21.5046 4.62797 21.5044C4.62797 21.5042 4.62797 21.5039 4.62797 21.5037C4.62797 21.5035 4.62797 21.5033 4.62797 21.5031C4.62797 21.5029 4.62797 21.5027 4.62797 21.5025C4.62797 21.5023 4.62797 21.5021 4.62797 21.5019C4.62797 21.5017 4.62797 21.5015 4.62797 21.5012C4.62797 21.501 4.62797 21.5008 4.62797 21.5006C4.62797 21.5004 4.62797 21.5002 4.62797 21.5C4.62797 21.4998 4.62797 21.4996 4.62797 21.4994C4.62797 21.4992 4.62797 21.499 4.62797 21.4987C4.62797 21.4985 4.62797 21.4983 4.62797 21.4981C4.62797 21.4979 4.62797 21.4977 4.62797 21.4975C4.62797 21.4973 4.62797 21.4971 4.62797 21.4969C4.62797 21.4967 4.62797 21.4964 4.62797 21.4962C4.62797 21.496 4.62797 21.4958 4.62797 21.4956C4.62797 21.4954 4.62797 21.4952 4.62797 21.495C4.62797 21.4948 4.62797 21.4946 4.62797 21.4944C4.62797 21.4941 4.62797 21.4939 4.62797 21.4937C4.62797 21.4935 4.62797 21.4933 4.62797 21.4931C4.62797 21.4929 4.62797 21.4927 4.62797 21.4925C4.62797 21.4922 4.62797 21.492 4.62797 21.4918C4.62797 21.4916 4.62797 21.4914 4.62797 21.4912C4.62797 21.491 4.62797 21.4908 4.62797 21.4906C4.62797 21.4903 4.62797 21.4901 4.62797 21.4899C4.62797 21.4897 4.62797 21.4895 4.62797 21.4893C4.62797 21.4891 4.62797 21.4889 4.62797 21.4887C4.62797 21.4884 4.62797 21.4882 4.62797 21.488C4.62797 21.4878 4.62797 21.4876 4.62797 21.4874C4.62797 21.4872 4.62797 21.487 4.62797 21.4867C4.62797 21.4865 4.62797 21.4863 4.62797 21.4861C4.62797 21.4859 4.62797 21.4857 4.62797 21.4855C4.62797 21.4853 4.62797 21.485 4.62797 21.4848C4.62797 21.4846 4.62797 21.4844 4.62797 21.4842C4.62797 21.484 4.62797 21.4838 4.62797 21.4835C4.62797 21.4833 4.62797 21.4831 4.62797 21.4829C4.62797 21.4827 4.62797 21.4825 4.62797 21.4823C4.62797 21.482 4.62797 21.4818 4.62797 21.4816C4.62797 21.4814 4.62797 21.4812 4.62797 21.481C4.62797 21.4808 4.62797 21.4805 4.62797 21.4803C4.62797 21.4801 4.62797 21.4799 4.62797 21.4797C4.62797 21.4795 4.62797 21.4793 4.62797 21.479C4.62797 21.4788 4.62797 21.4786 4.62797 21.4784C4.62797 21.4782 4.62797 21.478 4.62797 21.4778C4.62797 21.4775 4.62797 21.4773 4.62797 21.4771C4.62797 21.4769 4.62797 21.4767 4.62797 21.4765C4.62797 21.4762 4.62797 21.476 4.62797 21.4758C4.62797 21.4756 4.62797 21.4754 4.62797 21.4752C4.62797 21.4749 4.62797 21.4747 4.62797 21.4745C4.62797 21.4743 4.62797 21.4741 4.62797 21.4739C4.62797 21.4736 4.62797 21.4734 4.62797 21.4732C4.62797 21.473 4.62797 21.4728 4.62797 21.4726C4.62797 21.4723 4.62797 21.4721 4.62797 21.4719C4.62797 21.4717 4.62797 21.4715 4.62797 21.4713C4.62797 21.471 4.62797 21.4708 4.62797 21.4706C4.62797 21.4704 4.62797 21.4702 4.62797 21.47C4.62797 21.4697 4.62797 21.4695 4.62797 21.4693C4.62797 21.4691 4.62797 21.4689 4.62797 21.4686C4.62797 21.4684 4.62797 21.4682 4.62797 21.468C4.62797 21.4678 4.62797 21.4675 4.62797 21.4673C4.62797 21.4671 4.62797 21.4669 4.62797 21.4667C4.62797 21.4665 4.62797 21.4662 4.62797 21.466C4.62797 21.4658 4.62797 21.4656 4.62797 21.4654C4.62797 21.4651 4.62797 21.4649 4.62797 21.4647C4.62797 21.4645 4.62797 21.4643 4.62797 21.464C4.62797 21.4638 4.62797 21.4636 4.62797 21.4634C4.62797 21.4632 4.62797 21.4629 4.62797 21.4627C4.62797 21.4625 4.62797 21.4623 4.62797 21.4621C4.62797 21.4618 4.62797 21.4616 4.62797 21.4614C4.62797 21.4612 4.62797 21.461 4.62797 21.4607C4.62797 21.4605 4.62797 21.4603 4.62797 21.4601C4.62797 21.4599 4.62797 21.4596 4.62797 21.4594C4.62797 21.4592 4.62797 21.459 4.62797 21.4587C4.62797 21.4585 4.62797 21.4583 4.62797 21.4581C4.62797 21.4579 4.62797 21.4576 4.62797 21.4574C4.62797 21.4572 4.62797 21.457 4.62797 21.4568C4.62797 21.4565 4.62797 21.4563 4.62797 21.4561C4.62797 21.4559 4.62797 21.4556 4.62797 21.4554C4.62797 21.4552 4.62797 21.455 4.62797 21.4548C4.62797 21.4545 4.62797 21.4543 4.62797 21.4541C4.62797 21.4539 4.62797 21.4536 4.62797 21.4534C4.62797 21.4532 4.62797 21.453 4.62797 21.4527C4.62797 21.4525 4.62797 21.4523 4.62797 21.4521C4.62797 21.4519 4.62797 21.4516 4.62797 21.4514C4.62797 21.4512 4.62797 21.451 4.62797 21.4507C4.62797 21.4505 4.62797 21.4503 4.62797 21.4501C4.62797 21.4498 4.62797 21.4496 4.62797 21.4494C4.62797 21.4492 4.62797 21.4489 4.62797 21.4487C4.62797 21.4485 4.62797 21.4483 4.62797 21.448C4.62797 21.4478 4.62797 21.4476 4.62797 21.4474C4.62797 21.4471 4.62797 21.4469 4.62797 21.4467C4.62797 21.4465 4.62797 21.4462 4.62797 21.446C4.62797 21.4458 4.62797 21.4456 4.62797 21.4453C4.62797 21.4451 4.62797 21.4449 4.62797 21.4447C4.62797 21.4444 4.62797 21.4442 4.62797 21.444C4.62797 21.4438 4.62797 21.4435 4.62797 21.4433C4.62797 21.4431 4.62797 21.4429 4.62797 21.4426C4.62797 21.4424 4.62797 21.4422 4.62797 21.442C4.62797 21.4417 4.62797 21.4415 4.62797 21.4413C4.62797 21.4411 4.62797 21.4408 4.62797 21.4406C4.62797 21.4404 4.62797 21.4401 4.62797 21.4399C4.62797 21.4397 4.62797 21.4395 4.62797 21.4392C4.62797 21.439 4.62797 21.4388 4.62797 21.4386C4.62797 21.4383 4.62797 21.4381 4.62797 21.4379C4.62797 21.4376 4.62797 21.4374 4.62797 21.4372C4.62797 21.437 4.62797 21.4367 4.62797 21.4365C4.62797 21.4363 4.62797 21.436 4.62797 21.4358C4.62797 21.4356 4.62797 21.4354 4.62797 21.4351C4.62797 21.4349 4.62797 21.4347 4.62797 21.4344C4.62797 21.4342 4.62797 21.434 4.62797 21.4338C4.62797 21.4335 4.62797 21.4333 4.62797 21.4331C4.62797 21.4328 4.62797 21.4326 4.62797 21.4324C4.62797 21.4322 4.62797 21.4319 4.62797 21.4317C4.62797 21.4315 4.62797 21.4312 4.62797 21.431C4.62797 21.4308 4.62797 21.4306 4.62797 21.4303C4.62797 21.4301 4.62797 21.4299 4.62797 21.4296C4.62797 21.4294 4.62797 21.4292 4.62797 21.4289C4.62797 21.4287 4.62797 21.4285 4.62797 21.4282C4.62797 21.428 4.62797 21.4278 4.62797 21.4276C4.62797 21.4273 4.62797 21.4271 4.62797 21.4269C4.62797 21.4266 4.62797 21.4264 4.62797 21.4262C4.62797 21.4259 4.62797 21.4257 4.62797 21.4255C4.62797 21.4252 4.62797 21.425 4.62797 21.4248C4.62797 21.4246 4.62797 21.4243 4.62797 21.4241C4.62797 21.4239 4.62797 21.4236 4.62797 21.4234C4.62797 21.4232 4.62797 21.4229 4.62797 21.4227C4.62797 21.4225 4.62797 21.4222 4.62797 21.422C4.62797 21.4218 4.62797 21.4215 4.62797 21.4213C4.62797 21.4211 4.62797 21.4208 4.62797 21.4206C4.62797 21.4204 4.62797 21.4201 4.62797 21.4199C4.62797 21.4197 4.62797 21.4194 4.62797 21.4192C4.62797 21.419 4.62797 21.4187 4.62797 21.4185C4.62797 21.4183 4.62797 21.418 4.62797 21.4178C4.62797 21.4176 4.62797 21.4173 4.62797 21.4171C4.62797 21.4169 4.62797 21.4166 4.62797 21.4164C4.62797 21.4162 4.62797 21.4159 4.62797 21.4157C4.62797 21.4155 4.62797 21.4152 4.62797 21.415C4.62797 21.4148 4.62797 21.4145 4.62797 21.4143C4.62797 21.4141 4.62797 21.4138 4.62797 21.4136C4.62797 21.4134 4.62797 21.4131 4.62797 21.4129C4.62797 21.4127 4.62797 21.4124 4.62797 21.4122C4.62797 21.4119 4.62797 21.4117 4.62797 21.4115C4.62797 21.4112 4.62797 21.411 4.62797 21.4108C4.62797 21.4105 4.62797 21.4103 4.62797 21.4101C4.62797 21.4098 4.62797 21.4096 4.62797 21.4094C4.62797 21.4091 4.62797 21.4089 4.62797 21.4086C4.62797 21.4084 4.62797 21.4082 4.62797 21.4079C4.62797 21.4077 4.62797 21.4075 4.62797 21.4072C4.62797 21.407 4.62797 21.4068 4.62797 21.4065C4.62797 21.4063 4.62797 21.406 4.62797 21.4058C4.62797 21.4056 4.62797 21.4053 4.62797 21.4051C4.62797 21.4049 4.62797 21.4046 4.62797 21.4044C4.62797 21.4041 4.62797 21.4039 4.62797 21.4037C4.62797 21.4034 4.62797 21.4032 4.62797 21.403C4.62797 21.4027 4.62797 21.4025 4.62797 21.4022C4.62797 21.402 4.62797 21.4018 4.62797 21.4015C4.62797 21.4013 4.62797 21.4011 4.62797 21.4008C4.62797 21.4006 4.62797 21.4003 4.62797 21.4001C4.62797 21.3999 4.62797 21.3996 4.62797 21.3994C4.62797 21.3991 4.62797 21.3989 4.62797 21.3987C4.62797 21.3984 4.62797 21.3982 4.62797 21.3979C4.62797 21.3977 4.62797 21.3975 4.62797 21.3972C4.62797 21.397 4.62797 21.3968 4.62797 21.3965C4.62797 21.3963 4.62797 21.396 4.62797 21.3958C4.62797 21.3956 4.62797 21.3953 4.62797 21.3951C4.62797 21.3948 4.62797 21.3946 4.62797 21.3944C4.62797 21.3941 4.62797 21.3939 4.62797 21.3936C4.62797 21.3934 4.62797 21.3932 4.62797 21.3929C4.62797 21.3927 4.62797 21.3924 4.62797 21.3922C4.62797 21.3919 4.62797 21.3917 4.62797 21.3915C4.62797 21.3912 4.62797 21.391 4.62797 21.3907C4.62797 21.3905 4.62797 21.3903 4.62797 21.39C4.62797 21.3898 4.62797 21.3895 4.62797 21.3893C4.62797 21.3891 4.62797 21.3888 4.62797 21.3886C4.62797 21.3883 4.62797 21.3881 4.62797 21.3878C4.62797 21.3876 4.62797 21.3874 4.62797 21.3871C4.62797 21.3869 4.62797 21.3866 4.62797 21.3864C4.62797 21.3861 4.62797 21.3859 4.62797 21.3857C4.62797 21.3854 4.62797 21.3852 4.62797 21.3849C4.62797 21.3847 4.62797 21.3844 4.62797 21.3842C4.62797 21.384 4.62797 21.3837 4.62797 21.3835C4.62797 21.3832 4.62797 21.383 4.62797 21.3827C4.62797 21.3825 4.62797 21.3823 4.62797 21.382C4.62797 21.3818 4.62797 21.3815 4.62797 21.3813C4.62797 21.381 4.62797 21.3808 4.62797 21.3805C4.62797 21.3803 4.62797 21.3801 4.62797 21.3798C4.62797 21.3796 4.62797 21.3793 4.62797 21.3791C4.62797 21.3788 4.62797 21.3786 4.62797 21.3783C4.62797 21.3781 4.62797 21.3779 4.62797 21.3776C4.62797 21.3774 4.62797 21.3771 4.62797 21.3769C4.62797 21.3766 4.62797 21.3764 4.62797 21.3761C4.62797 21.3759 4.62797 21.3757 4.62797 21.3754C4.62797 21.3752 4.62797 21.3749 4.62797 21.3747C4.62797 21.3744 4.62797 21.3742 4.62797 21.3739C4.62797 21.3737 4.62797 21.3734 4.62797 21.3732C4.62797 21.3729 4.62797 21.3727 4.62797 21.3725C4.62797 21.3722 4.62797 21.372 4.62797 21.3717C4.62797 21.3715 4.62797 21.3712 4.62797 21.371C4.62797 21.3707 4.62797 21.3705 4.62797 21.3702C4.62797 21.37 4.62797 21.3697 4.62797 21.3695C4.62797 21.3692 4.62797 21.369 4.62797 21.3687C4.62797 21.3685 4.62797 21.3683 4.62797 21.368C4.62797 21.3678 4.62797 21.3675 4.62797 21.3673C4.62797 21.367 4.62797 21.3668 4.62797 21.3665C4.62797 21.3663 4.62797 21.366 4.62797 21.3658C4.62797 21.3655 4.62797 21.3653 4.62797 21.365C4.62797 21.3648 4.62797 21.3645 4.62797 21.3643C4.62797 21.364 4.62797 21.3638 4.62797 21.3635C4.62797 21.3633 4.62797 21.363 4.62797 21.3628C4.62797 21.3625 4.62797 21.3623 4.62797 21.362C4.62797 21.3618 4.62797 21.3615 4.62797 21.3613C4.62797 21.361 4.62797 21.3608 4.62797 21.3605C4.62797 21.3603 4.62797 21.36 4.62797 21.3598C4.62797 21.3595 4.62797 21.3593 4.62797 21.359C4.62797 21.3588 4.62797 21.3585 4.62797 21.3583C4.62797 21.358 4.62797 21.3578 4.62797 21.3575C4.62797 21.3573 4.62797 21.357 4.62797 21.3568C4.62797 21.3565 4.62797 21.3563 4.62797 21.356C4.62797 21.3558 4.62797 21.3555 4.62797 21.3553C4.62797 21.355 4.62797 21.3548 4.62797 21.3545C4.62797 21.3543 4.62797 21.354 4.62797 21.3538C4.62797 21.3535 4.62797 21.3533 4.62797 21.353C4.62797 21.3528 4.62797 21.3525 4.62797 21.3523C4.62797 21.352 4.62797 21.3518 4.62797 21.3515C4.62797 21.3513 4.62797 21.351 4.62797 21.3508C4.62797 21.3505 4.62797 21.3503 4.62797 21.35C4.62797 21.3498 4.62797 21.3495 4.62797 21.3492C4.62797 21.349 4.62797 21.3487 4.62797 21.3485C4.62797 21.3482 4.62797 21.348 4.62797 21.3477C4.62797 21.3475 4.62797 21.3472 4.62797 21.347C4.62797 21.3467 4.62797 21.3465 4.62797 21.3462C4.62797 21.346 4.62797 21.3457 4.62797 21.3454C4.62797 21.3452 4.62797 21.3449 4.62797 21.3447C4.62797 21.3444 4.62797 21.3442 4.62797 21.3439C4.62797 21.3437 4.62797 21.3434 4.62797 21.3432C4.62797 21.3429 4.62797 21.3427 4.62797 21.3424C4.62797 21.3421 4.62797 21.3419 4.62797 21.3416C4.62797 21.3414 4.62797 21.3411 4.62797 21.3409C4.62797 21.3406 4.62797 21.3404 4.62797 21.3401C4.62797 21.3399 4.62797 21.3396 4.62797 21.3393C4.62797 21.3391 4.62797 21.3388 4.62797 21.3386C4.62797 21.3383 4.62797 21.3381 4.62797 21.3378C4.62797 21.3376 4.62797 21.3373 4.62797 21.337C4.62797 21.3368 4.62797 21.3365 4.62797 21.3363C4.62797 21.336 4.62797 21.3358 4.62797 21.3355C4.62797 21.3352 4.62797 21.335 4.62797 21.3347C4.62797 21.3345 4.62797 21.3342 4.62797 21.334C4.62797 21.3337 4.62797 21.3334 4.62797 21.3332C4.62797 21.3329 4.62797 21.3327 4.62797 21.3324C4.62797 21.3322 4.62797 21.3319 4.62797 21.3317C4.62797 21.3314 4.62797 21.3311 4.62797 21.3309C4.62797 21.3306 4.62797 21.3304 4.62797 21.3301C4.62797 21.3298 4.62797 21.3296 4.62797 21.3293C4.62797 21.3291 4.62797 21.3288 4.62797 21.3286C4.62797 21.3283 4.62797 21.328 4.62797 21.3278C4.62797 21.3275 4.62797 21.3273 4.62797 21.327C4.62797 21.3267 4.62797 21.3265 4.62797 21.3262C4.62797 21.326 4.62797 21.3257 4.62797 21.3255C4.62797 21.3252 4.62797 21.3249 4.62797 21.3247C4.62797 21.3244 4.62797 21.3242 4.62797 21.3239C4.62797 21.3236 4.62797 21.3234 4.62797 21.3231C4.62797 21.3229 4.62797 21.3226 4.62797 21.3223C4.62797 21.3221 4.62797 21.3218 4.62797 21.3216C4.62797 21.3213 4.62797 21.321 4.62797 21.3208C4.62797 21.3205 4.62797 21.3203 4.62797 21.32H4.02797C4.02797 21.3203 4.02797 21.3205 4.02797 21.3208C4.02797 21.321 4.02797 21.3213 4.02797 21.3216C4.02797 21.3218 4.02797 21.3221 4.02797 21.3223C4.02797 21.3226 4.02797 21.3229 4.02797 21.3231C4.02797 21.3234 4.02797 21.3236 4.02797 21.3239C4.02797 21.3242 4.02797 21.3244 4.02797 21.3247C4.02797 21.3249 4.02797 21.3252 4.02797 21.3255C4.02797 21.3257 4.02797 21.326 4.02797 21.3262C4.02797 21.3265 4.02797 21.3267 4.02797 21.327C4.02797 21.3273 4.02797 21.3275 4.02797 21.3278C4.02797 21.328 4.02797 21.3283 4.02797 21.3286C4.02797 21.3288 4.02797 21.3291 4.02797 21.3293C4.02797 21.3296 4.02797 21.3298 4.02797 21.3301C4.02797 21.3304 4.02797 21.3306 4.02797 21.3309C4.02797 21.3311 4.02797 21.3314 4.02797 21.3317C4.02797 21.3319 4.02797 21.3322 4.02797 21.3324C4.02797 21.3327 4.02797 21.3329 4.02797 21.3332C4.02797 21.3334 4.02797 21.3337 4.02797 21.334C4.02797 21.3342 4.02797 21.3345 4.02797 21.3347C4.02797 21.335 4.02797 21.3352 4.02797 21.3355C4.02797 21.3358 4.02797 21.336 4.02797 21.3363C4.02797 21.3365 4.02797 21.3368 4.02797 21.337C4.02797 21.3373 4.02797 21.3376 4.02797 21.3378C4.02797 21.3381 4.02797 21.3383 4.02797 21.3386C4.02797 21.3388 4.02797 21.3391 4.02797 21.3393C4.02797 21.3396 4.02797 21.3399 4.02797 21.3401C4.02797 21.3404 4.02797 21.3406 4.02797 21.3409C4.02797 21.3411 4.02797 21.3414 4.02797 21.3416C4.02797 21.3419 4.02797 21.3421 4.02797 21.3424C4.02797 21.3427 4.02797 21.3429 4.02797 21.3432C4.02797 21.3434 4.02797 21.3437 4.02797 21.3439C4.02797 21.3442 4.02797 21.3444 4.02797 21.3447C4.02797 21.3449 4.02797 21.3452 4.02797 21.3454C4.02797 21.3457 4.02797 21.346 4.02797 21.3462C4.02797 21.3465 4.02797 21.3467 4.02797 21.347C4.02797 21.3472 4.02797 21.3475 4.02797 21.3477C4.02797 21.348 4.02797 21.3482 4.02797 21.3485C4.02797 21.3487 4.02797 21.349 4.02797 21.3492C4.02797 21.3495 4.02797 21.3498 4.02797 21.35C4.02797 21.3503 4.02797 21.3505 4.02797 21.3508C4.02797 21.351 4.02797 21.3513 4.02797 21.3515C4.02797 21.3518 4.02797 21.352 4.02797 21.3523C4.02797 21.3525 4.02797 21.3528 4.02797 21.353C4.02797 21.3533 4.02797 21.3535 4.02797 21.3538C4.02797 21.354 4.02797 21.3543 4.02797 21.3545C4.02797 21.3548 4.02797 21.355 4.02797 21.3553C4.02797 21.3555 4.02797 21.3558 4.02797 21.356C4.02797 21.3563 4.02797 21.3565 4.02797 21.3568C4.02797 21.357 4.02797 21.3573 4.02797 21.3575C4.02797 21.3578 4.02797 21.358 4.02797 21.3583C4.02797 21.3585 4.02797 21.3588 4.02797 21.359C4.02797 21.3593 4.02797 21.3595 4.02797 21.3598C4.02797 21.36 4.02797 21.3603 4.02797 21.3605C4.02797 21.3608 4.02797 21.361 4.02797 21.3613C4.02797 21.3615 4.02797 21.3618 4.02797 21.362C4.02797 21.3623 4.02797 21.3625 4.02797 21.3628C4.02797 21.363 4.02797 21.3633 4.02797 21.3635C4.02797 21.3638 4.02797 21.364 4.02797 21.3643C4.02797 21.3645 4.02797 21.3648 4.02797 21.365C4.02797 21.3653 4.02797 21.3655 4.02797 21.3658C4.02797 21.366 4.02797 21.3663 4.02797 21.3665C4.02797 21.3668 4.02797 21.367 4.02797 21.3673C4.02797 21.3675 4.02797 21.3678 4.02797 21.368C4.02797 21.3683 4.02797 21.3685 4.02797 21.3687C4.02797 21.369 4.02797 21.3692 4.02797 21.3695C4.02797 21.3697 4.02797 21.37 4.02797 21.3702C4.02797 21.3705 4.02797 21.3707 4.02797 21.371C4.02797 21.3712 4.02797 21.3715 4.02797 21.3717C4.02797 21.372 4.02797 21.3722 4.02797 21.3725C4.02797 21.3727 4.02797 21.3729 4.02797 21.3732C4.02797 21.3734 4.02797 21.3737 4.02797 21.3739C4.02797 21.3742 4.02797 21.3744 4.02797 21.3747C4.02797 21.3749 4.02797 21.3752 4.02797 21.3754C4.02797 21.3757 4.02797 21.3759 4.02797 21.3761C4.02797 21.3764 4.02797 21.3766 4.02797 21.3769C4.02797 21.3771 4.02797 21.3774 4.02797 21.3776C4.02797 21.3779 4.02797 21.3781 4.02797 21.3783C4.02797 21.3786 4.02797 21.3788 4.02797 21.3791C4.02797 21.3793 4.02797 21.3796 4.02797 21.3798C4.02797 21.3801 4.02797 21.3803 4.02797 21.3805C4.02797 21.3808 4.02797 21.381 4.02797 21.3813C4.02797 21.3815 4.02797 21.3818 4.02797 21.382C4.02797 21.3823 4.02797 21.3825 4.02797 21.3827C4.02797 21.383 4.02797 21.3832 4.02797 21.3835C4.02797 21.3837 4.02797 21.384 4.02797 21.3842C4.02797 21.3844 4.02797 21.3847 4.02797 21.3849C4.02797 21.3852 4.02797 21.3854 4.02797 21.3857C4.02797 21.3859 4.02797 21.3861 4.02797 21.3864C4.02797 21.3866 4.02797 21.3869 4.02797 21.3871C4.02797 21.3874 4.02797 21.3876 4.02797 21.3878C4.02797 21.3881 4.02797 21.3883 4.02797 21.3886C4.02797 21.3888 4.02797 21.3891 4.02797 21.3893C4.02797 21.3895 4.02797 21.3898 4.02797 21.39C4.02797 21.3903 4.02797 21.3905 4.02797 21.3907C4.02797 21.391 4.02797 21.3912 4.02797 21.3915C4.02797 21.3917 4.02797 21.3919 4.02797 21.3922C4.02797 21.3924 4.02797 21.3927 4.02797 21.3929C4.02797 21.3932 4.02797 21.3934 4.02797 21.3936C4.02797 21.3939 4.02797 21.3941 4.02797 21.3944C4.02797 21.3946 4.02797 21.3948 4.02797 21.3951C4.02797 21.3953 4.02797 21.3956 4.02797 21.3958C4.02797 21.396 4.02797 21.3963 4.02797 21.3965C4.02797 21.3968 4.02797 21.397 4.02797 21.3972C4.02797 21.3975 4.02797 21.3977 4.02797 21.3979C4.02797 21.3982 4.02797 21.3984 4.02797 21.3987C4.02797 21.3989 4.02797 21.3991 4.02797 21.3994C4.02797 21.3996 4.02797 21.3999 4.02797 21.4001C4.02797 21.4003 4.02797 21.4006 4.02797 21.4008C4.02797 21.4011 4.02797 21.4013 4.02797 21.4015C4.02797 21.4018 4.02797 21.402 4.02797 21.4022C4.02797 21.4025 4.02797 21.4027 4.02797 21.403C4.02797 21.4032 4.02797 21.4034 4.02797 21.4037C4.02797 21.4039 4.02797 21.4041 4.02797 21.4044C4.02797 21.4046 4.02797 21.4049 4.02797 21.4051C4.02797 21.4053 4.02797 21.4056 4.02797 21.4058C4.02797 21.406 4.02797 21.4063 4.02797 21.4065C4.02797 21.4068 4.02797 21.407 4.02797 21.4072C4.02797 21.4075 4.02797 21.4077 4.02797 21.4079C4.02797 21.4082 4.02797 21.4084 4.02797 21.4086C4.02797 21.4089 4.02797 21.4091 4.02797 21.4094C4.02797 21.4096 4.02797 21.4098 4.02797 21.4101C4.02797 21.4103 4.02797 21.4105 4.02797 21.4108C4.02797 21.411 4.02797 21.4112 4.02797 21.4115C4.02797 21.4117 4.02797 21.4119 4.02797 21.4122C4.02797 21.4124 4.02797 21.4127 4.02797 21.4129C4.02797 21.4131 4.02797 21.4134 4.02797 21.4136C4.02797 21.4138 4.02797 21.4141 4.02797 21.4143C4.02797 21.4145 4.02797 21.4148 4.02797 21.415C4.02797 21.4152 4.02797 21.4155 4.02797 21.4157C4.02797 21.4159 4.02797 21.4162 4.02797 21.4164C4.02797 21.4166 4.02797 21.4169 4.02797 21.4171C4.02797 21.4173 4.02797 21.4176 4.02797 21.4178C4.02797 21.418 4.02797 21.4183 4.02797 21.4185C4.02797 21.4187 4.02797 21.419 4.02797 21.4192C4.02797 21.4194 4.02797 21.4197 4.02797 21.4199C4.02797 21.4201 4.02797 21.4204 4.02797 21.4206C4.02797 21.4208 4.02797 21.4211 4.02797 21.4213C4.02797 21.4215 4.02797 21.4218 4.02797 21.422C4.02797 21.4222 4.02797 21.4225 4.02797 21.4227C4.02797 21.4229 4.02797 21.4232 4.02797 21.4234C4.02797 21.4236 4.02797 21.4239 4.02797 21.4241C4.02797 21.4243 4.02797 21.4246 4.02797 21.4248C4.02797 21.425 4.02797 21.4252 4.02797 21.4255C4.02797 21.4257 4.02797 21.4259 4.02797 21.4262C4.02797 21.4264 4.02797 21.4266 4.02797 21.4269C4.02797 21.4271 4.02797 21.4273 4.02797 21.4276C4.02797 21.4278 4.02797 21.428 4.02797 21.4282C4.02797 21.4285 4.02797 21.4287 4.02797 21.4289C4.02797 21.4292 4.02797 21.4294 4.02797 21.4296C4.02797 21.4299 4.02797 21.4301 4.02797 21.4303C4.02797 21.4306 4.02797 21.4308 4.02797 21.431C4.02797 21.4312 4.02797 21.4315 4.02797 21.4317C4.02797 21.4319 4.02797 21.4322 4.02797 21.4324C4.02797 21.4326 4.02797 21.4328 4.02797 21.4331C4.02797 21.4333 4.02797 21.4335 4.02797 21.4338C4.02797 21.434 4.02797 21.4342 4.02797 21.4344C4.02797 21.4347 4.02797 21.4349 4.02797 21.4351C4.02797 21.4354 4.02797 21.4356 4.02797 21.4358C4.02797 21.436 4.02797 21.4363 4.02797 21.4365C4.02797 21.4367 4.02797 21.437 4.02797 21.4372C4.02797 21.4374 4.02797 21.4376 4.02797 21.4379C4.02797 21.4381 4.02797 21.4383 4.02797 21.4386C4.02797 21.4388 4.02797 21.439 4.02797 21.4392C4.02797 21.4395 4.02797 21.4397 4.02797 21.4399C4.02797 21.4401 4.02797 21.4404 4.02797 21.4406C4.02797 21.4408 4.02797 21.4411 4.02797 21.4413C4.02797 21.4415 4.02797 21.4417 4.02797 21.442C4.02797 21.4422 4.02797 21.4424 4.02797 21.4426C4.02797 21.4429 4.02797 21.4431 4.02797 21.4433C4.02797 21.4435 4.02797 21.4438 4.02797 21.444C4.02797 21.4442 4.02797 21.4444 4.02797 21.4447C4.02797 21.4449 4.02797 21.4451 4.02797 21.4453C4.02797 21.4456 4.02797 21.4458 4.02797 21.446C4.02797 21.4462 4.02797 21.4465 4.02797 21.4467C4.02797 21.4469 4.02797 21.4471 4.02797 21.4474C4.02797 21.4476 4.02797 21.4478 4.02797 21.448C4.02797 21.4483 4.02797 21.4485 4.02797 21.4487C4.02797 21.4489 4.02797 21.4492 4.02797 21.4494C4.02797 21.4496 4.02797 21.4498 4.02797 21.4501C4.02797 21.4503 4.02797 21.4505 4.02797 21.4507C4.02797 21.451 4.02797 21.4512 4.02797 21.4514C4.02797 21.4516 4.02797 21.4519 4.02797 21.4521C4.02797 21.4523 4.02797 21.4525 4.02797 21.4527C4.02797 21.453 4.02797 21.4532 4.02797 21.4534C4.02797 21.4536 4.02797 21.4539 4.02797 21.4541C4.02797 21.4543 4.02797 21.4545 4.02797 21.4548C4.02797 21.455 4.02797 21.4552 4.02797 21.4554C4.02797 21.4556 4.02797 21.4559 4.02797 21.4561C4.02797 21.4563 4.02797 21.4565 4.02797 21.4568C4.02797 21.457 4.02797 21.4572 4.02797 21.4574C4.02797 21.4576 4.02797 21.4579 4.02797 21.4581C4.02797 21.4583 4.02797 21.4585 4.02797 21.4587C4.02797 21.459 4.02797 21.4592 4.02797 21.4594C4.02797 21.4596 4.02797 21.4599 4.02797 21.4601C4.02797 21.4603 4.02797 21.4605 4.02797 21.4607C4.02797 21.461 4.02797 21.4612 4.02797 21.4614C4.02797 21.4616 4.02797 21.4618 4.02797 21.4621C4.02797 21.4623 4.02797 21.4625 4.02797 21.4627C4.02797 21.4629 4.02797 21.4632 4.02797 21.4634C4.02797 21.4636 4.02797 21.4638 4.02797 21.464C4.02797 21.4643 4.02797 21.4645 4.02797 21.4647C4.02797 21.4649 4.02797 21.4651 4.02797 21.4654C4.02797 21.4656 4.02797 21.4658 4.02797 21.466C4.02797 21.4662 4.02797 21.4665 4.02797 21.4667C4.02797 21.4669 4.02797 21.4671 4.02797 21.4673C4.02797 21.4675 4.02797 21.4678 4.02797 21.468C4.02797 21.4682 4.02797 21.4684 4.02797 21.4686C4.02797 21.4689 4.02797 21.4691 4.02797 21.4693C4.02797 21.4695 4.02797 21.4697 4.02797 21.47C4.02797 21.4702 4.02797 21.4704 4.02797 21.4706C4.02797 21.4708 4.02797 21.471 4.02797 21.4713C4.02797 21.4715 4.02797 21.4717 4.02797 21.4719C4.02797 21.4721 4.02797 21.4723 4.02797 21.4726C4.02797 21.4728 4.02797 21.473 4.02797 21.4732C4.02797 21.4734 4.02797 21.4736 4.02797 21.4739C4.02797 21.4741 4.02797 21.4743 4.02797 21.4745C4.02797 21.4747 4.02797 21.4749 4.02797 21.4752C4.02797 21.4754 4.02797 21.4756 4.02797 21.4758C4.02797 21.476 4.02797 21.4762 4.02797 21.4765C4.02797 21.4767 4.02797 21.4769 4.02797 21.4771C4.02797 21.4773 4.02797 21.4775 4.02797 21.4778C4.02797 21.478 4.02797 21.4782 4.02797 21.4784C4.02797 21.4786 4.02797 21.4788 4.02797 21.479C4.02797 21.4793 4.02797 21.4795 4.02797 21.4797C4.02797 21.4799 4.02797 21.4801 4.02797 21.4803C4.02797 21.4805 4.02797 21.4808 4.02797 21.481C4.02797 21.4812 4.02797 21.4814 4.02797 21.4816C4.02797 21.4818 4.02797 21.482 4.02797 21.4823C4.02797 21.4825 4.02797 21.4827 4.02797 21.4829C4.02797 21.4831 4.02797 21.4833 4.02797 21.4835C4.02797 21.4838 4.02797 21.484 4.02797 21.4842C4.02797 21.4844 4.02797 21.4846 4.02797 21.4848C4.02797 21.485 4.02797 21.4853 4.02797 21.4855C4.02797 21.4857 4.02797 21.4859 4.02797 21.4861C4.02797 21.4863 4.02797 21.4865 4.02797 21.4867C4.02797 21.487 4.02797 21.4872 4.02797 21.4874C4.02797 21.4876 4.02797 21.4878 4.02797 21.488C4.02797 21.4882 4.02797 21.4884 4.02797 21.4887C4.02797 21.4889 4.02797 21.4891 4.02797 21.4893C4.02797 21.4895 4.02797 21.4897 4.02797 21.4899C4.02797 21.4901 4.02797 21.4903 4.02797 21.4906C4.02797 21.4908 4.02797 21.491 4.02797 21.4912C4.02797 21.4914 4.02797 21.4916 4.02797 21.4918C4.02797 21.492 4.02797 21.4922 4.02797 21.4925C4.02797 21.4927 4.02797 21.4929 4.02797 21.4931C4.02797 21.4933 4.02797 21.4935 4.02797 21.4937C4.02797 21.4939 4.02797 21.4941 4.02797 21.4944C4.02797 21.4946 4.02797 21.4948 4.02797 21.495C4.02797 21.4952 4.02797 21.4954 4.02797 21.4956C4.02797 21.4958 4.02797 21.496 4.02797 21.4962C4.02797 21.4964 4.02797 21.4967 4.02797 21.4969C4.02797 21.4971 4.02797 21.4973 4.02797 21.4975C4.02797 21.4977 4.02797 21.4979 4.02797 21.4981C4.02797 21.4983 4.02797 21.4985 4.02797 21.4987C4.02797 21.499 4.02797 21.4992 4.02797 21.4994C4.02797 21.4996 4.02797 21.4998 4.02797 21.5C4.02797 21.5002 4.02797 21.5004 4.02797 21.5006C4.02797 21.5008 4.02797 21.501 4.02797 21.5012C4.02797 21.5015 4.02797 21.5017 4.02797 21.5019C4.02797 21.5021 4.02797 21.5023 4.02797 21.5025C4.02797 21.5027 4.02797 21.5029 4.02797 21.5031C4.02797 21.5033 4.02797 21.5035 4.02797 21.5037C4.02797 21.5039 4.02797 21.5042 4.02797 21.5044C4.02797 21.5046 4.02797 21.5048 4.02797 21.505C4.02797 21.5052 4.02797 21.5054 4.02797 21.5056C4.02797 21.5058 4.02797 21.506 4.02797 21.5062C4.02797 21.5064 4.02797 21.5066 4.02797 21.5068C4.02797 21.507 4.02797 21.5073 4.02797 21.5075C4.02797 21.5077 4.02797 21.5079 4.02797 21.5081C4.02797 21.5083 4.02797 21.5085 4.02797 21.5087C4.02797 21.5089 4.02797 21.5091 4.02797 21.5093C4.02797 21.5095 4.02797 21.5097 4.02797 21.5099C4.02797 21.5101 4.02797 21.5103 4.02797 21.5105C4.02797 21.5107 4.02797 21.5109 4.02797 21.5112C4.02797 21.5114 4.02797 21.5116 4.02797 21.5118C4.02797 21.512 4.02797 21.5122 4.02797 21.5124C4.02797 21.5126 4.02797 21.5128 4.02797 21.513C4.02797 21.5132 4.02797 21.5134 4.02797 21.5136C4.02797 21.5138 4.02797 21.514 4.02797 21.5142C4.02797 21.5144 4.02797 21.5146 4.02797 21.5148C4.02797 21.515 4.02797 21.5152 4.02797 21.5154C4.02797 21.5156 4.02797 21.5158 4.02797 21.516C4.02797 21.5162 4.02797 21.5164 4.02797 21.5167C4.02797 21.5169 4.02797 21.5171 4.02797 21.5173C4.02797 21.5175 4.02797 21.5177 4.02797 21.5179C4.02797 21.5181 4.02797 21.5183 4.02797 21.5185C4.02797 21.5187 4.02797 21.5189 4.02797 21.5191C4.02797 21.5193 4.02797 21.5195 4.02797 21.5197C4.02797 21.5199 4.02797 21.5201 4.02797 21.5203C4.02797 21.5205 4.02797 21.5207 4.02797 21.5209C4.02797 21.5211 4.02797 21.5213 4.02797 21.5215C4.02797 21.5217 4.02797 21.5219 4.02797 21.5221C4.02797 21.5223 4.02797 21.5225 4.02797 21.5227C4.02797 21.5229 4.02797 21.5231 4.02797 21.5233C4.02797 21.5235 4.02797 21.5237 4.02797 21.5239C4.02797 21.5241 4.02797 21.5243 4.02797 21.5245C4.02797 21.5247 4.02797 21.5249 4.02797 21.5251C4.02797 21.5253 4.02797 21.5255 4.02797 21.5257C4.02797 21.5259 4.02797 21.5261 4.02797 21.5263C4.02797 21.5265 4.02797 21.5267 4.02797 21.5269C4.02797 21.5271 4.02797 21.5273 4.02797 21.5275C4.02797 21.5277 4.02797 21.5279 4.02797 21.5281C4.02797 21.5283 4.02797 21.5285 4.02797 21.5287C4.02797 21.5289 4.02797 21.5291 4.02797 21.5293C4.02797 21.5295 4.02797 21.5297 4.02797 21.5299C4.02797 21.5301 4.02797 21.5303 4.02797 21.5305C4.02797 21.5307 4.02797 21.5309 4.02797 21.5311C4.02797 21.5313 4.02797 21.5315 4.02797 21.5317C4.02797 21.5319 4.02797 21.5321 4.02797 21.5323C4.02797 21.5325 4.02797 21.5327 4.02797 21.5329C4.02797 21.5331 4.02797 21.5333 4.02797 21.5335C4.02797 21.5336 4.02797 21.5338 4.02797 21.534C4.02797 21.5342 4.02797 21.5344 4.02797 21.5346C4.02797 21.5348 4.02797 21.535 4.02797 21.5352C4.02797 21.5354 4.02797 21.5356 4.02797 21.5358C4.02797 21.536 4.02797 21.5362 4.02797 21.5364C4.02797 21.5366 4.02797 21.5368 4.02797 21.537C4.02797 21.5372 4.02797 21.5374 4.02797 21.5376C4.02797 21.5378 4.02797 21.538 4.02797 21.5382C4.02797 21.5384 4.02797 21.5386 4.02797 21.5387C4.02797 21.5389 4.02797 21.5391 4.02797 21.5393C4.02797 21.5395 4.02797 21.5397 4.02797 21.5399C4.02797 21.5401 4.02797 21.5403 4.02797 21.5405C4.02797 21.5407 4.02797 21.5409 4.02797 21.5411C4.02797 21.5413 4.02797 21.5415 4.02797 21.5417C4.02797 21.5419 4.02797 21.5421 4.02797 21.5423C4.02797 21.5424 4.02797 21.5426 4.02797 21.5428C4.02797 21.543 4.02797 21.5432 4.02797 21.5434C4.02797 21.5436 4.02797 21.5438 4.02797 21.544C4.02797 21.5442 4.02797 21.5444 4.02797 21.5446C4.02797 21.5448 4.02797 21.545 4.02797 21.5452C4.02797 21.5454 4.02797 21.5455 4.02797 21.5457C4.02797 21.5459 4.02797 21.5461 4.02797 21.5463C4.02797 21.5465 4.02797 21.5467 4.02797 21.5469C4.02797 21.5471 4.02797 21.5473 4.02797 21.5475C4.02797 21.5477 4.02797 21.5479 4.02797 21.548C4.02797 21.5482 4.02797 21.5484 4.02797 21.5486C4.02797 21.5488 4.02797 21.549 4.02797 21.5492C4.02797 21.5494 4.02797 21.5496 4.02797 21.5498C4.02797 21.55 4.02797 21.5502 4.02797 21.5503C4.02797 21.5505 4.02797 21.5507 4.02797 21.5509C4.02797 21.5511 4.02797 21.5513 4.02797 21.5515C4.02797 21.5517 4.02797 21.5519 4.02797 21.5521C4.02797 21.5523 4.02797 21.5524 4.02797 21.5526C4.02797 21.5528 4.02797 21.553 4.02797 21.5532C4.02797 21.5534 4.02797 21.5536 4.02797 21.5538C4.02797 21.554 4.02797 21.5542 4.02797 21.5543C4.02797 21.5545 4.02797 21.5547 4.02797 21.5549C4.02797 21.5551 4.02797 21.5553 4.02797 21.5555C4.02797 21.5557 4.02797 21.5559 4.02797 21.5561C4.02797 21.5562 4.02797 21.5564 4.02797 21.5566C4.02797 21.5568 4.02797 21.557 4.02797 21.5572C4.02797 21.5574 4.02797 21.5576 4.02797 21.5578C4.02797 21.5579 4.02797 21.5581 4.02797 21.5583C4.02797 21.5585 4.02797 21.5587 4.02797 21.5589C4.02797 21.5591 4.02797 21.5593 4.02797 21.5594C4.02797 21.5596 4.02797 21.5598 4.02797 21.56C4.02797 21.5602 4.02797 21.5604 4.02797 21.5606C4.02797 21.5608 4.02797 21.5609 4.02797 21.5611C4.02797 21.5613 4.02797 21.5615 4.02797 21.5617C4.02797 21.5619 4.02797 21.5621 4.02797 21.5623C4.02797 21.5624 4.02797 21.5626 4.02797 21.5628C4.02797 21.563 4.02797 21.5632 4.02797 21.5634C4.02797 21.5636 4.02797 21.5638 4.02797 21.5639C4.02797 21.5641 4.02797 21.5643 4.02797 21.5645C4.02797 21.5647 4.02797 21.5649 4.02797 21.5651C4.02797 21.5652 4.02797 21.5654 4.02797 21.5656C4.02797 21.5658 4.02797 21.566 4.02797 21.5662C4.02797 21.5664 4.02797 21.5665 4.02797 21.5667C4.02797 21.5669 4.02797 21.5671 4.02797 21.5673C4.02797 21.5675 4.02797 21.5677 4.02797 21.5678C4.02797 21.568 4.02797 21.5682 4.02797 21.5684C4.02797 21.5686 4.02797 21.5688 4.02797 21.5689C4.02797 21.5691 4.02797 21.5693 4.02797 21.5695C4.02797 21.5697 4.02797 21.5699 4.02797 21.5701C4.02797 21.5702 4.02797 21.5704 4.02797 21.5706C4.02797 21.5708 4.02797 21.571 4.02797 21.5712C4.02797 21.5713 4.02797 21.5715 4.02797 21.5717C4.02797 21.5719 4.02797 21.5721 4.02797 21.5723C4.02797 21.5724 4.02797 21.5726 4.02797 21.5728C4.02797 21.573 4.02797 21.5732 4.02797 21.5734C4.02797 21.5735 4.02797 21.5737 4.02797 21.5739C4.02797 21.5741 4.02797 21.5743 4.02797 21.5745C4.02797 21.5746 4.02797 21.5748 4.02797 21.575C4.02797 21.5752 4.02797 21.5754 4.02797 21.5755C4.02797 21.5757 4.02797 21.5759 4.02797 21.5761C4.02797 21.5763 4.02797 21.5765 4.02797 21.5766C4.02797 21.5768 4.02797 21.577 4.02797 21.5772C4.02797 21.5774 4.02797 21.5775 4.02797 21.5777C4.02797 21.5779 4.02797 21.5781 4.02797 21.5783C4.02797 21.5785 4.02797 21.5786 4.02797 21.5788C4.02797 21.579 4.02797 21.5792 4.02797 21.5794C4.02797 21.5795 4.02797 21.5797 4.02797 21.5799C4.02797 21.5801 4.02797 21.5803 4.02797 21.5804C4.02797 21.5806 4.02797 21.5808 4.02797 21.581C4.02797 21.5812 4.02797 21.5813 4.02797 21.5815C4.02797 21.5817 4.02797 21.5819 4.02797 21.5821C4.02797 21.5822 4.02797 21.5824 4.02797 21.5826C4.02797 21.5828 4.02797 21.583 4.02797 21.5831C4.02797 21.5833 4.02797 21.5835 4.02797 21.5837C4.02797 21.5839 4.02797 21.584 4.02797 21.5842C4.02797 21.5844 4.02797 21.5846 4.02797 21.5847C4.02797 21.5849 4.02797 21.5851 4.02797 21.5853C4.02797 21.5855 4.02797 21.5856 4.02797 21.5858C4.02797 21.586 4.02797 21.5862 4.02797 21.5863C4.02797 21.5865 4.02797 21.5867 4.02797 21.5869C4.02797 21.5871 4.02797 21.5872 4.02797 21.5874C4.02797 21.5876 4.02797 21.5878 4.02797 21.5879C4.02797 21.5881 4.02797 21.5883 4.02797 21.5885C4.02797 21.5887 4.02797 21.5888 4.02797 21.589C4.02797 21.5892 4.02797 21.5894 4.02797 21.5895C4.02797 21.5897 4.02797 21.5899 4.02797 21.5901C4.02797 21.5902 4.02797 21.5904 4.02797 21.5906C4.02797 21.5908 4.02797 21.591 4.02797 21.5911C4.02797 21.5913 4.02797 21.5915 4.02797 21.5917C4.02797 21.5918 4.02797 21.592 4.02797 21.5922C4.02797 21.5924 4.02797 21.5925 4.02797 21.5927C4.02797 21.5929 4.02797 21.5931 4.02797 21.5932C4.02797 21.5934 4.02797 21.5936 4.02797 21.5938C4.02797 21.5939 4.02797 21.5941 4.02797 21.5943C4.02797 21.5945 4.02797 21.5946 4.02797 21.5948C4.02797 21.595 4.02797 21.5952 4.02797 21.5953C4.02797 21.5955 4.02797 21.5957 4.02797 21.5959C4.02797 21.596 4.02797 21.5962 4.02797 21.5964C4.02797 21.5966 4.02797 21.5967 4.02797 21.5969C4.02797 21.5971 4.02797 21.5973 4.02797 21.5974C4.02797 21.5976 4.02797 21.5978 4.02797 21.598C4.02797 21.5981 4.02797 21.5983 4.02797 21.5985C4.02797 21.5986 4.02797 21.5988 4.02797 21.599C4.02797 21.5992 4.02797 21.5993 4.02797 21.5995C4.02797 21.5997 4.02797 21.5999 4.02797 21.6C4.02797 21.6002 4.02797 21.6004 4.02797 21.6005C4.02797 21.6007 4.02797 21.6009 4.02797 21.6011C4.02797 21.6012 4.02797 21.6014 4.02797 21.6016C4.02797 21.6018 4.02797 21.6019 4.02797 21.6021C4.02797 21.6023 4.02797 21.6024 4.02797 21.6026C4.02797 21.6028 4.02797 21.603 4.02797 21.6031C4.02797 21.6033 4.02797 21.6035 4.02797 21.6036C4.02797 21.6038 4.02797 21.604 4.02797 21.6042C4.02797 21.6043 4.02797 21.6045 4.02797 21.6047C4.02797 21.6048 4.02797 21.605 4.02797 21.6052C4.02797 21.6054 4.02797 21.6055 4.02797 21.6057C4.02797 21.6059 4.02797 21.606 4.02797 21.6062C4.02797 21.6064 4.02797 21.6065 4.02797 21.6067C4.02797 21.6069 4.02797 21.6071 4.02797 21.6072C4.02797 21.6074 4.02797 21.6076 4.02797 21.6077C4.02797 21.6079 4.02797 21.6081 4.02797 21.6082C4.02797 21.6084 4.02797 21.6086 4.02797 21.6087C4.02797 21.6089 4.02797 21.6091 4.02797 21.6093C4.02797 21.6094 4.02797 21.6096 4.02797 21.6098C4.02797 21.6099 4.02797 21.6101 4.02797 21.6103C4.02797 21.6104 4.02797 21.6106 4.02797 21.6108C4.02797 21.6109 4.02797 21.6111 4.02797 21.6113C4.02797 21.6114 4.02797 21.6116 4.02797 21.6118C4.02797 21.612 4.02797 21.6121 4.02797 21.6123C4.02797 21.6125 4.02797 21.6126 4.02797 21.6128C4.02797 21.613 4.02797 21.6131 4.02797 21.6133C4.02797 21.6135 4.02797 21.6136 4.02797 21.6138C4.02797 21.614 4.02797 21.6141 4.02797 21.6143C4.02797 21.6145 4.02797 21.6146 4.02797 21.6148C4.02797 21.615 4.02797 21.6151 4.02797 21.6153C4.02797 21.6155 4.02797 21.6156 4.02797 21.6158C4.02797 21.616 4.02797 21.6161 4.02797 21.6163C4.02797 21.6165 4.02797 21.6166 4.02797 21.6168C4.02797 21.617 4.02797 21.6171 4.02797 21.6173C4.02797 21.6175 4.02797 21.6176 4.02797 21.6178C4.02797 21.618 4.02797 21.6181 4.02797 21.6183C4.02797 21.6185 4.02797 21.6186 4.02797 21.6188C4.02797 21.6189 4.02797 21.6191 4.02797 21.6193C4.02797 21.6194 4.02797 21.6196 4.02797 21.6198C4.02797 21.6199 4.02797 21.6201 4.02797 21.6203C4.02797 21.6204 4.02797 21.6206 4.02797 21.6208C4.02797 21.6209 4.02797 21.6211 4.02797 21.6213C4.02797 21.6214 4.02797 21.6216 4.02797 21.6217C4.02797 21.6219 4.02797 21.6221 4.02797 21.6222C4.02797 21.6224 4.02797 21.6226 4.02797 21.6227C4.02797 21.6229 4.02797 21.6231 4.02797 21.6232C4.02797 21.6234 4.02797 21.6235 4.02797 21.6237C4.02797 21.6239 4.02797 21.624 4.02797 21.6242C4.02797 21.6244 4.02797 21.6245 4.02797 21.6247C4.02797 21.6249 4.02797 21.625 4.02797 21.6252C4.02797 21.6253 4.02797 21.6255 4.02797 21.6257C4.02797 21.6258 4.02797 21.626 4.02797 21.6261C4.02797 21.6263 4.02797 21.6265 4.02797 21.6266C4.02797 21.6268 4.02797 21.627 4.02797 21.6271C4.02797 21.6273 4.02797 21.6274 4.02797 21.6276C4.02797 21.6278 4.02797 21.6279 4.02797 21.6281C4.02797 21.6283 4.02797 21.6284 4.02797 21.6286C4.02797 21.6287 4.02797 21.6289 4.02797 21.6291C4.02797 21.6292 4.02797 21.6294 4.02797 21.6295C4.02797 21.6297 4.02797 21.6299 4.02797 21.63C4.02797 21.6302 4.02797 21.6303 4.02797 21.6305C4.02797 21.6307 4.02797 21.6308 4.02797 21.631C4.02797 21.6311 4.02797 21.6313 4.02797 21.6315C4.02797 21.6316 4.02797 21.6318 4.02797 21.6319C4.02797 21.6321 4.02797 21.6323 4.02797 21.6324C4.02797 21.6326 4.02797 21.6327 4.02797 21.6329C4.02797 21.6331 4.02797 21.6332 4.02797 21.6334C4.02797 21.6335 4.02797 21.6337 4.02797 21.6339C4.02797 21.634 4.02797 21.6342 4.02797 21.6343C4.02797 21.6345 4.02797 21.6346 4.02797 21.6348C4.02797 21.635 4.02797 21.6351 4.02797 21.6353C4.02797 21.6354 4.02797 21.6356 4.02797 21.6358C4.02797 21.6359 4.02797 21.6361 4.02797 21.6362C4.02797 21.6364 4.02797 21.6365 4.02797 21.6367C4.02797 21.6369 4.02797 21.637 4.02797 21.6372C4.02797 21.6373 4.02797 21.6375 4.02797 21.6376C4.02797 21.6378 4.02797 21.638 4.02797 21.6381C4.02797 21.6383 4.02797 21.6384 4.02797 21.6386C4.02797 21.6387 4.02797 21.6389 4.02797 21.6391C4.02797 21.6392 4.02797 21.6394 4.02797 21.6395C4.02797 21.6397 4.02797 21.6398 4.02797 21.64H4.62797ZM4.62389 21.3693C4.64788 21.2254 4.684 21.0806 4.73257 20.9349L4.16336 20.7451C4.10527 20.9194 4.06139 21.0946 4.03205 21.2707L4.62389 21.3693ZM4.7163 20.9742C4.78448 20.8378 4.86002 20.7322 4.9401 20.6521L4.51584 20.2279C4.38258 20.3611 4.27145 20.5222 4.17964 20.7058L4.7163 20.9742ZM4.96223 20.6274C5.00616 20.5725 5.06273 20.54 5.16797 20.54V19.94C4.89988 19.94 4.66311 20.0408 4.49371 20.2526L4.96223 20.6274ZM5.16797 20.54C5.14825 20.54 5.14022 20.5363 5.14849 20.5388C5.1557 20.5411 5.17043 20.5466 5.1938 20.5583C5.24112 20.582 5.307 20.6223 5.3936 20.6841L5.74234 20.1959C5.64227 20.1244 5.54815 20.0647 5.46213 20.0217C5.38384 19.9825 5.27933 19.94 5.16797 19.94V20.54ZM5.4338 20.7083C5.62929 20.8061 5.82737 20.9296 6.02797 21.08L6.38797 20.6C6.1619 20.4304 5.93332 20.2873 5.70213 20.1717L5.4338 20.7083ZM6.02797 21.08C6.22526 21.228 6.39558 21.3865 6.54019 21.5552L6.99575 21.1648C6.82036 20.9601 6.61735 20.772 6.38797 20.6L6.02797 21.08ZM6.55584 21.5721C6.6256 21.6419 6.66763 21.6959 6.69072 21.7343C6.71477 21.7744 6.70797 21.7804 6.70797 21.76H7.30797C7.30797 21.6329 7.26117 21.5189 7.20522 21.4257C7.1483 21.3308 7.07034 21.2381 6.9801 21.1479L6.55584 21.5721Z" fill="#9C0202"/>
</svg>
