<svg width="747" height="680" viewBox="0 0 747 680" fill="none" xmlns="http://www.w3.org/2000/svg">
<path fill-rule="evenodd" clip-rule="evenodd" d="M407.543 407.759L271.8 407.759L271.8 543.677L407.543 543.677L407.543 407.759Z" fill="#6A00C2"/>
<path fill-rule="evenodd" clip-rule="evenodd" d="M271.8 271.841L136.057 271.841L136.057 407.76L271.799 407.76L271.8 271.841Z" fill="#6A00C2"/>
<path fill-rule="evenodd" clip-rule="evenodd" d="M136.056 135.922L0.313611 135.922L0.313599 271.841L136.056 271.841L136.056 135.922Z" fill="#8828D7"/>
<path fill-rule="evenodd" clip-rule="evenodd" d="M747 544.082L678.259 544.082L678.259 679.596L739 679.596C743.418 679.596 747 676.015 747 671.596L747 544.082Z" fill="#8828D7"/>
<path fill-rule="evenodd" clip-rule="evenodd" d="M136.42 543.678L272.163 543.678L272.163 679.597C197.192 679.597 136.42 618.743 136.42 543.678Z" fill="#A455E6"/>
<path fill-rule="evenodd" clip-rule="evenodd" d="M542.8 543.677L542.8 407.759L678.542 407.759C678.542 482.823 617.767 543.677 542.8 543.677Z" fill="#8828D7"/>
<path fill-rule="evenodd" clip-rule="evenodd" d="M407.543 339.8C407.543 302.266 437.929 271.841 475.415 271.841C512.9 271.841 543.286 302.266 543.286 339.8C543.286 377.334 512.9 407.76 475.415 407.76C437.929 407.76 407.543 377.334 407.543 339.8Z" fill="#6A00C2"/>
<path fill-rule="evenodd" clip-rule="evenodd" d="M136.42 67.9595C136.42 30.4255 166.806 2.1307e-05 204.291 2.45841e-05C241.777 2.78611e-05 272.163 30.4255 272.163 67.9595C272.163 105.493 241.777 135.919 204.291 135.919C166.806 135.919 136.42 105.493 136.42 67.9595Z" fill="#A455E6"/>
<path fill-rule="evenodd" clip-rule="evenodd" d="M407.505 339.757C407.505 302.223 437.891 271.798 475.377 271.798C512.862 271.798 543.248 302.223 543.248 339.757C543.248 377.291 512.862 407.717 475.377 407.717C437.891 407.717 407.505 377.291 407.505 339.757Z" fill="#A455E6"/>
<path fill-rule="evenodd" clip-rule="evenodd" d="M271.8 407.759L271.8 543.677L407.543 543.677L271.8 407.759Z" fill="#8828D7"/>
<path fill-rule="evenodd" clip-rule="evenodd" d="M271.8 135.922L271.8 271.841L407.543 135.922L271.8 135.922Z" fill="#8828D7"/>
<path fill-rule="evenodd" clip-rule="evenodd" d="M408.351 544.081L408.351 680L544.093 544.081L408.351 544.081Z" fill="#A455E6"/>
<path fill-rule="evenodd" clip-rule="evenodd" d="M543.908 136.526L408.165 136.526L408.165 204.485L543.908 204.485L543.908 136.526Z" fill="#A455E6"/>
</svg>
