<svg width="281" height="528" viewBox="0 0 281 528" fill="none" xmlns="http://www.w3.org/2000/svg">
<path fill-rule="evenodd" clip-rule="evenodd" d="M178.086 174.695L280.166 528H0.751953L102.833 174.695H178.086Z" fill="white"/>
<path fill-rule="evenodd" clip-rule="evenodd" d="M138.747 141.909H142.172V0H138.747V141.909Z" fill="white"/>
<path fill-rule="evenodd" clip-rule="evenodd" d="M178.384 174.695C177.123 155.026 160.85 139.462 140.949 139.462C121.047 139.462 104.774 155.026 103.515 174.695H178.384Z" fill="white"/>
<path opacity="0.2" fill-rule="evenodd" clip-rule="evenodd" d="M178.483 174.443L280.649 527.001H1L103.167 174.443H178.483Z" fill="#FFFA00"/>
<path fill-rule="evenodd" clip-rule="evenodd" d="M138.747 141.909H142.172V0H138.747V141.909Z" fill="#032258"/>
<path fill-rule="evenodd" clip-rule="evenodd" d="M178.384 174.695C177.123 155.026 160.85 139.462 140.949 139.462C121.047 139.462 104.774 155.026 103.515 174.695H178.384Z" fill="#032258"/>
</svg>
