<svg width="247" height="167" viewBox="0 0 247 167" fill="none" xmlns="http://www.w3.org/2000/svg">
<path fill-rule="evenodd" clip-rule="evenodd" d="M161.893 154.315L174.536 107.13L221.679 119.762C214.697 145.821 187.93 161.292 161.893 154.315Z" fill="#00CCFF"/>
<path fill-rule="evenodd" clip-rule="evenodd" d="M140.068 47.186C147.051 21.1252 173.818 5.65542 199.856 12.6322C225.893 19.6089 241.339 46.3896 234.356 72.4504C227.373 98.5113 200.606 113.981 174.569 107.004C148.531 100.028 133.085 73.2469 140.068 47.186Z" fill="#6A00C2"/>
<path fill-rule="evenodd" clip-rule="evenodd" d="M234.356 72.4516L187.213 59.8197L174.57 107.005L221.713 119.636L234.356 72.4516Z" fill="#032258"/>
<path fill-rule="evenodd" clip-rule="evenodd" d="M47.1456 154.315L59.7887 107.13L106.931 119.762C99.949 145.821 73.1825 161.292 47.1456 154.315Z" fill="#00CCFF"/>
<path fill-rule="evenodd" clip-rule="evenodd" d="M25.3204 47.186C32.3034 21.1252 59.0702 5.65542 85.1078 12.6322C111.145 19.6089 126.591 46.3896 119.608 72.4504C112.625 98.5113 85.8585 113.981 59.8209 107.004C33.7833 100.028 18.3374 73.2469 25.3204 47.186Z" fill="#6A00C2"/>
<path fill-rule="evenodd" clip-rule="evenodd" d="M119.608 72.4516L72.4652 59.8197L59.8221 107.005L106.965 119.636L119.608 72.4516Z" fill="#032258"/>
</svg>
