<svg width="19" height="33" viewBox="0 0 19 33" fill="none" xmlns="http://www.w3.org/2000/svg">
<path d="M4.19788 18.325C3.42475 19.1002 2.17127 19.1002 1.39815 18.325C0.625022 17.5498 0.625022 16.293 1.39815 15.5178L15.3968 1.48176C16.1699 0.706577 17.4234 0.706577 18.1965 1.48177C18.9697 2.25695 18.9697 3.51378 18.1965 4.28897L4.19788 18.325Z" fill="#6A00C2"/>
<path d="M1.39815 18.325C0.625022 17.5498 0.625022 16.293 1.39815 15.5178C2.17127 14.7426 3.42475 14.7426 4.19788 15.5178L18.1936 29.5509C18.9668 30.3261 18.9668 31.5829 18.1936 32.3581C17.4205 33.1333 16.167 33.1333 15.3939 32.3581L1.39815 18.325Z" fill="#6A00C2"/>
</svg>
