<svg width="19" height="33" viewBox="0 0 19 33" fill="none" xmlns="http://www.w3.org/2000/svg">
<path d="M14.8021 14.675C15.5752 13.8998 16.8287 13.8998 17.6019 14.675C18.375 15.4502 18.375 16.707 17.6019 17.4822L3.6032 31.5182C2.83008 32.2934 1.57659 32.2934 0.803471 31.5182C0.030347 30.743 0.030347 29.4862 0.803471 28.711L14.8021 14.675Z" fill="#6A00C2"/>
<path d="M17.6019 14.675C18.375 15.4502 18.375 16.707 17.6019 17.4822C16.8287 18.2574 15.5752 18.2574 14.8021 17.4822L0.806357 3.44908C0.0332334 2.67389 0.0332352 1.41706 0.806359 0.641876C1.57948 -0.133312 2.83296 -0.133312 3.60609 0.641876L17.6019 14.675Z" fill="#6A00C2"/>
</svg>
