<svg width="708" height="496" viewBox="0 0 708 496" fill="none" xmlns="http://www.w3.org/2000/svg">
<path fill-rule="evenodd" clip-rule="evenodd" d="M566.072 70.3597L424.576 70.3597L424.576 211.983L566.072 211.983L566.072 70.3597Z" fill="white"/>
<path fill-rule="evenodd" clip-rule="evenodd" d="M566 212L425 212L425 234C425 300.274 478.726 354 545 354L566 354L566 212Z" fill="#A2ECFF"/>
<path fill-rule="evenodd" clip-rule="evenodd" d="M566.072 353.604L424.576 353.604L424.576 495.227L566.072 495.227L566.072 353.604Z" fill="#6A00C2"/>
<path fill-rule="evenodd" clip-rule="evenodd" d="M424.575 70.3596L283.079 70.3596L283.079 211.982L424.575 211.982L424.575 70.3596Z" fill="#A2ECFF"/>
<path fill-rule="evenodd" clip-rule="evenodd" d="M424.575 211.982L283.079 211.982L283.079 353.605L424.575 353.605L424.575 211.982Z" fill="#6A00C2"/>
<path fill-rule="evenodd" clip-rule="evenodd" d="M424.575 353.604L283.079 353.604L283.079 495.227L424.575 495.227L424.575 353.604Z" fill="#A2ECFF"/>
<path fill-rule="evenodd" clip-rule="evenodd" d="M283 69.9999L213 69.9999L213 212L283 212L283 69.9999Z" fill="#6A00C2"/>
<path fill-rule="evenodd" clip-rule="evenodd" d="M142 140.811C142 101.702 173.674 69.9999 212.748 69.9999C251.822 69.9999 283.496 101.702 283.496 140.811C283.496 179.92 251.822 211.623 212.748 211.623C173.674 211.623 142 179.92 142 140.811Z" fill="white"/>
<path fill-rule="evenodd" clip-rule="evenodd" d="M283.079 211.982L141.582 211.982L141.582 353.605L283.079 353.605L283.079 211.982Z" fill="white"/>
<path fill-rule="evenodd" clip-rule="evenodd" d="M425 211.99L353 211.99L353 353.61L425 353.61L425 211.99Z" fill="white"/>
<path fill-rule="evenodd" clip-rule="evenodd" d="M-0.00012207 495.227C-0.000115233 417.012 63.3479 353.604 141.496 353.604L141.496 495.227L-0.00012207 495.227Z" fill="white"/>
<path fill-rule="evenodd" clip-rule="evenodd" d="M283.079 495.227L283.079 353.604C361.227 353.604 424.575 417.012 424.575 495.227L283.079 495.227Z" fill="white"/>
<path fill-rule="evenodd" clip-rule="evenodd" d="M0.992932 353.1L142.489 353.1L142.489 494.723C64.3409 494.723 0.992925 431.315 0.992932 353.1Z" fill="#A2ECFF"/>
<path fill-rule="evenodd" clip-rule="evenodd" d="M283.079 211.982L283.079 70.3596L424.575 70.3596C424.575 148.574 361.227 211.982 283.079 211.982Z" fill="#00CCFF"/>
<path fill-rule="evenodd" clip-rule="evenodd" d="M142 141C142 180.213 173.787 212 213 212V69.9999C173.787 69.9999 142 101.787 142 141Z" fill="#A2ECFF"/>
<path fill-rule="evenodd" clip-rule="evenodd" d="M638 -3.10351e-06C598.787 -4.81758e-06 567 31.7867 567 71L709 71C709 31.7867 677.213 -1.38944e-06 638 -3.10351e-06Z" fill="#00CCFF"/>
<path fill-rule="evenodd" clip-rule="evenodd" d="M566.073 282.794C566.073 243.684 597.747 211.982 636.821 211.982C675.895 211.982 707.569 243.684 707.569 282.794C707.569 321.903 675.895 353.605 636.821 353.605C597.747 353.605 566.073 321.903 566.073 282.794Z" fill="#6A00C2"/>
<path fill-rule="evenodd" clip-rule="evenodd" d="M424.576 353.604L424.576 495.227L566.072 495.227L424.576 353.604Z" fill="#00CCFF"/>
<path fill-rule="evenodd" clip-rule="evenodd" d="M424.576 70.3597L424.576 211.983L566.072 70.3597L424.576 70.3597Z" fill="#6A00C2"/>
<path fill-rule="evenodd" clip-rule="evenodd" d="M282.95 353.605V211.982L141.454 353.605H282.95Z" fill="#00CCFF"/>
</svg>
