<svg width="16" height="16" viewBox="0 0 16 16" fill="none" xmlns="http://www.w3.org/2000/svg">
<path d="M11.5844 0H4.4153C1.98071 0 0 1.9808 0 4.4154V11.5845C0 14.0192 1.98071 15.9999 4.4153 15.9999H11.5844C14.0192 15.9999 15.9999 14.0191 15.9999 11.5845V4.4154C16 1.9808 14.0192 0 11.5844 0ZM14.5804 11.5845C14.5804 13.2364 13.2364 14.5803 11.5845 14.5803H4.4153C2.76347 14.5804 1.41959 13.2364 1.41959 11.5845V4.4154C1.41959 2.76356 2.76347 1.41959 4.4153 1.41959H11.5844C13.2363 1.41959 14.5803 2.76356 14.5803 4.4154V11.5845H14.5804Z" fill="white"/>
<path d="M7.99994 3.87738C5.72661 3.87738 3.87717 5.72682 3.87717 8.00015C3.87717 10.2734 5.72661 12.1227 7.99994 12.1227C10.2733 12.1227 12.1227 10.2734 12.1227 8.00015C12.1227 5.72682 10.2733 3.87738 7.99994 3.87738ZM7.99994 10.703C6.50946 10.703 5.29676 9.49053 5.29676 8.00006C5.29676 6.50949 6.50937 5.29688 7.99994 5.29688C9.49051 5.29688 10.7031 6.50949 10.7031 8.00006C10.7031 9.49053 9.49041 10.703 7.99994 10.703Z" fill="white"/>
<path d="M12.2956 2.67368C12.0221 2.67368 11.7534 2.7844 11.5603 2.97841C11.3662 3.17148 11.2546 3.44025 11.2546 3.71471C11.2546 3.98831 11.3663 4.25699 11.5603 4.451C11.7533 4.64407 12.0221 4.75574 12.2956 4.75574C12.5701 4.75574 12.8379 4.64407 13.0319 4.451C13.2259 4.25699 13.3366 3.98821 13.3366 3.71471C13.3366 3.44025 13.2259 3.17148 13.0319 2.97841C12.8388 2.7844 12.5701 2.67368 12.2956 2.67368Z" fill="white"/>
</svg>
