<svg width="25" height="24" viewBox="0 0 25 24" fill="none" xmlns="http://www.w3.org/2000/svg">
<path fill-rule="evenodd" clip-rule="evenodd" d="M5.67455 7.80518H0.316406V23.9966H5.67455V7.80518Z" fill="#6A00C2"/>
<path fill-rule="evenodd" clip-rule="evenodd" d="M6.02791 2.79786C5.99313 1.20967 4.86434 0 3.03134 0C1.19835 0 0 1.20967 0 2.79786C0 4.35317 1.16293 5.59766 2.96179 5.59766H2.99603C4.86434 5.59766 6.02791 4.35317 6.02791 2.79786Z" fill="#6A00C2"/>
<path fill-rule="evenodd" clip-rule="evenodd" d="M25.0002 14.7151C25.0002 9.7413 22.3569 7.42642 18.831 7.42642C15.9862 7.42642 14.7125 8.99812 14.0013 10.1007V7.80709H8.64258C8.7132 9.32656 8.64258 24 8.64258 24H14.0013V14.9566C14.0013 14.4726 14.0361 13.9898 14.1778 13.6433C14.565 12.6765 15.4468 11.6755 16.9271 11.6755C18.8667 11.6755 19.6421 13.1604 19.6421 15.3364V23.9996H25L25.0002 14.7151Z" fill="#6A00C2"/>
</svg>
