<svg width="17" height="16" viewBox="0 0 17 16" fill="none" xmlns="http://www.w3.org/2000/svg">
<path fill-rule="evenodd" clip-rule="evenodd" d="M4.06688 1.86467C4.04342 0.806198 3.28185 0 2.04517 0C0.808496 0 0 0.806198 0 1.86467C0 2.90122 0.7846 3.73064 1.99825 3.73064H2.02135C3.28185 3.73064 4.06688 2.90122 4.06688 1.86467ZM3.82907 5.20339H0.214193V15.9992H3.82907V5.20339ZM12.704 4.95052C15.0828 4.95052 16.8662 6.49382 16.8662 9.80978L16.866 15.9997H13.2512V10.224C13.2512 8.77327 12.7281 7.78333 11.4195 7.78333C10.4208 7.78333 9.82591 8.45069 9.56465 9.09527C9.46907 9.32627 9.4456 9.64813 9.4456 9.97078V16H5.83021C5.83021 16 5.87786 6.21732 5.83021 5.20431H9.4456V6.73342C9.9254 5.99835 10.7847 4.95052 12.704 4.95052Z" fill="white"/>
</svg>
