<svg width="52" height="19" viewBox="0 0 52 19" fill="none" xmlns="http://www.w3.org/2000/svg">
<path d="M12.941 12.8655H2.64001C2.89599 15.2473 4.61385 16.6711 6.48437 16.6711C7.89381 16.6711 9.32947 16.2567 10.2254 14.4451L12.6079 14.9622C11.5578 17.654 9.30172 18.9999 6.48283 18.9999C3.02398 19.0015 0 16.3097 0 12.2455C0 8.15481 2.99777 5.43652 6.58615 5.43652C9.9941 5.43652 12.813 8.07693 12.941 11.9339V12.8655ZM2.71711 10.951H10.2007C9.79055 8.85425 8.33022 7.81834 6.58769 7.81834C4.92072 7.81834 3.12576 8.87917 2.71711 10.951Z" fill="white"/>
<path d="M28.3942 18.6386H25.7034V17.1883C24.5761 18.327 23.0125 19 21.0911 19C17.7849 19 14.7871 16.2817 14.7871 12.2175C14.7871 8.1798 17.7849 5.43502 21.0911 5.43502C23.0125 5.43502 24.5761 6.10798 25.7034 7.27318V0H28.3942V18.6386ZM25.7034 12.2191C25.7034 9.52726 23.6524 7.8184 21.5259 7.8184C19.219 7.8184 17.3994 9.52726 17.3994 12.2191C17.3994 14.9374 19.219 16.6197 21.5259 16.6197C23.6524 16.6197 25.7034 14.9374 25.7034 12.2191Z" fill="white"/>
<path d="M35.6511 1.68238C35.6511 2.6404 34.9341 3.33984 33.9595 3.33984C32.9602 3.33984 32.2432 2.6404 32.2432 1.68238C32.2432 0.775765 32.9602 0 33.9595 0C34.9341 0 35.6511 0.777322 35.6511 1.68238Z" fill="white"/>
<path d="M35.2789 5.69678H32.6143V18.6402H35.2789V5.69678Z" fill="white"/>
<path d="M38.5771 5.69678H41.6536L51.3901 18.6387H48.3153L38.5771 5.69678Z" fill="white"/>
<path d="M48.828 9.32013L51.3909 5.69678H46.2666L48.828 9.32013Z" fill="#A049F8"/>
<path d="M43.703 18.639H38.5771L41.1401 15.0156L43.703 18.639Z" fill="#00CCFF"/>
</svg>
