<svg width="148" height="31" viewBox="0 0 148 31" fill="none" xmlns="http://www.w3.org/2000/svg">
<path d="M44.3117 5.96935H44.5588C45.3448 5.96935 45.9403 5.80354 46.3301 5.47989C46.7095 5.16023 46.8977 4.59824 46.8977 3.80028V3.34909C46.8977 2.55194 46.7047 1.98277 46.3301 1.65195C45.9403 1.31714 45.3416 1.14575 44.5588 1.14575H44.3117C43.5121 1.14575 42.9119 1.31634 42.53 1.65195C42.1602 1.98356 41.9696 2.55592 41.9696 3.34909V3.80028C41.9696 4.59744 42.1594 5.16342 42.53 5.48229C42.9047 5.80673 43.5089 5.96935 44.3117 5.96935Z" fill="black"/>
<path d="M37.7477 22.4085V14.3078C37.7477 11.5448 36.4611 8.72925 32.6435 8.72925C31.6526 8.72925 29.0698 8.84723 27.0961 10.4543C26.9406 9.98158 26.6537 9.63004 26.2391 9.40364C25.8198 9.18044 25.1933 9.06804 24.3594 9.06804C23.0107 9.06804 20.7874 9.29204 20.1337 9.40364V12.3459H22.463V25.5485H27.1654V13.1272C27.6397 13.0132 29.5123 12.5253 31.6303 12.888C31.9882 12.9486 32.2816 13.0905 32.5064 13.293C32.8691 13.6302 33.0516 14.185 33.0516 14.9495V23.1482C33.0516 24.0514 33.2358 24.7106 33.6224 25.1108C33.8576 25.3548 34.241 25.4935 34.4403 25.5421C34.4594 25.5477 34.4746 25.5532 34.4969 25.5564C34.7416 25.6162 35.0262 25.6561 35.349 25.6712C35.4328 25.6784 35.5165 25.6792 35.6017 25.6808C35.6496 25.6808 35.6918 25.688 35.7397 25.688H35.8058H35.8106H35.8186C36.0298 25.6832 36.2769 25.6792 36.5838 25.6712C36.9187 25.6569 37.2702 25.6338 37.6297 25.6035C37.9868 25.5668 39.7956 25.3468 39.7956 25.3468V22.4085H37.7477Z" fill="black"/>
<path d="M44.8632 9.06836C43.8843 9.06836 41.7878 9.28598 41.7878 9.28598C41.4004 9.32265 41.0377 9.36012 40.7045 9.40476V12.3471H42.9349V25.7242H47.6342V11.6025C47.6342 10.7025 47.446 10.0544 47.0594 9.65826C46.6736 9.26526 45.9474 9.06836 44.8632 9.06836Z" fill="black"/>
<path d="M17.3119 22.4088V11.6025C17.3119 10.7017 17.1309 10.0544 16.7467 9.65826C16.3616 9.26605 15.6426 9.06836 14.584 9.06836C14.1113 9.06836 13.4775 9.09307 12.6891 9.15206C11.9008 9.21025 11.1817 9.2812 10.5241 9.37367V12.3463H12.6126V21.6292C12.1176 21.744 11.5923 21.8269 11.0382 21.8811C10.4858 21.9393 8.35819 22.227 7.33624 21.4586C6.92809 21.1541 6.79497 20.549 6.79497 19.8045V11.6025C6.79497 10.7017 6.60365 10.0544 6.22261 9.65826C5.83678 9.26605 5.11536 9.06836 4.05673 9.06836C3.58242 9.06836 2.94948 9.09307 2.16667 9.15206C1.3743 9.21025 0.654466 9.2812 0 9.37367V12.3463H2.09573V20.4462C2.09573 22.8193 2.87933 24.0326 3.34726 24.471C4.57568 25.6118 6.21782 26.035 7.73322 26.035C10.0633 26.035 11.9701 24.809 12.7139 24.2685C12.8502 24.7636 13.1212 25.1239 13.5262 25.3471C13.9335 25.5735 14.5385 25.6891 15.3524 25.6891C16.8654 25.6891 19.4068 25.3471 19.4068 25.3471V22.4088H17.3119Z" fill="black"/>
<path d="M68.5127 27.4654L64.2128 20.244C67.1384 19.4205 67.9148 17.1996 67.9148 15.1071C67.9148 13.4036 67.4118 10.9093 63.8341 9.69439C62.3682 9.19218 60.5969 9.14355 57.0073 9.14355H50.4124V12.3912V12.3928H52.4061V25.7236H57.1053V20.9877H59.5558L64.0717 29.039C64.4001 29.6576 64.7764 30.0857 65.2005 30.3304C65.6182 30.5823 66.2511 30.7059 67.0961 30.7059C67.5074 30.7059 68.0583 30.678 68.7462 30.6238C69.435 30.5767 70.0902 30.5185 71.1257 30.4587V27.4662H68.5127V27.4654ZM59.8834 17.8995H57.1053V12.3003H59.6993C62.8536 12.3003 63.2251 13.7918 63.2251 15.0465C63.2251 16.3618 62.3068 17.8995 59.8834 17.8995Z" fill="black"/>
<path d="M76.5525 10.0387H75.8781V9.50781H77.8766V10.0387H77.2691L77.2356 14.8791H79.2596L79.3106 13.9599H79.9348L79.8838 15.41H75.8789V14.8791H76.5198L76.5525 10.0387Z" fill="#0098CD"/>
<path d="M80.2958 14.8783H80.8355L83.0277 9.50708H83.8033L85.793 14.8783H86.3582V15.4092H84.3685V14.8783H84.9927L84.3597 13.0823H82.2265L81.5266 14.8783H82.2345V15.4092H80.295V14.8783H80.2958ZM84.1748 12.5514L83.4669 10.5864C83.4334 10.4908 83.4079 10.4134 83.3912 10.3545C83.3744 10.2955 83.3601 10.2381 83.3489 10.1815H83.3322C83.321 10.2381 83.3067 10.2955 83.2899 10.3545C83.2732 10.4134 83.2477 10.4908 83.2142 10.5864L82.4386 12.5514H84.1748Z" fill="#0098CD"/>
<path d="M91.0973 10.0381H90.4644C90.4644 10.2462 90.4628 10.455 90.4604 10.6663C90.4572 10.8767 90.4548 11.1031 90.4524 11.3454C90.4492 11.587 90.4484 11.8484 90.4484 12.1298C90.4484 12.4112 90.4484 12.7229 90.4484 13.0657C90.4484 13.4308 90.4668 13.7265 90.5034 13.9513C90.5401 14.1761 90.6198 14.3643 90.7442 14.5165C90.8622 14.6624 91.0288 14.7692 91.2424 14.837C91.4568 14.9047 91.7159 14.9382 92.0204 14.9382C92.3194 14.9382 92.58 14.9008 92.8025 14.8242C93.0249 14.7485 93.2042 14.621 93.3389 14.4408C93.4625 14.2782 93.5358 14.0669 93.559 13.8087C93.5813 13.5504 93.5956 13.2188 93.6012 12.8138L93.6179 10.0397H92.8846V9.50879H94.9253V10.0397H94.2764L94.2597 13.2355C94.2597 13.5727 94.2318 13.8708 94.1752 14.1291C94.1186 14.3874 93.9926 14.6353 93.7957 14.8713C93.6267 15.0793 93.3908 15.238 93.0878 15.348C92.7849 15.4572 92.4222 15.5122 92.0005 15.5122C91.4832 15.5122 91.0742 15.4492 90.7737 15.3225C90.4732 15.1957 90.2356 15.0148 90.061 14.7788C89.9933 14.6831 89.9375 14.5835 89.892 14.4799C89.8466 14.3754 89.8131 14.2551 89.7908 14.1172C89.7685 13.9792 89.7533 13.8206 89.7446 13.6405C89.7358 13.4611 89.7318 13.2467 89.7318 12.9995C89.7318 12.5165 89.7334 12.0158 89.7358 11.4985C89.739 10.9811 89.743 10.4949 89.7485 10.0397H89.0654V9.50879H91.0973V10.0381Z" fill="#0098CD"/>
<path d="M96.2326 10.0387H95.4482V9.50781H96.8568L100.069 13.8252C100.12 13.8922 100.167 13.9639 100.213 14.0404C100.257 14.1162 100.303 14.1911 100.348 14.2637H100.364L100.399 10.0387H99.6652V9.50781H101.655V10.0387H101.023L100.989 15.41H100.391L97.0513 10.9746C96.9724 10.8622 96.8966 10.7386 96.8233 10.6039H96.8066L96.7731 14.8791H97.5152V15.41H95.559V14.8791H96.1999L96.2326 10.0387Z" fill="#0098CD"/>
<path d="M102.97 10.0387H102.296V9.50781H104.328V10.0387H103.687L103.653 14.8791H104.328V15.41H102.296V14.8791H102.937L102.97 10.0387Z" fill="#0098CD"/>
<path d="M105.297 10.0387H104.741V9.50781H106.781V10.0387H106.124L107.726 14.4486C107.748 14.5052 107.765 14.5586 107.776 14.6088C107.787 14.6598 107.802 14.7132 107.819 14.769H107.835C107.852 14.7125 107.866 14.659 107.878 14.6088C107.889 14.5586 107.905 14.5052 107.929 14.4486L109.514 10.0387H108.805V9.50781H110.795V10.0387H110.239L108.156 15.41H107.38L105.297 10.0387Z" fill="#0098CD"/>
<path d="M111.85 10.0387H111.175V9.50781H115.164V10.8741H114.539V10.0395H112.583L112.566 12.1137H114.421V12.6446H112.566L112.55 14.8791H114.59L114.641 13.9599H115.266L115.215 15.41H111.175V14.8791H111.816L111.85 10.0387Z" fill="#0098CD"/>
<path d="M116.039 9.50708H118.012C118.276 9.50708 118.538 9.52302 118.797 9.55331C119.055 9.5844 119.287 9.65137 119.492 9.75579C119.697 9.86022 119.863 10.0133 119.989 10.215C120.115 10.4174 120.179 10.6869 120.179 11.0249C120.179 11.272 120.14 11.4904 120.061 11.6785C119.982 11.8667 119.879 12.0269 119.749 12.1592C119.62 12.2915 119.473 12.3968 119.307 12.4757C119.141 12.5546 118.971 12.6024 118.797 12.6192V12.6359C118.904 12.6415 119.022 12.6933 119.151 12.7922C119.28 12.8902 119.415 13.0608 119.556 13.3023L120.053 14.1625C120.143 14.3139 120.219 14.4383 120.281 14.534C120.343 14.6296 120.399 14.703 120.45 14.7532C120.501 14.8042 120.554 14.8377 120.61 14.8544C120.666 14.8711 120.736 14.8799 120.821 14.8799H121.082V15.4108H120.736C120.585 15.4108 120.456 15.4052 120.353 15.3941C120.248 15.3829 120.156 15.3574 120.075 15.3184C119.993 15.2793 119.918 15.2219 119.851 15.1454C119.784 15.0696 119.711 14.97 119.632 14.8464L119.067 13.8771C118.938 13.6523 118.828 13.4697 118.738 13.3287C118.648 13.1884 118.56 13.0783 118.476 13.0002C118.39 12.9213 118.303 12.8679 118.212 12.84C118.122 12.8121 118.012 12.7977 117.882 12.7977H117.415L117.399 14.8807H118.082V15.4116H116.041V14.8807H116.682L116.716 10.0404H116.042V9.50708H116.039ZM117.415 12.2644H118.12C118.307 12.2644 118.483 12.2429 118.648 12.2015C118.812 12.1592 118.955 12.0907 119.077 11.995C119.199 11.8993 119.293 11.779 119.362 11.6323C119.43 11.4864 119.464 11.3063 119.464 11.0926C119.464 10.879 119.427 10.7036 119.353 10.5657C119.279 10.4278 119.18 10.3202 119.056 10.2413C118.931 10.1623 118.782 10.1089 118.609 10.081C118.436 10.0531 118.254 10.0388 118.061 10.0388H117.432L117.415 12.2644Z" fill="#0098CD"/>
<path d="M121.673 13.9172H122.364V14.7184C122.432 14.7574 122.512 14.7917 122.605 14.8196C122.697 14.8475 122.797 14.8706 122.904 14.8874C123.011 14.9041 123.116 14.9169 123.22 14.9256C123.324 14.9336 123.424 14.9384 123.519 14.9384C123.941 14.9384 124.28 14.8443 124.536 14.6562C124.792 14.4681 124.919 14.197 124.919 13.8423C124.919 13.6454 124.873 13.4836 124.78 13.3576C124.687 13.2309 124.564 13.1257 124.413 13.0412C124.262 12.9567 124.089 12.8881 123.895 12.8347C123.701 12.7813 123.503 12.7247 123.3 12.6657C123.098 12.6067 122.9 12.5421 122.705 12.472C122.512 12.4018 122.339 12.3078 122.187 12.1898C122.036 12.0718 121.913 11.9243 121.821 11.7474C121.728 11.5704 121.681 11.3496 121.681 11.0857C121.681 10.9056 121.712 10.7174 121.774 10.5205C121.836 10.3236 121.948 10.1427 122.111 9.97689C122.274 9.81108 122.497 9.67476 122.781 9.56794C123.065 9.46112 123.426 9.40771 123.865 9.40771C123.971 9.40771 124.097 9.41489 124.24 9.42844C124.383 9.44279 124.529 9.46112 124.678 9.48345C124.827 9.50577 124.969 9.53526 125.105 9.57193C125.24 9.6086 125.354 9.64686 125.451 9.68592V10.8745H124.793V10.1411C124.737 10.1188 124.668 10.0981 124.587 10.0781C124.505 10.0582 124.418 10.0415 124.325 10.0271C124.233 10.0136 124.14 10.0016 124.047 9.99363C123.955 9.98486 123.874 9.98087 123.806 9.98087C123.649 9.98087 123.49 9.99761 123.33 10.0311C123.17 10.0646 123.025 10.1212 122.896 10.2001C122.767 10.279 122.662 10.3842 122.58 10.5166C122.497 10.6489 122.458 10.8099 122.458 11.0012C122.458 11.2539 122.537 11.4452 122.697 11.5744C122.858 11.7035 123.057 11.8103 123.296 11.8948C123.535 11.9793 123.795 12.0535 124.077 12.118C124.358 12.1826 124.618 12.2751 124.857 12.3963C125.096 12.5174 125.295 12.6816 125.456 12.8897C125.616 13.0978 125.696 13.3815 125.696 13.7411C125.696 14.0671 125.633 14.3429 125.506 14.5677C125.379 14.7925 125.211 14.9751 125 15.1162C124.788 15.2565 124.548 15.3577 124.278 15.4199C124.009 15.4813 123.731 15.5123 123.444 15.5123C123.202 15.5123 122.988 15.4996 122.803 15.4741C122.617 15.4486 122.455 15.4207 122.318 15.3896C122.18 15.3585 122.059 15.3266 121.955 15.2923C121.851 15.2588 121.757 15.2333 121.673 15.2166V13.9172Z" fill="#0098CD"/>
<path d="M127.179 10.0387H126.505V9.50781H128.537V10.0387H127.896L127.862 14.8791H128.537V15.41H126.505V14.8791H127.146L127.179 10.0387Z" fill="#0098CD"/>
<path d="M129.97 10.0387H129.295V9.50781H131.952C132.39 9.50781 132.792 9.56521 133.158 9.6808C133.523 9.79638 133.834 9.97176 134.094 10.2077C134.352 10.4437 134.553 10.7418 134.696 11.1013C134.84 11.4608 134.911 11.8857 134.911 12.3744C134.911 12.8917 134.836 13.3413 134.683 13.7232C134.532 14.1058 134.315 14.4215 134.035 14.6718C133.753 14.9221 133.412 15.1078 133.01 15.2282C132.608 15.3494 132.16 15.4092 131.665 15.4092H129.296V14.8783H129.937L129.97 10.0387ZM130.653 14.8783H131.566C132.422 14.8783 133.059 14.6702 133.476 14.2541C133.673 14.0572 133.832 13.7973 133.953 13.4745C134.074 13.1516 134.135 12.7841 134.135 12.3744C134.135 11.9806 134.074 11.6283 133.953 11.3158C133.832 11.0033 133.665 10.7554 133.45 10.5696C133.202 10.356 132.933 10.2141 132.643 10.1439C132.353 10.0738 132.007 10.0387 131.607 10.0387H130.686L130.653 14.8783Z" fill="#0098CD"/>
<path d="M135.426 14.8783H135.965L138.157 9.50708H138.933L140.923 14.8783H141.488V15.4092H139.498V14.8783H140.122L139.489 13.0823H137.356L136.656 14.8783H137.364V15.4092H135.425V14.8783H135.426ZM139.305 12.5514L138.597 10.5864C138.563 10.4908 138.538 10.4134 138.521 10.3545C138.504 10.2955 138.49 10.2381 138.479 10.1815H138.462C138.451 10.2381 138.436 10.2955 138.42 10.3545C138.403 10.4134 138.377 10.4908 138.344 10.5864L137.568 12.5514H139.305Z" fill="#0098CD"/>
<path d="M142.618 10.0387H141.944V9.50781H144.6C145.039 9.50781 145.44 9.56521 145.806 9.6808C146.171 9.79638 146.483 9.97176 146.742 10.2077C147 10.4437 147.201 10.7418 147.345 11.1013C147.488 11.4608 147.56 11.8857 147.56 12.3744C147.56 12.8917 147.484 13.3413 147.332 13.7232C147.181 14.1058 146.964 14.4215 146.683 14.6718C146.402 14.9221 146.061 15.1078 145.659 15.2282C145.257 15.3494 144.808 15.4092 144.314 15.4092H141.945V14.8783H142.586L142.618 10.0387ZM143.302 14.8783H144.214C145.07 14.8783 145.707 14.6702 146.124 14.2541C146.321 14.0572 146.481 13.7973 146.602 13.4745C146.723 13.1516 146.784 12.7841 146.784 12.3744C146.784 11.9806 146.723 11.6283 146.602 11.3158C146.481 11.0033 146.313 10.7554 146.099 10.5696C145.851 10.356 145.581 10.2141 145.291 10.1439C145.001 10.0738 144.656 10.0387 144.256 10.0387H143.334L143.302 14.8783Z" fill="#0098CD"/>
<path d="M76.5525 20.1564H75.8781V19.6255H79.8663V20.9918H79.2421V20.1572H77.2859L77.2691 22.2314H79.1241V22.7623H77.2691L77.2524 24.9967H79.2931L79.3441 24.0776H79.9683L79.9173 25.5276H75.8781V24.9967H76.519L76.5525 20.1564Z" fill="#0098CD"/>
<path d="M81.3919 20.1564H80.6075V19.6255H82.0161L85.2287 23.9429C85.2797 24.0099 85.3267 24.0816 85.3721 24.1581C85.4168 24.2339 85.4622 24.3088 85.5069 24.3813H85.5236L85.5579 20.1564H84.8245V19.6255H86.8142V20.1564H86.182L86.1486 25.5276H85.5499L82.2106 21.0923C82.1317 20.9799 82.056 20.8563 81.9826 20.7216H81.9659L81.9324 24.9967H82.6746V25.5276H80.7183V24.9967H81.3592L81.3919 20.1564Z" fill="#0098CD"/>
<path d="M90.4732 20.1564H89.7988V19.6255H91.8307V20.1564H91.1898L91.1563 24.9967H91.8307V25.5276H89.7988V24.9967H90.4397L90.4732 20.1564Z" fill="#0098CD"/>
<path d="M93.2648 20.1564H92.4804V19.6255H93.889L97.1015 23.9429C97.1526 24.0099 97.1996 24.0816 97.245 24.1581C97.2897 24.2339 97.3351 24.3088 97.3797 24.3813H97.3965L97.4308 20.1564H96.6974V19.6255H98.6871V20.1564H98.0549L98.0215 25.5276H97.4228L94.0835 21.0923C94.0046 20.9799 93.9289 20.8563 93.8555 20.7216H93.8388L93.8053 24.9967H94.5475V25.5276H92.5912V24.9967H93.2321L93.2648 20.1564Z" fill="#0098CD"/>
<path d="M101.394 20.1567H99.7834L99.7324 21.0671H99.1082L99.1592 19.625H104.354L104.405 21.0671H103.78L103.729 20.1567H102.11L102.078 24.997H102.81V25.5279H100.719V24.997H101.36L101.394 20.1567Z" fill="#0098CD"/>
<path d="M105.609 20.1564H104.935V19.6255H108.923V20.9918H108.299V20.1572H106.343L106.326 22.2314H108.181V22.7623H106.326L106.309 24.9967H108.35L108.401 24.0776H109.025L108.974 25.5276H104.935V24.9967H105.576L105.609 20.1564Z" fill="#0098CD"/>
<path d="M109.8 19.6255H111.773C112.037 19.6255 112.299 19.6414 112.558 19.6717C112.816 19.7028 113.048 19.7698 113.253 19.8742C113.458 19.9786 113.623 20.1317 113.75 20.3334C113.876 20.5358 113.94 20.8053 113.94 21.1433C113.94 21.3904 113.901 21.6088 113.822 21.7969C113.743 21.9851 113.639 22.1453 113.51 22.2776C113.381 22.41 113.234 22.5152 113.068 22.5941C112.902 22.673 112.731 22.7208 112.558 22.7376V22.7543C112.665 22.7599 112.783 22.8117 112.912 22.9106C113.041 23.0086 113.176 23.1792 113.317 23.4208L113.814 24.2809C113.904 24.4323 113.98 24.5567 114.042 24.6524C114.104 24.748 114.16 24.8214 114.211 24.8716C114.262 24.9226 114.315 24.9561 114.371 24.9728C114.427 24.9896 114.497 24.9983 114.582 24.9983H114.843V25.5292H114.497C114.346 25.5292 114.217 25.5237 114.114 25.5125C114.009 25.5013 113.917 25.4758 113.836 25.4368C113.754 25.3977 113.679 25.3403 113.612 25.2638C113.545 25.188 113.472 25.0884 113.393 24.9648L112.828 23.9955C112.699 23.7707 112.589 23.5882 112.499 23.4471C112.409 23.3068 112.321 23.1968 112.236 23.1186C112.151 23.0397 112.064 22.9863 111.973 22.9584C111.883 22.9305 111.773 22.9162 111.643 22.9162H111.176L111.159 24.9991H111.843V25.53H109.802V24.9991H110.443L110.477 20.1588H109.803V19.6255H109.8ZM111.175 22.3829H111.88C112.067 22.3829 112.243 22.3613 112.408 22.3199C112.572 22.2776 112.715 22.2091 112.837 22.1134C112.959 22.0178 113.054 21.8974 113.122 21.7507C113.19 21.6048 113.224 21.4247 113.224 21.211C113.224 20.9974 113.187 20.822 113.113 20.6841C113.039 20.5462 112.94 20.4386 112.816 20.3597C112.692 20.2808 112.543 20.2273 112.37 20.1994C112.197 20.1715 112.014 20.1572 111.821 20.1572H111.192L111.175 22.3829Z" fill="#0098CD"/>
<path d="M115.914 20.1564H115.129V19.6255H116.538L119.75 23.9429C119.801 24.0099 119.848 24.0816 119.894 24.1581C119.938 24.2339 119.984 24.3088 120.029 24.3813H120.045L120.08 20.1564H119.346V19.6255H121.336V20.1564H120.704L120.67 25.5276H120.072L116.732 21.0923C116.653 20.9799 116.578 20.8563 116.504 20.7216H116.488L116.454 24.9967H117.196V25.5276H115.24V24.9967H115.881L115.914 20.1564Z" fill="#0098CD"/>
<path d="M122.626 20.1564H121.951V19.6255H125.94V20.9918H125.315V20.1572H123.359L123.342 22.2314H125.197V22.7623H123.342L123.326 24.9967H125.366L125.417 24.0776H126.042L125.991 25.5276H121.951V24.9967H122.592L122.626 20.1564Z" fill="#0098CD"/>
<path d="M128.882 20.1567H127.271L127.22 21.0671H126.596L126.647 19.625H131.842L131.893 21.0671H131.268L131.217 20.1567H129.598L129.566 24.997H130.298V25.5279H128.207V24.997H128.848L128.882 20.1567Z" fill="#0098CD"/>
</svg>
