<svg width="119" height="25" viewBox="0 0 119 25" fill="none" xmlns="http://www.w3.org/2000/svg">
<path fill-rule="evenodd" clip-rule="evenodd" d="M12.4751 0C19.3686 0 24.9503 5.56989 24.9503 12.4487C24.9503 19.3275 19.3686 24.8974 12.4751 24.8974C5.58172 24.8974 0 19.3275 0 12.4487C0 5.56989 5.59567 0 12.4751 0ZM12.4751 1.18368C6.23754 1.18368 1.18609 6.22443 1.18609 12.4488C1.18609 18.6731 6.23754 23.7139 12.4751 23.7139C18.7127 23.7139 23.7641 18.6731 23.7641 12.4488C23.7641 6.22443 18.7127 1.18368 12.4751 1.18368ZM15.0427 7.89525C15.3218 8.00664 15.5172 8.28514 15.5172 8.59148C15.5172 8.75858 15.4614 8.91175 15.3776 9.03707L12.824 13.4234C12.7682 13.5487 12.6287 13.6322 12.4752 13.6322C12.3217 13.6322 12.1961 13.5487 12.1263 13.4094L9.57266 9.02316C9.48894 8.89783 9.43312 8.74465 9.43312 8.59148C9.43312 8.28514 9.61452 8.02057 9.87966 7.89525C9.89361 7.88132 9.92152 7.8674 9.94943 7.8674C10.7448 7.58891 11.5821 7.42181 12.4752 7.42181C13.3682 7.42181 14.2194 7.57498 15.0148 7.8674C15.0288 7.89525 15.0288 7.89525 15.0427 7.89525ZM7.54929 9.32949C7.74465 9.19024 8.00978 9.1624 8.23305 9.28772C8.35864 9.35734 8.44236 9.45482 8.48423 9.56622L10.5355 13.1449C10.5913 13.2423 10.6053 13.3677 10.5495 13.4651C10.4936 13.5765 10.3681 13.6322 10.2564 13.6183L6.12595 13.6322C6.00037 13.6462 5.87478 13.6183 5.76314 13.5487C5.53987 13.4234 5.42824 13.1866 5.45615 12.9638C5.45615 12.9499 5.45615 12.9221 5.45615 12.9081C5.58174 12.2398 5.805 11.5714 6.16782 10.9587C6.53063 10.3321 6.99112 9.80294 7.50743 9.35735C7.53534 9.34342 7.53534 9.34342 7.54929 9.32949ZM17.415 9.32949C17.2196 9.19024 16.9545 9.1624 16.7312 9.28772C16.6196 9.35734 16.5219 9.45482 16.48 9.56622L14.4288 13.1449C14.3729 13.2423 14.359 13.3677 14.4148 13.4651C14.4706 13.5765 14.5962 13.6322 14.7078 13.6183L18.8383 13.6322C18.9639 13.6462 19.0895 13.6183 19.2011 13.5487C19.4104 13.4234 19.536 13.1866 19.5081 12.9638C19.5081 12.9499 19.5081 12.9221 19.5081 12.9081C19.3825 12.2398 19.1593 11.5714 18.7964 10.9587C18.4336 10.3321 17.9731 9.80294 17.4568 9.35735C17.4289 9.34342 17.415 9.34342 17.415 9.32949ZM13.0891 14.8576V18.673H11.8612V14.8576C11.2751 14.8576 10.5076 14.8576 10.2285 14.8437L6.16782 14.8576C5.81896 14.8715 5.4701 14.8019 5.14915 14.607C4.53516 14.2588 4.20026 13.5905 4.22817 12.936C4.22817 12.8385 4.24212 12.755 4.25608 12.6854C4.39562 11.8777 4.68866 11.084 5.12124 10.3321C5.55383 9.58014 6.112 8.9396 6.73994 8.41046C7.15857 8.10412 7.7586 7.93702 8.30282 8.03449C8.45632 7.51928 8.81913 7.08761 9.29358 6.83696C9.3773 6.78126 9.46103 6.75342 9.5308 6.72557C10.4518 6.39138 11.4425 6.21035 12.4752 6.21035C13.5078 6.21035 14.4985 6.39138 15.4335 6.72557C15.9637 6.96229 16.4382 7.43573 16.6335 8.00665C17.1498 7.88132 17.6941 8.00665 18.1266 8.32692C18.7546 8.85606 19.3965 9.56621 19.8291 10.3181C20.2616 11.0701 20.5407 11.8638 20.6942 12.6714C20.7082 12.7411 20.7221 12.8246 20.7221 12.9221C20.75 13.5765 20.4151 14.231 19.8012 14.5931C19.4802 14.7741 19.1313 14.8576 18.7825 14.8437L14.7218 14.8298C14.4427 14.8576 13.6752 14.8576 13.0891 14.8576Z" fill="white"/>
<path fill-rule="evenodd" clip-rule="evenodd" d="M35.7928 5.9321L38.8348 12.1564L41.8908 5.9321H46.4957V18.3808H41.8908V12.1564L38.8348 18.3808L35.7928 12.1564V18.3808H31.1879V5.9321H35.7928Z" fill="white"/>
<path fill-rule="evenodd" clip-rule="evenodd" d="M47.961 18.3808L51.5472 5.9321H59.6826L63.2688 18.3808H58.6639L58.0778 16.3339H53.1659L52.5798 18.3808H47.961ZM55.6219 7.79801L53.752 14.3008H57.4917L55.6219 7.79801Z" fill="white"/>
<path fill-rule="evenodd" clip-rule="evenodd" d="M73.3577 5.94591C75.3671 5.94591 76.9998 7.57511 76.9998 9.56634C76.9998 11.5715 75.3671 13.2007 73.3577 13.2007H69.3389V18.3807H64.7339V5.94591H73.3577ZM70.4133 7.36624C71.4459 7.36624 72.4646 7.92322 72.4646 9.05113C72.4646 10.179 71.5715 11.0981 70.4133 11.0981H69.4086V7.38016H70.4133V7.36624Z" fill="white"/>
<path fill-rule="evenodd" clip-rule="evenodd" d="M78.5906 5.9321H90.8285V7.97903H83.1955V11.1399H90.8285V13.1869H83.1955V18.3808H78.5906V5.9321Z" fill="white"/>
<path fill-rule="evenodd" clip-rule="evenodd" d="M111.034 16.3339H118.667V18.3808H106.429V5.9321H118.667V7.97903H111.034V11.1399H118.667V13.1869H111.034V16.3339Z" fill="white"/>
<path fill-rule="evenodd" clip-rule="evenodd" d="M104.699 15.2615V18.3667H100.164V15.359C100.164 15.3311 100.164 15.2894 100.164 15.2615C100.164 14.1336 99.2429 13.2146 98.1126 13.2146H97.1079V18.3667H92.4332V5.91803H101.573C103.29 5.91803 104.685 7.31051 104.685 9.02325C104.685 10.736 103.29 12.1285 101.573 12.1285C103.262 12.1285 104.643 13.4652 104.685 15.1362C104.699 15.1919 104.699 15.2337 104.699 15.2615ZM104.699 15.164V15.2615C104.699 15.2337 104.699 15.1919 104.699 15.164ZM98.1266 7.3662C99.1452 7.3662 100.178 7.92319 100.178 9.05109C100.178 10.179 99.2569 11.098 98.1266 11.098H97.1219V7.38013H98.1266V7.3662Z" fill="white"/>
</svg>
