<svg width="242" height="54" viewBox="0 0 242 54" fill="none" xmlns="http://www.w3.org/2000/svg">
<path d="M72.6716 10.8736H73.0769C74.3659 10.8736 75.3425 10.5854 75.9818 10.0231C76.6041 9.46762 76.9126 8.49108 76.9126 7.10453V6.32053C76.9126 4.93537 76.5963 3.94636 75.9818 3.37152C75.3425 2.78975 74.3607 2.49194 73.0769 2.49194H72.6716C71.3603 2.49194 70.3759 2.78837 69.7497 3.37152C69.1431 3.94775 68.8306 4.9423 68.8306 6.32053V7.10453C68.8306 8.4897 69.1418 9.47316 69.7497 10.0272C70.3641 10.591 71.3551 10.8736 72.6716 10.8736Z" fill="white"/>
<path d="M61.9067 39.4389V25.3629C61.9067 20.5619 59.7966 15.6695 53.5357 15.6695C51.9107 15.6695 47.6749 15.8745 44.4379 18.667C44.183 17.8456 43.7124 17.2347 43.0325 16.8413C42.3449 16.4535 41.3173 16.2582 39.9498 16.2582C37.7378 16.2582 34.0916 16.6474 33.0196 16.8413V21.954H36.8396V44.8951H44.5517V23.3114C45.3295 23.1134 48.4005 22.2656 51.8741 22.8959C52.4611 23.0012 52.9422 23.2477 53.3109 23.5996C53.9057 24.1855 54.2051 25.1496 54.2051 26.4779V40.7243C54.2051 42.2937 54.5071 43.4393 55.1412 44.1346C55.5268 44.5585 56.1557 44.7995 56.4825 44.884C56.5139 44.8937 56.5387 44.9034 56.5753 44.9089C56.9767 45.0128 57.4434 45.0821 57.9729 45.1084C58.1102 45.1209 58.2474 45.1222 58.3873 45.125C58.4657 45.125 58.535 45.1375 58.6135 45.1375H58.722H58.7298H58.7429C59.0894 45.1292 59.4946 45.1222 59.998 45.1084C60.547 45.0835 61.1236 45.0433 61.7132 44.9906C62.2989 44.9269 65.2653 44.5446 65.2653 44.5446V39.4389H61.9067Z" fill="white"/>
<path d="M73.5762 16.259C71.9708 16.259 68.5325 16.6371 68.5325 16.6371C67.8971 16.7008 67.3022 16.7659 66.7558 16.8435V21.9562H70.4137V45.2006H78.1206V20.6624C78.1206 19.0986 77.812 17.9724 77.178 17.284C76.5452 16.6011 75.3542 16.259 73.5762 16.259Z" fill="white"/>
<path d="M28.3916 39.4397V20.6624C28.3916 19.0972 28.0949 17.9724 27.4647 17.284C26.8333 16.6025 25.6541 16.259 23.9179 16.259C23.1426 16.259 22.1033 16.3019 20.8103 16.4044C19.5174 16.5055 18.3382 16.6288 17.2596 16.7895V21.9548H20.6848V38.085C19.873 38.2845 19.0114 38.4285 18.1028 38.5227C17.1968 38.6238 13.7075 39.1239 12.0315 37.7886C11.3621 37.2595 11.1438 36.2081 11.1438 34.9144V20.6624C11.1438 19.0972 10.8301 17.9724 10.2051 17.284C9.57239 16.6025 8.38924 16.259 6.65309 16.259C5.87522 16.259 4.83718 16.3019 3.55337 16.4044C2.25387 16.5055 1.07333 16.6288 0 16.7895V21.9548H3.43701V36.0294C3.43701 40.1531 4.72214 42.2613 5.48955 43.0231C7.50417 45.0053 10.1973 45.7408 12.6826 45.7408C16.5039 45.7408 19.6311 43.6104 20.8509 42.6713C21.0744 43.5315 21.5189 44.1576 22.1831 44.5454C22.8511 44.9388 23.8434 45.1397 25.1782 45.1397C27.6595 45.1397 31.8274 44.5454 31.8274 44.5454V39.4397H28.3916Z" fill="white"/>
<path d="M112.362 48.2253L105.31 35.6771C110.108 34.2463 111.381 30.3872 111.381 26.7511C111.381 23.7911 110.556 19.4569 104.689 17.3459C102.284 16.4732 99.3796 16.3887 93.4926 16.3887H82.6769V22.0319V22.0347H85.9466V45.1988H93.6534V36.9695H97.6722L105.078 50.9597C105.617 52.0345 106.234 52.7784 106.929 53.2036C107.615 53.6413 108.653 53.856 110.038 53.856C110.713 53.856 111.616 53.8076 112.745 53.7134C113.874 53.6316 114.949 53.5305 116.647 53.4266V48.2267H112.362V48.2253ZM98.2095 31.6034H93.6534V21.874H97.9075C103.081 21.874 103.69 24.4656 103.69 26.6459C103.69 28.9314 102.184 31.6034 98.2095 31.6034Z" fill="white"/>
<path d="M125.547 17.9459H124.441V17.0234H127.718V17.9459H126.722L126.667 26.3566H129.987L130.07 24.7595H131.094L131.01 27.2792H124.442V26.3566H125.493L125.547 17.9459Z" fill="white"/>
<path d="M131.686 26.3532H132.571L136.166 17.0199H137.438L140.701 26.3532H141.628V27.2757H138.365V26.3532H139.389L138.351 23.2324H134.852L133.705 26.3532H134.865V27.2757H131.685V26.3532H131.686ZM138.048 22.3099L136.887 18.8954C136.832 18.7292 136.79 18.5948 136.762 18.4923C136.735 18.3898 136.711 18.2901 136.693 18.1917H136.666C136.647 18.2901 136.624 18.3898 136.596 18.4923C136.569 18.5948 136.527 18.7292 136.472 18.8954L135.2 22.3099H138.048Z" fill="white"/>
<path d="M149.401 17.9447H148.363C148.363 18.3062 148.36 18.6691 148.356 19.0362C148.351 19.4018 148.347 19.7952 148.343 20.2163C148.338 20.636 148.337 21.0904 148.337 21.5793C148.337 22.0683 148.337 22.6099 148.337 23.2055C148.337 23.8399 148.367 24.3538 148.427 24.7444C148.487 25.135 148.618 25.4619 148.822 25.7265C149.015 25.98 149.288 26.1656 149.639 26.2833C149.99 26.4011 150.415 26.4593 150.915 26.4593C151.405 26.4593 151.832 26.3942 152.197 26.2612C152.562 26.1296 152.856 25.908 153.077 25.5949C153.28 25.3123 153.4 24.9453 153.438 24.4965C153.474 24.0477 153.498 23.4715 153.507 22.7678L153.535 17.9474H152.332V17.0249H155.679V17.9474H154.614L154.587 23.5005C154.587 24.0865 154.541 24.6045 154.448 25.0533C154.356 25.5021 154.149 25.9329 153.826 26.3429C153.549 26.7044 153.162 26.9801 152.665 27.1712C152.168 27.361 151.574 27.4566 150.882 27.4566C150.033 27.4566 149.363 27.3472 148.87 27.1269C148.377 26.9067 147.987 26.5922 147.701 26.1822C147.59 26.016 147.498 25.8429 147.424 25.6628C147.349 25.4813 147.295 25.2722 147.258 25.0325C147.221 24.7929 147.196 24.5173 147.182 24.2042C147.168 23.8926 147.161 23.5199 147.161 23.0905C147.161 22.2511 147.164 21.3812 147.168 20.4823C147.173 19.5833 147.179 18.7384 147.189 17.9474H146.068V17.0249H149.401V17.9447Z" fill="white"/>
<path d="M157.823 17.9452H156.536V17.0226H158.846L164.115 24.5247C164.199 24.6411 164.276 24.7657 164.35 24.8987C164.423 25.0303 164.498 25.1605 164.571 25.2866H164.599L164.655 17.9452H163.452V17.0226H166.715V17.9452H165.679L165.624 27.2784H164.642L159.165 19.5714C159.036 19.376 158.912 19.1613 158.791 18.9273H158.764L158.709 26.3559H159.926V27.2784H156.718V26.3559H157.769L157.823 17.9452Z" fill="white"/>
<path d="M168.872 17.9452H167.766V17.0226H171.099V17.9452H170.048L169.993 26.3559H171.099V27.2784H167.766V26.3559H168.817L168.872 17.9452Z" fill="white"/>
<path d="M172.689 17.9452H171.776V17.0226H175.123V17.9452H174.044L176.672 25.6079C176.709 25.7063 176.736 25.7991 176.754 25.8863C176.773 25.975 176.796 26.0678 176.824 26.1648H176.851C176.879 26.0664 176.902 25.9736 176.92 25.8863C176.939 25.7991 176.966 25.7063 177.004 25.6079L179.604 17.9452H178.442V17.0226H181.705V17.9452H180.793L177.377 27.2784H176.105L172.689 17.9452Z" fill="white"/>
<path d="M183.435 17.9452H182.329V17.0226H188.869V19.3968H187.846V17.9466H184.638L184.61 21.5508H187.652V22.4733H184.61L184.583 26.3559H187.929L188.013 24.7588H189.037L188.953 27.2784H182.329V26.3559H183.38L183.435 17.9452Z" fill="white"/>
<path d="M190.306 17.0199H193.542C193.974 17.0199 194.403 17.0476 194.828 17.1002C195.252 17.1543 195.632 17.2706 195.968 17.4521C196.304 17.6335 196.576 17.8995 196.784 18.2499C196.99 18.6018 197.095 19.0699 197.095 19.6573C197.095 20.0867 197.031 20.4662 196.902 20.7931C196.772 21.12 196.602 21.3984 196.39 21.6283C196.179 21.8583 195.937 22.0411 195.665 22.1783C195.393 22.3154 195.113 22.3985 194.828 22.4276V22.4567C195.003 22.4664 195.197 22.5564 195.409 22.7282C195.62 22.8985 195.841 23.195 196.073 23.6147L196.888 25.1093C197.036 25.3724 197.16 25.5885 197.262 25.7548C197.364 25.921 197.456 26.0484 197.539 26.1357C197.623 26.2243 197.709 26.2825 197.802 26.3116C197.894 26.3407 198.009 26.3559 198.147 26.3559H198.576V27.2784H198.009C197.76 27.2784 197.55 27.2687 197.38 27.2493C197.209 27.23 197.057 27.1856 196.924 27.1178C196.79 27.0499 196.667 26.9502 196.558 26.8172C196.448 26.6856 196.328 26.5124 196.198 26.2977L195.271 24.6134C195.059 24.2228 194.879 23.9056 194.731 23.6604C194.584 23.4166 194.44 23.2254 194.301 23.0897C194.161 22.9526 194.019 22.8598 193.87 22.8113C193.722 22.7628 193.54 22.7379 193.327 22.7379H192.562L192.535 26.3573H193.655V27.2798H190.309V26.3573H191.36L191.416 17.9466H190.31V17.0199H190.306ZM192.561 21.8112H193.718C194.025 21.8112 194.313 21.7738 194.584 21.7018C194.853 21.6283 195.087 21.5092 195.287 21.343C195.487 21.1768 195.643 20.9676 195.755 20.7127C195.866 20.4593 195.922 20.1462 195.922 19.775C195.922 19.4038 195.862 19.099 195.741 18.8594C195.619 18.6198 195.457 18.4328 195.253 18.2956C195.049 18.1585 194.805 18.0657 194.521 18.0172C194.237 17.9687 193.938 17.9438 193.621 17.9438H192.59L192.561 21.8112Z" fill="white"/>
<path d="M199.545 24.6848H200.679V26.0769C200.79 26.1447 200.921 26.2043 201.074 26.2528C201.225 26.3013 201.389 26.3414 201.564 26.3705C201.739 26.3996 201.912 26.4218 202.083 26.437C202.253 26.4509 202.416 26.4592 202.573 26.4592C203.265 26.4592 203.82 26.2957 204.24 25.9688C204.66 25.6419 204.869 25.171 204.869 24.5546C204.869 24.2124 204.793 23.9312 204.64 23.7124C204.488 23.4921 204.287 23.3093 204.039 23.1625C203.79 23.0156 203.507 22.8965 203.189 22.8037C202.871 22.7109 202.546 22.6126 202.214 22.5101C201.882 22.4076 201.557 22.2954 201.238 22.1735C200.921 22.0516 200.637 21.8881 200.389 21.6831C200.14 21.4781 199.939 21.2219 199.787 20.9143C199.636 20.6068 199.558 20.2231 199.558 19.7647C199.558 19.4516 199.609 19.1247 199.71 18.7826C199.812 18.4404 199.996 18.126 200.263 17.8379C200.531 17.5498 200.897 17.3129 201.363 17.1273C201.828 16.9417 202.42 16.8489 203.139 16.8489C203.314 16.8489 203.52 16.8613 203.755 16.8849C203.99 16.9098 204.23 16.9417 204.474 16.9805C204.719 17.0193 204.951 17.0705 205.173 17.1342C205.394 17.1979 205.583 17.2644 205.741 17.3323V19.3976H204.662V18.1232C204.571 18.0844 204.457 18.0484 204.324 18.0138C204.19 17.9792 204.047 17.9501 203.895 17.9252C203.743 17.9016 203.59 17.8808 203.439 17.867C203.287 17.8517 203.155 17.8448 203.044 17.8448C202.786 17.8448 202.525 17.8739 202.263 17.9321C202.001 17.9903 201.763 18.0886 201.551 18.2257C201.339 18.3629 201.166 18.5457 201.032 18.7756C200.897 19.0056 200.832 19.2854 200.832 19.6178C200.832 20.0569 200.963 20.3894 201.225 20.6138C201.488 20.8382 201.815 21.0238 202.207 21.1706C202.599 21.3174 203.026 21.4462 203.487 21.5584C203.949 21.6706 204.375 21.8313 204.767 22.0419C205.159 22.2524 205.486 22.5378 205.749 22.8993C206.012 23.2608 206.142 23.7539 206.142 24.3786C206.142 24.9452 206.039 25.4244 205.831 25.8151C205.623 26.2057 205.347 26.5229 205.001 26.7681C204.654 27.0119 204.261 27.1878 203.818 27.2958C203.376 27.4025 202.92 27.4565 202.449 27.4565C202.053 27.4565 201.701 27.4343 201.398 27.39C201.093 27.3457 200.828 27.2972 200.603 27.2432C200.377 27.1892 200.178 27.1337 200.008 27.0742C199.837 27.016 199.683 26.9717 199.545 26.9426V24.6848Z" fill="white"/>
<path d="M208.575 17.9452H207.469V17.0226H210.801V17.9452H209.75L209.695 26.3559H210.801V27.2784H207.469V26.3559H208.52L208.575 17.9452Z" fill="white"/>
<path d="M213.152 17.9452H212.046V17.0226H216.402C217.121 17.0226 217.78 17.1224 218.38 17.3232C218.979 17.5241 219.49 17.8288 219.915 18.2388C220.339 18.6488 220.668 19.1669 220.903 19.7916C221.139 20.4163 221.256 21.1546 221.256 22.0037C221.256 22.9027 221.132 23.6839 220.882 24.3474C220.634 25.0123 220.278 25.5608 219.818 25.9958C219.357 26.4307 218.797 26.7534 218.138 26.9626C217.479 27.1731 216.743 27.277 215.933 27.277H212.047V26.3545H213.098L213.152 17.9452ZM214.272 26.3545H215.769C217.173 26.3545 218.218 25.993 218.902 25.2699C219.225 24.9278 219.486 24.4762 219.685 23.9152C219.884 23.3542 219.983 22.7157 219.983 22.0037C219.983 21.3194 219.884 20.7072 219.685 20.1642C219.486 19.6212 219.212 19.1904 218.86 18.8677C218.453 18.4965 218.011 18.2499 217.536 18.128C217.06 18.0061 216.494 17.9452 215.837 17.9452H214.326L214.272 26.3545Z" fill="white"/>
<path d="M222.099 26.3532H222.984L226.58 17.0199H227.852L231.115 26.3532H232.042V27.2757H228.779V26.3532H229.802L228.764 23.2324H225.266L224.118 26.3532H225.279V27.2757H222.098V26.3532H222.099ZM228.461 22.3099L227.3 18.8954C227.245 18.7292 227.203 18.5948 227.176 18.4923C227.148 18.3898 227.125 18.2901 227.107 18.1917H227.079C227.061 18.2901 227.037 18.3898 227.01 18.4923C226.982 18.5948 226.941 18.7292 226.886 18.8954L225.614 22.3099H228.461Z" fill="white"/>
<path d="M233.896 17.9452H232.79V17.0226H237.146C237.865 17.0226 238.524 17.1224 239.124 17.3232C239.723 17.5241 240.234 17.8288 240.659 18.2388C241.082 18.6488 241.412 19.1669 241.647 19.7916C241.882 20.4163 242 21.1546 242 22.0037C242 22.9027 241.876 23.6839 241.626 24.3474C241.378 25.0123 241.022 25.5608 240.562 25.9958C240.1 26.4307 239.541 26.7534 238.882 26.9626C238.223 27.1731 237.487 27.277 236.677 27.277H232.791V26.3545H233.842L233.896 17.9452ZM235.016 26.3545H236.513C237.917 26.3545 238.962 25.993 239.645 25.2699C239.968 24.9278 240.23 24.4762 240.429 23.9152C240.627 23.3542 240.727 22.7157 240.727 22.0037C240.727 21.3194 240.627 20.7072 240.429 20.1642C240.23 19.6212 239.955 19.1904 239.604 18.8677C239.197 18.4965 238.755 18.2499 238.279 18.128C237.803 18.0061 237.237 17.9452 236.581 17.9452H235.07L235.016 26.3545Z" fill="white"/>
<path d="M125.547 35.5262H124.441V34.6036H130.982V36.9778H129.958V35.5275H126.75L126.722 39.1317H129.764V40.0543H126.722L126.695 43.9369H130.042L130.125 42.3398H131.149L131.065 44.8594H124.441V43.9369H125.492L125.547 35.5262Z" fill="white"/>
<path d="M133.484 35.5262H132.197V34.6036H134.507L139.776 42.1057C139.86 42.222 139.937 42.3467 140.011 42.4797C140.084 42.6113 140.159 42.7415 140.232 42.8675H140.26L140.316 35.5262H139.113V34.6036H142.376V35.5262H141.34L141.285 44.8594H140.303L134.826 37.1523C134.697 36.957 134.573 36.7423 134.452 36.5082H134.425L134.37 43.9369H135.587V44.8594H132.379V43.9369H133.43L133.484 35.5262Z" fill="white"/>
<path d="M148.377 35.5262H147.271V34.6036H150.603V35.5262H149.552L149.497 43.9369H150.603V44.8594H147.271V43.9369H148.322L148.377 35.5262Z" fill="white"/>
<path d="M152.955 35.5262H151.669V34.6036H153.979L159.248 42.1057C159.331 42.222 159.408 42.3467 159.483 42.4797C159.556 42.6113 159.631 42.7415 159.704 42.8675H159.731L159.788 35.5262H158.585V34.6036H161.848V35.5262H160.811L160.756 44.8594H159.775L154.298 37.1523C154.169 36.957 154.044 36.7423 153.924 36.5082H153.897L153.842 43.9369H155.059V44.8594H151.851V43.9369H152.902L152.955 35.5262Z" fill="white"/>
<path d="M166.287 35.5264H163.646L163.562 37.1083H162.539L162.622 34.6025H171.141L171.224 37.1083H170.201L170.117 35.5264H167.462L167.408 43.9372H168.61V44.8597H165.181V43.9372H166.232L166.287 35.5264Z" fill="white"/>
<path d="M173.201 35.5262H172.095V34.6036H178.635V36.9778H177.612V35.5275H174.404L174.376 39.1317H177.418V40.0543H174.376L174.349 43.9369H177.695L177.779 42.3398H178.803L178.719 44.8594H172.095V43.9369H173.146L173.201 35.5262Z" fill="white"/>
<path d="M180.074 34.6036H183.309C183.742 34.6036 184.171 34.6313 184.596 34.684C185.019 34.738 185.4 34.8544 185.736 35.0358C186.072 35.2173 186.344 35.4832 186.552 35.8337C186.758 36.1855 186.863 36.6537 186.863 37.241C186.863 37.6704 186.799 38.0499 186.669 38.3768C186.54 38.7037 186.37 38.9821 186.158 39.2121C185.946 39.442 185.704 39.6249 185.433 39.762C185.161 39.8991 184.881 39.9822 184.596 40.0113V40.0404C184.771 40.0501 184.965 40.1401 185.176 40.3119C185.388 40.4823 185.609 40.7787 185.84 41.1984L186.656 42.693C186.804 42.9562 186.928 43.1723 187.03 43.3385C187.132 43.5047 187.224 43.6321 187.307 43.7194C187.391 43.8081 187.477 43.8662 187.57 43.8953C187.662 43.9244 187.777 43.9397 187.915 43.9397H188.344V44.8622H187.777C187.528 44.8622 187.318 44.8525 187.148 44.8331C186.976 44.8137 186.825 44.7694 186.691 44.7015C186.558 44.6336 186.435 44.5339 186.325 44.4009C186.216 44.2693 186.095 44.0962 185.966 43.8815L185.039 42.1971C184.827 41.8065 184.647 41.4893 184.499 41.2441C184.351 41.0003 184.208 40.8092 184.069 40.6734C183.929 40.5363 183.787 40.4435 183.638 40.395C183.49 40.3465 183.308 40.3216 183.095 40.3216H182.33L182.303 43.941H183.423V44.8636H180.076V43.941H181.127L181.184 35.5303H180.078V34.6036H180.074ZM182.328 39.3949H183.485C183.792 39.3949 184.079 39.3575 184.35 39.2855C184.619 39.2121 184.853 39.093 185.053 38.9267C185.253 38.7605 185.409 38.5514 185.521 38.2965C185.633 38.043 185.689 37.73 185.689 37.3587C185.689 36.9875 185.629 36.6828 185.507 36.4431C185.385 36.2035 185.223 36.0165 185.019 35.8794C184.815 35.7422 184.571 35.6494 184.287 35.601C184.004 35.5525 183.704 35.5275 183.388 35.5275H182.356L182.328 39.3949Z" fill="white"/>
<path d="M190.1 35.5262H188.813V34.6036H191.123L196.392 42.1057C196.475 42.222 196.553 42.3467 196.627 42.4797C196.7 42.6113 196.775 42.7415 196.848 42.8675H196.876L196.932 35.5262H195.729V34.6036H198.992V35.5262H197.955L197.9 44.8594H196.919L191.442 37.1523C191.313 36.957 191.189 36.7423 191.068 36.5082H191.041L190.986 43.9369H192.203V44.8594H188.995V43.9369H190.046L190.1 35.5262Z" fill="white"/>
<path d="M201.108 35.5262H200.002V34.6036H206.542V36.9778H205.519V35.5275H202.31L202.283 39.1317H205.325V40.0543H202.283L202.256 43.9369H205.602L205.686 42.3398H206.71L206.626 44.8594H200.002V43.9369H201.053L201.108 35.5262Z" fill="white"/>
<path d="M211.367 35.5264H208.727L208.643 37.1083H207.619L207.703 34.6025H216.222L216.305 37.1083H215.282L215.198 35.5264H212.543L212.489 43.9372H213.691V44.8597H210.261V43.9372H211.313L211.367 35.5264Z" fill="white"/>
</svg>
