<svg width="416" height="152" viewBox="0 0 416 152" fill="none" xmlns="http://www.w3.org/2000/svg">
<rect width="180" height="72" fill="white"/>
<path d="M79.7936 22.4995L68.1349 49.5719H60.5368L54.8016 27.9629C54.4563 26.6378 54.1528 26.1485 53.0957 25.5879C51.3689 24.6705 48.5118 23.8143 46 23.2843L46.1675 22.4995H58.4018C59.9612 22.4995 61.3636 23.5086 61.7194 25.2617L64.744 40.9283L72.227 22.4995H79.7936ZM109.579 40.7346C109.61 33.5894 99.4377 33.1918 99.5005 30.0015C99.5214 29.0331 100.474 27.9934 102.546 27.7386C103.572 27.6061 106.418 27.5042 109.631 28.9516L110.898 23.213C109.171 22.5912 106.952 22 104.179 22C97.0724 22 92.0699 25.6797 92.028 30.9494C91.9757 34.8533 95.5968 37.0244 98.3283 38.3189C101.133 39.644 102.065 40.5002 102.054 41.6826C102.033 43.4969 99.8144 44.3021 97.7527 44.3327C94.1421 44.3837 92.0385 43.3848 90.3639 42.6203L89.0662 48.5526C90.7407 49.3069 93.849 49.9592 97.062 49.9898C104.608 50 109.558 46.3611 109.579 40.7346ZM128.344 49.5719H135L129.192 22.4995H123.048C121.667 22.4995 120.505 23.2843 119.992 24.4871L109.202 49.5719H116.748L118.244 45.5253H127.475L128.344 49.5719ZM120.327 39.9803L124.116 29.818L126.293 39.9803H120.327ZM90.0709 22.4995L84.1264 49.5719H76.9365L82.881 22.4995H90.0709Z" fill="#10357E"/>
<rect x="236" width="180" height="72" fill="white"/>
<g clip-path="url(#clip0)">
<path d="M347.671 22H338.016C337.356 22 336.799 22.4881 336.696 23.1673L332.797 48.6142C332.715 49.1236 333.107 49.5693 333.581 49.5693H338.532C338.986 49.5693 339.378 49.2297 339.46 48.7628L340.574 41.5468C340.677 40.8677 341.234 40.3795 341.894 40.3795H344.948C351.301 40.3795 354.973 37.2172 355.922 30.9351C356.355 28.1973 355.943 26.0325 354.684 24.5256C353.344 22.8702 350.909 22 347.671 22ZM348.785 31.2959C348.248 34.8614 345.608 34.8614 343.05 34.8614H341.606L342.637 28.2185C342.699 27.8152 343.029 27.5181 343.421 27.5181H344.081C345.814 27.5181 347.464 27.5181 348.31 28.5368C348.826 29.1311 348.991 30.0437 348.785 31.2959Z" fill="#00A5E5"/>
<path d="M278.874 22H269.24C268.58 22 268.023 22.4881 267.92 23.1673L264 48.6142C263.918 49.1236 264.31 49.5693 264.805 49.5693H269.405C270.065 49.5693 270.622 49.0811 270.725 48.402L271.777 41.5256C271.88 40.8677 272.458 40.3795 273.118 40.3795H276.171C282.525 40.3795 286.197 37.2172 287.146 30.9351C287.579 28.1973 287.166 26.0325 285.908 24.5256C284.547 22.8702 282.112 22 278.874 22ZM279.988 31.2959C279.472 34.8614 276.831 34.8614 274.273 34.8614H272.809L273.82 28.2185C273.902 27.794 274.232 27.4969 274.624 27.4969H275.284C277.017 27.4969 278.667 27.4969 279.513 28.5156C280.029 29.1311 280.194 30.0437 279.988 31.2959Z" fill="#1F437C"/>
<path d="M307.713 31.1898H303.092C302.7 31.1898 302.349 31.4869 302.287 31.8901L302.081 33.2272L301.751 32.7391C300.761 31.2534 298.512 30.7441 296.305 30.7441C291.21 30.7441 286.836 34.7129 285.991 40.2946C285.557 43.0749 286.176 45.7278 287.703 47.5955C289.105 49.2934 291.127 50.015 293.52 50.015C297.625 50.015 299.915 47.2984 299.915 47.2984L299.709 48.6142C299.626 49.1236 300.018 49.5693 300.513 49.5693H304.68C305.34 49.5693 305.897 49.0812 306.001 48.402L308.497 32.1448C308.579 31.6355 308.208 31.1898 307.713 31.1898ZM301.277 40.422C300.823 43.1386 298.739 44.9638 296.057 44.9638C294.717 44.9638 293.644 44.5181 292.963 43.6904C292.282 42.8627 292.014 41.6742 292.241 40.3583C292.654 37.6629 294.778 35.7953 297.419 35.7953C298.739 35.7953 299.791 36.241 300.493 37.0899C301.194 37.9176 301.483 39.1061 301.277 40.422Z" fill="#1F437C"/>
<path d="M376.509 31.1898H371.889C371.497 31.1898 371.167 31.4869 371.105 31.8901L370.898 33.2272L370.568 32.7391C369.558 31.2534 367.33 30.7441 365.122 30.7441C360.027 30.7441 355.654 34.7129 354.808 40.2946C354.375 43.0749 354.994 45.7278 356.52 47.5955C357.923 49.2934 359.945 50.015 362.337 50.015C366.443 50.015 368.732 47.2984 368.732 47.2984L368.526 48.6142C368.444 49.1236 368.815 49.5693 369.31 49.5693H373.477C374.137 49.5693 374.694 49.0812 374.797 48.402L377.293 32.1448C377.376 31.6355 377.005 31.1898 376.509 31.1898ZM370.073 40.422C369.619 43.1386 367.536 44.9638 364.854 44.9638C363.513 44.9638 362.441 44.5181 361.76 43.6904C361.079 42.8627 360.832 41.6742 361.038 40.3583C361.45 37.6629 363.575 35.7953 366.216 35.7953C367.536 35.7953 368.588 36.241 369.289 37.0899C369.991 37.9176 370.28 39.1061 370.073 40.422Z" fill="#00A5E5"/>
<path d="M332.302 31.1898H327.661C327.227 31.1898 326.794 31.4232 326.547 31.8052L320.152 41.5044L317.429 32.1873C317.264 31.6142 316.748 31.211 316.15 31.211H311.591C311.034 31.211 310.663 31.7628 310.828 32.3146L315.944 47.7441L311.137 54.7266C310.766 55.2784 311.137 56.0424 311.797 56.0424H316.439C316.872 56.0424 317.284 55.8302 317.532 55.4482L332.962 32.5268C333.334 31.9326 332.962 31.1898 332.302 31.1898Z" fill="#1F437C"/>
<path d="M381.956 22.7004L377.995 48.6142C377.913 49.1236 378.305 49.5693 378.779 49.5693H382.761C383.421 49.5693 383.978 49.0811 384.081 48.402L387.98 22.9551C388.083 22.4457 387.691 22 387.196 22H382.74C382.348 22 382.018 22.2971 381.956 22.7004Z" fill="#00A5E5"/>
</g>
<rect x="236" y="80" width="180" height="72" fill="white"/>
<path d="M262.017 124.099V114.21C262.017 110.49 259.534 107.978 255.562 107.946C253.477 107.914 251.325 108.518 249.803 110.744C248.677 108.995 246.89 107.946 244.374 107.946C242.62 107.946 240.899 108.423 239.575 110.267V108.328H236V124.099H239.608V115.355C239.608 112.62 241.197 111.157 243.613 111.157C245.996 111.157 247.188 112.652 247.188 115.323V124.099H250.796V115.355C250.796 112.62 252.451 111.157 254.801 111.157C257.25 111.157 258.409 112.652 258.409 115.323V124.099H262.017ZM315.375 108.328H309.549V103.558H305.941V108.328H302.598V111.475H305.941V118.661C305.941 122.318 307.431 124.512 311.634 124.512C313.19 124.512 314.978 124.067 316.103 123.304L315.077 120.378C314.018 120.983 312.859 121.269 311.932 121.269C310.145 121.269 309.549 120.219 309.549 118.63V111.475H315.375V108.328ZM345.827 107.946C343.775 107.946 342.418 108.868 341.491 110.267V108.359H337.949V124.13H341.524V115.259C341.524 112.652 342.683 111.189 345.033 111.189C345.761 111.189 346.522 111.285 347.25 111.571L348.343 108.359C347.581 108.073 346.555 107.946 345.827 107.946ZM299.784 109.599C298.063 108.518 295.713 107.946 293.098 107.946C288.928 107.946 286.28 109.854 286.28 113.002C286.28 115.577 288.266 117.167 291.94 117.644L293.628 117.867C295.581 118.121 296.508 118.63 296.508 119.52C296.508 120.728 295.217 121.428 292.767 121.428C290.285 121.428 288.497 120.665 287.306 119.774L285.618 122.445C287.57 123.844 290.053 124.48 292.734 124.48C297.467 124.48 300.215 122.35 300.215 119.329C300.215 116.563 298.063 115.1 294.488 114.623L292.767 114.401C291.211 114.21 289.987 113.892 289.987 112.843C289.987 111.698 291.145 110.998 293.098 110.998C295.184 110.998 297.236 111.762 298.196 112.334L299.784 109.599ZM395.412 107.946C393.359 107.946 392.002 108.868 391.075 110.267V108.359H387.534V124.13H391.108V115.259C391.108 112.652 392.267 111.189 394.617 111.189C395.345 111.189 396.107 111.285 396.835 111.571L397.96 108.359C397.166 108.073 396.14 107.946 395.412 107.946ZM349.435 116.213C349.435 120.983 352.911 124.48 358.207 124.48C360.689 124.48 362.311 123.94 364.099 122.604L362.377 119.838C361.053 120.76 359.63 121.269 358.074 121.269C355.228 121.237 353.142 119.266 353.142 116.213C353.142 113.161 355.228 111.189 358.074 111.157C359.63 111.157 361.02 111.666 362.377 112.588L364.099 109.822C362.311 108.455 360.656 107.946 358.207 107.946C352.878 107.946 349.435 111.444 349.435 116.213ZM382.866 116.213V108.328H379.292V110.235C378.166 108.804 376.445 107.914 374.095 107.914C369.494 107.914 365.886 111.38 365.886 116.181C365.886 120.983 369.494 124.448 374.095 124.448C376.445 124.448 378.133 123.558 379.292 122.159V124.067H382.866V116.213ZM369.56 116.213C369.56 113.447 371.447 111.157 374.525 111.157C377.471 111.157 379.457 113.32 379.457 116.213C379.457 119.075 377.471 121.269 374.525 121.269C371.48 121.269 369.56 118.979 369.56 116.213ZM326.496 107.946C321.697 107.946 318.321 111.316 318.321 116.213C318.321 121.237 321.829 124.48 326.728 124.48C329.211 124.48 331.462 123.876 333.448 122.254L331.693 119.711C330.336 120.792 328.582 121.396 326.927 121.396C324.643 121.396 322.524 120.378 322.028 117.549H334.209C334.242 117.135 334.275 116.69 334.275 116.213C334.242 111.285 331.097 107.946 326.496 107.946ZM326.43 110.998C328.747 110.998 330.204 112.398 330.568 114.814H322.061C322.425 112.556 323.882 110.998 326.43 110.998ZM416 116.213V102H412.425V110.235C411.3 108.804 409.579 107.914 407.228 107.914C402.627 107.914 399.019 111.38 399.019 116.181C399.019 120.983 402.627 124.448 407.228 124.448C409.579 124.448 411.267 123.558 412.425 122.159V124.067H416V116.213ZM402.694 116.213C402.694 113.447 404.58 111.157 407.659 111.157C410.605 111.157 412.591 113.32 412.591 116.213C412.591 119.075 410.605 121.269 407.659 121.269C404.58 121.269 402.694 118.979 402.694 116.213ZM282.142 116.213V108.328H278.567V110.235C277.442 108.836 275.72 107.946 273.37 107.946C268.769 107.946 265.161 111.412 265.161 116.213C265.161 121.014 268.769 124.48 273.37 124.48C275.72 124.48 277.409 123.59 278.567 122.191V124.099H282.142V116.213ZM268.869 116.213C268.869 113.447 270.755 111.157 273.834 111.157C276.78 111.157 278.766 113.32 278.766 116.213C278.766 119.075 276.78 121.269 273.834 121.269C270.755 121.269 268.869 118.979 268.869 116.213Z" fill="#231F20"/>
<rect y="80" width="180" height="72" fill="white"/>
<g clip-path="url(#clip1)">
<path d="M94.2722 122.9L96.3574 125.935C96.4449 126.068 96.4303 126.246 96.3136 126.35C93.5432 128.941 89.4312 129.8 85.7421 128.215C84.5027 127.682 83.4237 126.912 82.5342 125.994C82.2718 126.009 82.0093 126.024 81.7468 126.024C81.3823 126.024 81.0032 126.009 80.6532 125.979C79.4576 125.876 78.3056 125.609 77.1974 125.165C75.7685 124.588 74.529 123.803 73.4938 122.781C72.4585 121.774 71.6274 120.56 71.0149 119.139C70.4025 117.718 70.0963 116.148 70.0963 114.431C70.0963 112.713 70.4025 111.144 71.0149 109.737C71.6274 108.33 72.4439 107.131 73.4938 106.139C74.529 105.147 75.7685 104.377 77.1974 103.829C78.6264 103.267 80.1429 103 81.7468 103C83.3508 103 84.8672 103.267 86.2962 103.814C87.7252 104.362 88.95 105.132 89.9999 106.124C91.0352 107.116 91.8663 108.315 92.4787 109.722C93.0911 111.129 93.3973 112.683 93.3973 114.416C93.3973 116.133 93.0911 117.703 92.4787 119.124C92.1579 119.864 91.7788 120.546 91.3414 121.167C91.2393 121.315 91.0352 121.345 90.9039 121.227L87.2586 118.354C87.1419 118.265 87.1128 118.103 87.1711 117.969C87.3315 117.644 87.4627 117.303 87.5648 116.948C87.8127 116.104 87.9439 115.26 87.9439 114.416C87.9439 113.572 87.8127 112.728 87.5648 111.899C87.3169 111.069 86.9378 110.314 86.4274 109.663C85.9171 108.997 85.2755 108.464 84.5027 108.049C83.7445 107.649 82.8259 107.442 81.7468 107.442C80.6824 107.442 79.7492 107.649 78.9764 108.049C78.2036 108.464 77.5766 108.997 77.0662 109.663C76.5559 110.329 76.1767 111.069 75.9289 111.899C75.681 112.728 75.5497 113.572 75.5497 114.416C75.5497 115.26 75.681 116.104 75.9289 116.948C76.1767 117.792 76.5559 118.547 77.0662 119.213C77.5766 119.879 78.2036 120.427 78.991 120.842C79.0347 120.856 79.0639 120.886 79.1076 120.901C79.3846 121.049 79.6763 121.153 79.9971 121.241C79.9679 121.093 79.9387 120.96 79.9096 120.812C79.8075 120.279 79.7492 119.731 79.7346 119.198C79.7346 119.035 79.8512 118.902 79.9971 118.887L83.5841 118.295C83.7736 118.265 83.9486 118.413 83.9486 118.621V118.798C83.934 119.42 84.0069 120.042 84.1819 120.634C84.6485 122.219 85.7859 123.596 87.4044 124.292C87.5648 124.366 87.7398 124.425 87.9002 124.469C88.673 124.721 89.4604 124.795 90.2332 124.706C91.5893 124.558 92.8724 123.907 93.8056 122.87C93.9369 122.707 94.1702 122.737 94.2722 122.9ZM131.892 103.044C132.053 103.059 132.155 103.207 132.155 103.355V108.005C132.155 108.197 131.98 108.345 131.79 108.315C131.586 108.286 131.353 108.241 131.236 108.241C131.017 108.227 130.813 108.212 130.594 108.212C129.34 108.212 128.32 108.449 127.561 108.923C126.803 109.396 126.22 109.929 125.812 110.536C125.403 111.144 125.141 111.751 125.01 112.358C124.879 112.965 124.806 113.424 124.806 113.72V125.136C124.806 125.313 124.66 125.446 124.499 125.446H119.731C119.556 125.446 119.425 125.298 119.425 125.136V103.874C119.425 103.696 119.571 103.563 119.731 103.563H124.499C124.674 103.563 124.806 103.711 124.806 103.874V107.027H124.893C125.491 105.754 126.351 104.762 127.459 104.066C128.568 103.355 129.851 103 131.28 103C131.498 103 131.703 103.015 131.892 103.044ZM52.0446 112.313H63.0972C63.0681 110.699 62.5723 109.426 61.6099 108.508C60.6476 107.575 59.3207 107.116 57.6147 107.116C55.9961 107.116 54.713 107.59 53.7798 108.538C52.832 109.47 52.2487 110.729 52.0446 112.313ZM65.6782 106.109C66.5676 107.116 67.2529 108.345 67.7487 109.826C68.2445 111.306 68.4924 112.994 68.4924 114.919V116.104C68.4924 116.281 68.3465 116.415 68.1861 116.415H52.0446C52.2195 118.058 52.8465 119.331 53.9256 120.249C55.0046 121.167 56.3023 121.612 57.8334 121.612C59.1749 121.612 60.3122 121.33 61.2308 120.768C62.062 120.249 62.8056 119.628 63.4472 118.872C63.5493 118.754 63.7388 118.724 63.8701 118.828L67.18 121.508C67.3113 121.626 67.3404 121.819 67.2238 121.967C66.0427 123.374 64.7304 124.38 63.2868 125.002C61.7266 125.669 60.0935 126.009 58.3875 126.009C56.7689 126.009 55.2379 125.743 53.8089 125.195C52.3654 124.647 51.1259 123.877 50.0761 122.87C49.0262 121.863 48.1951 120.664 47.5827 119.243C46.9557 117.806 46.6495 116.237 46.6495 114.505C46.6495 112.772 46.9557 111.203 47.5681 109.781C48.1805 108.36 49.0116 107.161 50.0615 106.154C51.1114 105.147 52.3508 104.377 53.7943 103.829C55.2379 103.281 56.7544 103 58.3729 103C59.8748 103 61.2454 103.267 62.4848 103.8C63.7388 104.333 64.8033 105.103 65.6782 106.109ZM151.956 111.055C151.985 111.736 152 112.343 152 112.861V125.136C152 125.313 151.854 125.446 151.694 125.446H147.465C147.29 125.446 147.159 125.298 147.159 125.136V122.441H147.028C146.255 123.685 145.263 124.588 144.068 125.15C142.872 125.713 141.545 125.994 140.116 125.994C139.125 125.994 138.162 125.861 137.214 125.58C136.267 125.313 135.435 124.899 134.692 124.351C133.963 123.803 133.365 123.122 132.913 122.293C132.461 121.478 132.242 120.516 132.242 119.42C132.242 118.236 132.446 117.229 132.869 116.385C133.292 115.556 133.846 114.845 134.561 114.282C135.26 113.72 136.077 113.276 137.01 112.935C137.943 112.595 138.906 112.343 139.912 112.18C140.889 112.032 141.91 111.928 142.916 111.884C143.936 111.839 144.899 111.81 145.788 111.81H147.13V111.218C147.13 109.855 146.663 108.819 145.73 108.138C144.797 107.457 143.616 107.116 142.187 107.116C141.049 107.116 139.985 107.323 138.993 107.738C138.104 108.108 137.316 108.597 136.646 109.204C136.514 109.322 136.339 109.308 136.223 109.189L133.817 106.746C133.7 106.628 133.7 106.42 133.817 106.302C134.969 105.177 136.296 104.347 137.798 103.829C139.431 103.281 141.078 103 142.784 103C144.315 103 145.599 103.178 146.649 103.518C147.698 103.874 148.559 104.318 149.259 104.866C149.944 105.413 150.483 106.05 150.848 106.761C151.227 107.472 151.49 108.197 151.65 108.923C151.825 109.663 151.927 110.374 151.956 111.055ZM146.838 116.874V115.645H145.715C144.972 115.645 144.126 115.674 143.193 115.733C142.26 115.793 141.385 115.941 140.568 116.163C139.737 116.385 139.052 116.726 138.483 117.17C137.914 117.614 137.623 118.221 137.623 119.021C137.623 119.539 137.739 119.968 137.958 120.323C138.177 120.679 138.468 120.975 138.833 121.212C139.197 121.449 139.591 121.626 140.043 121.73C140.495 121.834 140.947 121.893 141.385 121.893C143.236 121.893 144.607 121.449 145.497 120.546C146.386 119.657 146.838 118.428 146.838 116.874ZM115.357 103.548C115.532 103.548 115.663 103.696 115.663 103.859V125.136C115.663 125.313 115.517 125.446 115.357 125.446H110.851C110.676 125.446 110.545 125.298 110.545 125.136V121.937H110.458C109.947 123.033 109.174 123.981 108.125 124.795C107.075 125.595 105.66 126.009 103.852 126.009C102.409 126.009 101.198 125.772 100.192 125.298C99.1861 124.825 98.3696 124.188 97.7426 123.388C97.1156 122.589 96.6636 121.656 96.4011 120.634C96.1386 119.598 95.9928 118.517 95.9928 117.392V103.874C95.9928 103.696 96.1386 103.563 96.299 103.563H101.067C101.242 103.563 101.373 103.711 101.373 103.874V114.653C101.373 115.26 101.403 115.941 101.461 116.681C101.519 117.421 101.68 118.132 101.927 118.784C102.175 119.435 102.569 119.983 103.094 120.427C103.619 120.871 104.363 121.093 105.325 121.093C106.229 121.093 106.973 120.945 107.6 120.634C108.212 120.323 108.722 119.924 109.131 119.405C109.539 118.887 109.831 118.295 110.006 117.629C110.181 116.962 110.268 116.267 110.268 115.526V103.874C110.268 103.696 110.414 103.563 110.574 103.563H115.357V103.548ZM42.5667 113.661C43.4416 114.134 44.156 114.771 44.7247 115.6C45.2934 116.415 45.585 117.555 45.585 118.976C45.585 120.279 45.308 121.39 44.7539 122.278C44.1998 123.181 43.4853 123.892 42.5958 124.44C41.7064 124.987 40.7148 125.387 39.6067 125.624C38.4985 125.861 37.3903 125.994 36.2821 125.994C34.6052 125.994 33.0596 125.757 31.6598 125.269C30.3329 124.81 29.1518 124.01 28.0874 122.855C27.9707 122.737 27.9853 122.53 28.102 122.426L31.2515 119.42C31.3682 119.302 31.5723 119.317 31.689 119.435C32.316 120.116 32.9867 120.694 33.7012 121.138C34.4886 121.641 35.4655 121.893 36.6029 121.893C36.9966 121.893 37.3903 121.849 37.8131 121.76C38.236 121.671 38.6151 121.523 38.9797 121.301C39.3442 121.093 39.6358 120.827 39.8545 120.501C40.0733 120.175 40.1899 119.805 40.1899 119.376C40.1899 118.621 39.8983 118.058 39.3296 117.688C38.7609 117.333 38.0465 117.036 37.1862 116.814C36.3113 116.592 35.3781 116.37 34.3719 116.178C33.3658 115.97 32.4326 115.659 31.5577 115.215C30.6974 114.771 29.9684 114.149 29.3997 113.364C28.831 112.58 28.554 111.484 28.554 110.077C28.554 108.863 28.8019 107.797 29.2976 106.909C29.7934 106.006 30.4496 105.28 31.2515 104.703C32.0535 104.125 32.9867 103.696 34.0366 103.429C35.0864 103.148 36.1509 103 37.2299 103C38.6735 103 40.0878 103.252 41.5022 103.755C42.8146 104.229 43.9082 105.014 44.7539 106.109C44.856 106.243 44.8268 106.42 44.7101 106.524L41.5606 109.396C41.4293 109.515 41.2252 109.5 41.1085 109.352C40.0878 108.049 38.7464 107.383 37.0841 107.383C36.3696 107.383 35.6551 107.56 34.9698 107.931C34.2845 108.301 33.9345 108.893 33.9345 109.707C33.9345 110.374 34.2261 110.862 34.7948 111.173C35.3635 111.484 36.078 111.736 36.9528 111.943C37.8277 112.15 38.7609 112.372 39.7671 112.609C40.7732 112.846 41.7064 113.187 42.5667 113.661Z" fill="#08A468"/>
</g>
<defs>
<clipPath id="clip0">
<rect width="124" height="34" fill="white" transform="translate(264 22)"/>
</clipPath>
<clipPath id="clip1">
<rect width="124" height="26" fill="white" transform="translate(28 103)"/>
</clipPath>
</defs>
</svg>
