<svg width="20" height="16" viewBox="0 0 20 16" fill="none" xmlns="http://www.w3.org/2000/svg">
<path fill-rule="evenodd" clip-rule="evenodd" d="M9.45795 4.25625L9.50017 4.9483L8.79646 4.86356C6.23493 4.53872 3.99711 3.4371 2.09708 1.58693L1.16817 0.668915L0.928906 1.34684C0.42223 2.85804 0.745939 4.45398 1.80151 5.52735C2.36449 6.12054 2.23782 6.20528 1.26669 5.85219C0.928906 5.7392 0.633345 5.65446 0.605196 5.69683C0.506676 5.7957 0.84446 7.08092 1.11187 7.58937C1.4778 8.29553 2.22374 8.98758 3.04006 9.39716L3.7297 9.72199L2.91339 9.73612C2.12522 9.73612 2.09708 9.75024 2.18152 10.0468C2.46301 10.9649 3.57488 11.9394 4.81342 12.3631L5.68603 12.6597L4.92602 13.1116C3.80007 13.7613 2.47708 14.1285 1.1541 14.1567C0.52075 14.1709 0 14.2273 0 14.2697C0 14.411 1.71707 15.2019 2.71635 15.5126C5.71418 16.4306 9.27498 16.0351 11.9491 14.4674C13.8491 13.3517 15.7492 11.1343 16.6359 8.98758C17.1144 7.84359 17.5929 5.75333 17.5929 4.75057C17.5929 4.10089 17.6351 4.01615 18.4233 3.23937C18.8878 2.78742 19.3241 2.2931 19.4085 2.15187C19.5492 1.88352 19.5352 1.88352 18.8174 2.12362C17.6211 2.54732 17.4522 2.49083 18.0433 1.85528C18.4796 1.40333 19.0003 0.584174 19.0003 0.344077C19.0003 0.301707 18.7892 0.372324 18.55 0.499434C18.2966 0.640668 17.7337 0.852518 17.3114 0.979629L16.5514 1.21973L15.8618 0.753655C15.4818 0.499434 14.9469 0.216967 14.6655 0.132227C13.9477 -0.0655006 12.8499 -0.0372539 12.2024 0.18872C10.4432 0.824272 9.33128 2.46258 9.45795 4.25625Z" fill="white"/>
</svg>
